<?xml version="1.0" encoding="UTF-8"?>
<svg version="1.1" xmlns="http://www.w3.org/2000/svg" width="2242" height="463">
<path d="M0 0 C19.8 0 39.6 0 60 0 C60.33 42.24 60.66 84.48 61 128 C63.97 124.04 66.94 120.08 70 116 C78.54332579 106.19099631 90.16748272 100.72422646 103 99 C117.33589475 98.09757 129.09787369 99.25389678 141 108 C149.9933214 116.02904842 153.99091458 128.01750035 154.8359375 139.73828125 C155.83332641 159.56732267 153.72174191 179.31068955 151.68798828 199.02441406 C150.95253616 206.3097788 150.78217652 213.55484065 150.75 220.875 C150.729375 222.07125 150.70875 223.2675 150.6875 224.5 C150.68234375 225.65242187 150.6771875 226.80484375 150.671875 227.9921875 C150.65785645 229.54462158 150.65785645 229.54462158 150.64355469 231.12841797 C151.05531593 234.44563424 152.04071128 236.31631371 154 239 C155.83333333 240.16666667 155.83333333 240.16666667 158 240 C164.87469973 236.90638512 167.75051967 230.95945731 170.5625 224.375 C170.85318359 223.72660156 171.14386719 223.07820312 171.44335938 222.41015625 C175.48529165 213.09653153 177.44767007 204.16445035 177.43237305 194.02075195 C177.44766052 192.4675248 177.44766052 192.4675248 177.46325684 190.88291931 C177.49316046 187.50131663 177.50261808 184.11999825 177.51171875 180.73828125 C177.52858221 178.37744726 177.54673467 176.01662216 177.56611633 173.6558075 C177.61344121 167.47293882 177.64336376 161.29010619 177.66955566 155.1071167 C177.70471516 147.67207894 177.76167782 140.23717954 177.81494904 132.80225372 C177.89325735 121.53485383 177.94401896 110.26763252 178 99 C197.8 99 217.6 99 238 99 C238.0093457 103.34647705 238.01869141 107.6929541 238.02832031 112.17114258 C238.06203147 126.50430505 238.11734511 140.83732332 238.18390274 155.17036915 C238.22374045 163.86366403 238.25610881 172.55686777 238.27099609 181.25024414 C238.28398818 188.82593003 238.31088995 196.40141578 238.35461307 203.97698897 C238.37728322 207.98958417 238.39290738 212.00193201 238.39188385 216.01459694 C238.39114049 219.78958421 238.40895952 223.56402354 238.44116783 227.33886909 C238.4497037 228.72599541 238.45139185 230.11318293 238.44580269 231.50032425 C238.43919778 233.39105426 238.45938241 235.28182182 238.48101807 237.17243958 C238.48470524 238.23157971 238.48839241 239.29071985 238.49219131 240.38195515 C238.7732632 243.11491524 238.7732632 243.11491524 240.84884262 244.89156628 C243.04108302 246.28613733 243.04108302 246.28613733 245.9375 245.5625 C253.21359789 241.85020516 256.48171039 234.34353181 259.06640625 226.94921875 C262.37837115 216.54891568 264.29462638 206.87092159 264.31884766 195.95068359 C264.32889328 194.89583771 264.3389389 193.84099182 264.34928894 192.75418091 C264.37993286 189.30227148 264.39710359 185.85043893 264.4140625 182.3984375 C264.43278927 179.99133654 264.45236379 177.58424204 264.4727478 175.17715454 C264.52391548 168.86769431 264.56362327 162.55821283 264.60089111 156.24865723 C264.64809455 148.66431979 264.70962622 141.08008652 264.76873779 133.49583435 C264.85676256 121.9972653 264.92666144 110.49871432 265 99 C284.8 99 304.6 99 325 99 C325.33 108.57 325.66 118.14 326 128 C327.98 125.03 329.96 122.06 332 119 C341.05344365 107.2837788 353.32981325 100.90335348 368 99 C381.9389934 98.13189808 393.8134744 98.79231828 405 108 C413.50646968 115.73873776 418.56828888 125.81058887 419.17700195 137.35766602 C419.24623368 141.75953521 419.29718795 146.16012129 419.3125 150.5625 C419.31644775 151.38313934 419.32039551 152.20377869 419.32446289 153.04928589 C419.36014521 169.17944138 418.09418757 185.10261188 416.4230957 201.13696289 C413.87338272 219.91271277 413.87338272 219.91271277 418 238 C419.09354906 239.29524348 419.09354906 239.29524348 421.75 239.375 C426.10561496 238.87242904 427.14135547 237.25814454 430 234 C438.32467668 220.66640769 442.24836286 206.25857831 442.69775391 190.66259766 C443.57941048 161.05600118 452.76900027 132.23099973 474 111 C483.8311855 101.80308453 495.07456447 98.46014794 508.33203125 98.6875 C519.95529485 99.6777674 528.68700528 104.01518337 536.375 112.625 C538.43243761 115.07323582 539.51747912 117.03495823 541 120 C541.33 113.07 541.66 106.14 542 99 C561.8 99 581.6 99 602 99 C602.03758423 105.5275708 602.03758423 105.5275708 602.07592773 112.18701172 C602.15923906 126.53209705 602.24789547 140.87714563 602.33933926 155.22218132 C602.39467405 163.92333496 602.44815646 172.62449269 602.49731445 181.32568359 C602.54015316 188.90750718 602.58643035 196.48930055 602.63687855 204.07107747 C602.66348202 208.08748434 602.68833515 212.1038852 602.70907402 216.120327 C602.72863208 219.89757988 602.75277334 223.67477522 602.78049088 227.45197678 C602.78986572 228.84115048 602.79753944 230.23033683 602.80341911 231.61952972 C602.81167281 233.51060974 602.82653853 235.4016575 602.84178162 237.29269409 C602.84823417 238.35275602 602.85468672 239.41281796 602.8613348 240.50500298 C602.83442744 242.99959758 602.83442744 242.99959758 604 245 C606.23087207 246.03182652 606.23087207 246.03182652 609 246 C616.42676696 242.68165732 619.58706638 235.69198757 622.3828125 228.38671875 C625.30095008 219.82792335 627.03359863 211.17492594 628.421875 202.25390625 C629 199 629 199 630 198 C631.99958364 197.95919217 634.00045254 197.95745644 636 198 C637.77031953 222.19436692 628.36760828 249.88921148 613.625 269 C606.69299892 277.00396001 598.36294804 282.92085333 587.67285156 284.30029297 C585.31457492 284.43571777 582.98686296 284.4679507 580.625 284.4375 C579.38109497 284.42614014 579.38109497 284.42614014 578.11206055 284.41455078 C568.12402261 284.14716217 559.13300151 281.27409385 552 274 C546.90405006 267.37881214 544.3216993 259.94840583 542 252 C541.79246094 252.75023437 541.58492187 253.50046875 541.37109375 254.2734375 C538.06989219 265.2406092 533.07036613 274.08712448 523 280 C522.30777344 280.4125 521.61554687 280.825 520.90234375 281.25 C511.3360768 285.97570306 498.60322202 285.46149842 488.5625 282.4375 C470.37721378 275.26902618 459.24579253 261.13609676 451.625 243.6875 C449.49990922 238.53632967 447.72274841 233.29577337 446 228 C445.82460693 228.57331055 445.64921387 229.14662109 445.46850586 229.73730469 C440.44841315 245.95381409 435.2125661 258.76554758 423 271 C422.42507813 271.58652344 421.85015625 272.17304688 421.2578125 272.77734375 C410.12156921 283.24754378 395.3595157 284.60598721 380.8359375 284.3125 C371.61159986 283.88561203 363.60142111 280.51456031 357 274 C352.49014741 268.56767756 349.73018696 262.82116874 348 256 C347.81695313 255.29101562 347.63390625 254.58203125 347.4453125 253.8515625 C343.69804292 229.85588886 350.99926926 205.37411701 356.26953125 182.15966797 C356.44168655 181.40056625 356.61384186 180.64146454 356.79121399 179.85935974 C357.11550942 178.43291548 357.44139815 177.00683209 357.76921082 175.58119202 C360.18498982 164.97160065 363.00755229 151.79008521 357 142 C355.15331304 139.22996956 354.02729408 139.00787329 350.75 138.0625 C346.13459144 137.98557652 343.45629723 139.09794197 340 142 C332.15979454 149.97745195 325.9276472 161.55057023 325.84178162 172.88482666 C325.8319928 173.86636719 325.82220398 174.84790771 325.81211853 175.85919189 C325.80636307 176.92949646 325.8006076 177.99980103 325.79467773 179.10253906 C325.78477814 180.23453735 325.77487854 181.36653564 325.76467896 182.53283691 C325.73307403 186.27707828 325.70831037 190.02133234 325.68359375 193.765625 C325.66302337 196.36066011 325.64202687 198.95569187 325.62062073 201.55072021 C325.57105306 207.68461062 325.52578544 213.81851898 325.48259836 219.95245719 C325.42833641 227.62198528 325.36750228 235.29145943 325.30664062 242.9609375 C325.19811391 256.64058353 325.09952738 270.32027896 325 284 C305.2 284 285.4 284 265 284 C264.67 270.47 264.34 256.94 264 243 C261.36 248.61 258.72 254.22 256 260 C249.10643728 270.34034409 241.45520247 279.47379722 229.25390625 283.37890625 C218.35637096 285.45898802 205.51230616 285.52339571 195.80078125 279.67578125 C185.45434973 272.38929251 181.01601129 263.09158482 178.75 251 C178.57726562 250.12988281 178.40453125 249.25976562 178.2265625 248.36328125 C177.80740353 246.2441998 177.40222173 244.12236145 177 242 C176.74347656 242.71542969 176.48695313 243.43085938 176.22265625 244.16796875 C170.41334418 259.28782811 161.23985488 272.29687687 146.375 279.4375 C133.89756228 284.95334464 117.85760218 286.74737894 104.6875 282.4375 C95.56966163 278.3113896 88.64650298 270.75065018 85 261.44921875 C77.36106662 237.24702115 85.15947957 211.18773989 90.77514648 187.33886719 C96.72770602 165.04242056 96.72770602 165.04242056 93 143 C90.84031422 140.02112306 89.61407978 139.20024341 86.125 138.0625 C81.25808518 137.9651617 78.64629919 139.51899189 75.0546875 142.75 C69.30146894 148.70009677 66.01388265 155.35011314 63 163 C62.65127838 163.82243195 62.30255676 164.64486389 61.94326782 165.49221802 C60.61676546 170.42515539 60.69158169 175.15024143 60.68115234 180.23779297 C60.66608391 181.92159813 60.66608391 181.92159813 60.65071106 183.63941956 C60.61988338 187.34033712 60.60284478 191.04118235 60.5859375 194.7421875 C60.56722555 197.31194684 60.54765212 199.88170004 60.5272522 202.45144653 C60.48117048 208.51797564 60.44376124 214.58450113 60.41057932 220.65111268 C60.368544 228.23882668 60.31319791 235.82643621 60.2578125 243.4140625 C60.15911999 256.94265089 60.08050297 270.471264 60 284 C40.2 284 20.4 284 0 284 C0 190.28 0 96.56 0 0 Z M518 152 C508.76163887 162.44994947 508.04724104 175.32948958 508.78857422 188.64160156 C509.79295009 199.84514767 513.34415599 210.06617863 521.9375 217.5625 C525.71192723 219.33416992 527.87562841 219.66284543 532 219 C537.24740546 215.7075103 539.88581281 211.78766231 542 206 C542.54106706 202.78238288 542.58550604 199.64079085 542.56640625 196.3828125 C542.57260483 195.48561493 542.57880341 194.58841736 542.58518982 193.66403198 C542.59225535 191.77652056 542.58917145 189.88894639 542.57641602 188.00146484 C542.56256827 185.13911197 542.59664723 182.28004551 542.63476562 179.41796875 C542.68248573 167.97495021 541.8033045 160.19373475 534.625 150.9375 C528.80338438 146.64059323 523.33403413 147.35264613 518 152 Z " fill="#FDD00C" transform="translate(756,69)"/>
<path d="M0 0 C2.76137591 2.19915672 5.42897044 4.46703592 8.0703125 6.80859375 C8.82828125 7.47117188 9.58625 8.13375 10.3671875 8.81640625 C27.6170493 24.90404332 38.66470207 48.64561025 41.19140625 71.9765625 C41.27465149 72.74206421 41.35789673 73.50756592 41.44366455 74.29626465 C42.32163309 83.17926664 42.37114784 92.05737875 42.33105469 100.9765625 C42.32032155 103.80620738 42.33103038 106.63521773 42.34375 109.46484375 C42.37032012 142.51591866 35.72838831 172.46536072 12.0703125 196.80859375 C11.32394531 197.6284375 10.57757813 198.44828125 9.80859375 199.29296875 C-9.23364608 219.56272486 -35.4882879 228.11323655 -62.6328125 229.99609375 C-85.53394197 230.61925374 -109.91839413 223.80521957 -127.62109375 208.9609375 C-132.86469931 206.34357093 -140.20824786 209.51255622 -145.7421875 210.80859375 C-152.13657075 212.2555027 -158.35873437 213.56295064 -164.9296875 213.80859375 C-165.98414063 213.86015625 -167.03859375 213.91171875 -168.125 213.96484375 C-201.79675193 214.83754574 -231.96134855 202.90146445 -256.56640625 180.1015625 C-276.96146383 160.31330002 -288.77970263 135.57243252 -292.39453125 107.49609375 C-292.9174469 104.87006478 -293.58977186 103.32612356 -295.0546875 101.12109375 C-297.60673909 96.61246928 -297.74982949 92.88008404 -296.9296875 87.80859375 C-295.1340156 84.01005703 -293.63352435 82.28848251 -290.1796875 79.93359375 C-285.57571782 78.33991194 -281.54973521 77.8378191 -276.96875 79.53515625 C-272.98975273 81.60020547 -270.48242893 83.60705813 -268.9296875 87.80859375 C-268.40175469 92.31461181 -267.98926502 96.34153468 -270.4921875 100.24609375 C-273.74752111 106.04907976 -271.16456313 113.42015399 -269.47119141 119.48266602 C-261.44994701 146.22122807 -244.31240778 168.11507237 -219.9296875 181.80859375 C-204.6941944 189.44323109 -189.6253214 192.98601906 -172.6796875 192.99609375 C-171.61105469 193.00833984 -170.54242188 193.02058594 -169.44140625 193.03320312 C-162.39074113 193.04605367 -155.81533185 192.32395064 -148.9296875 190.80859375 C-151.23383964 186.66111989 -153.67118196 182.69343242 -156.3046875 178.74609375 C-170.33094678 156.76060811 -172.29397825 132.79911253 -172.24536133 107.50390625 C-172.24220639 104.07910139 -172.26571844 100.6551672 -172.29101562 97.23046875 C-172.38800676 63.78650421 -164.63908932 33.44458956 -140.6171875 8.99609375 C-102.79925846 -28.1066157 -42.20257643 -31.56752717 0 0 Z " fill="#FDD00C" transform="translate(366.9296875,169.19140625)"/>
<path d="M0 0 C15.74034432 14.89362235 26.86581368 35.24960132 28.015625 57.18164062 C28.56547433 78.7247375 28.56547433 78.7247375 26.83203125 88.6796875 C17.58329985 89.85900503 8.33390319 91.0329208 -0.91637421 92.20005035 C-5.21216633 92.74223079 -9.5077113 93.28623065 -13.80273438 93.83447266 C-17.95189511 94.36402653 -22.1016481 94.88869113 -26.25184631 95.41004944 C-27.83079327 95.6092577 -29.40952353 95.81019172 -30.98802185 96.01292419 C-33.2082527 96.29776969 -35.42919261 96.57632698 -37.65039062 96.85351562 C-38.911698 97.01339966 -40.17300537 97.17328369 -41.47253418 97.3380127 C-45.44888853 97.70566096 -49.17803824 97.86840313 -53.16796875 97.6796875 C-55.19921875 95.73828125 -55.19921875 95.73828125 -56.66796875 93.1171875 C-60.78551662 86.48962757 -65.56324096 81.11548753 -73.16796875 78.6796875 C-79.43381879 77.97740154 -84.79763969 78.09946813 -90.16796875 81.6796875 C-91.40546875 82.453125 -91.40546875 82.453125 -92.66796875 83.2421875 C-103.53834313 93.84080252 -107.1270643 110.22395075 -107.48046875 124.8671875 C-107.17488293 143.67981428 -101.784629 162.43908666 -88.85546875 176.5546875 C-76.50597245 187.95213012 -58.45782359 189.58517101 -42.4375 189.0546875 C-19.4647798 187.73890614 0.59624237 174.11304012 16.65893555 158.52636719 C19.05223133 156.21602064 20.62953143 154.74718744 23.83203125 153.6796875 C25.71789799 158.56664483 27.58707043 163.45954147 29.44116211 168.35864258 C30.07399709 170.02378456 30.71133221 171.68722359 31.35327148 173.34887695 C32.27610285 175.73994661 33.18248885 178.13670678 34.0859375 180.53515625 C34.37545792 181.2749321 34.66497833 182.01470795 34.96327209 182.77690125 C36.45598759 186.79241939 37.2647585 189.56925856 35.83203125 193.6796875 C21.60361641 222.41279708 -10.19361646 241.03503057 -39.3828125 251.14453125 C-73.37643034 262.36111848 -110.07105812 261.18304283 -142.59375 246.08984375 C-172.76787862 230.73175433 -193.21734038 202.1211711 -204.16796875 170.6796875 C-209.22348452 154.41478761 -211.57594004 138.08967484 -211.48046875 121.0546875 C-211.4783136 120.35725433 -211.47615845 119.65982117 -211.47393799 118.94125366 C-211.35031105 93.88893426 -206.25374788 70.233514 -195.16796875 47.6796875 C-194.62398438 46.56335938 -194.08 45.44703125 -193.51953125 44.296875 C-177.78531155 13.64100093 -151.13329612 -9.75825909 -118.60546875 -21.1328125 C-78.78300229 -33.59569189 -31.73098777 -28.75354924 0 0 Z " fill="#FDD00C" transform="translate(703.16796875,95.3203125)"/>
<path d="M0 0 C19.8 0 39.6 0 60 0 C60.02578125 9.7246875 60.0515625 19.449375 60.078125 29.46875 C60.10329195 35.63022847 60.12946083 41.7916757 60.16015625 47.953125 C60.20868887 57.73241966 60.25313541 67.51161041 60.27099609 77.29101562 C60.28402354 84.413724 60.31101593 91.53622088 60.35461307 98.65881014 C60.37720354 102.42844041 60.39291215 106.19781007 60.39188385 109.96751404 C60.39113579 113.52009829 60.40914413 117.07210698 60.44116783 120.62454224 C60.45366802 122.54095467 60.44661415 124.45746386 60.43885803 126.37390137 C60.52272836 133.33850784 61.06357615 138.15906479 65 144 C67.84479524 145.7885316 68.96186835 146.0006933 72.4375 145.9375 C76.89797913 144.7636897 78.25282354 143.71240062 81 140 C89.08451086 124.08361924 87.33181501 104.02414067 87.4140625 86.71875 C87.43280736 84.20812365 87.45238315 81.69750338 87.4727478 79.18688965 C87.5237247 72.63091646 87.5635332 66.07492291 87.60089111 59.51885986 C87.64703672 51.62483923 87.70969491 43.73092244 87.76873779 35.83699036 C87.85652924 23.89136731 87.92659462 11.94575907 88 0 C107.8 0 127.6 0 148 0 C148.04527073 24.9490455 148.08206101 49.89805739 148.10362434 74.84713364 C148.11390584 86.43326038 148.1279059 98.01935965 148.15087891 109.60546875 C148.17090903 119.7122583 148.18373911 129.81902795 148.18817699 139.9258368 C148.19076818 145.26971291 148.19679228 150.6135321 148.21146011 155.95738983 C148.22519666 161.00360286 148.22919075 166.04973639 148.22621536 171.09596634 C148.22675843 172.9323355 148.23063896 174.76870778 148.23841095 176.60506058 C148.30214943 192.4644948 147.96152679 208.84545217 143.8125 224.25 C143.59819336 225.06734619 143.38388672 225.88469238 143.16308594 226.72680664 C137.02395489 249.05822145 124.74370135 267.96320159 104.57421875 280.02734375 C90.02453251 288.29483636 74.17738179 290.5649719 57.6875 290.4375 C56.9194101 290.43645264 56.15132019 290.43540527 55.35995483 290.43432617 C38.55285302 290.38824366 21.85395558 288.99436143 5.12963867 287.42358398 C-16.78593255 285.3874334 -40.89564088 283.24844447 -61.18359375 293.62890625 C-64 295 -64 295 -67 295 C-67 265.3 -67 235.6 -67 205 C-38.84820714 200.97831531 -13.74270695 205.76107877 12.234375 216.57421875 C37.64285045 227.16671602 37.64285045 227.16671602 64.65625 225.171875 C66.87345459 224.24064907 68.91735274 223.19870795 71 222 C72.051875 221.443125 73.10375 220.88625 74.1875 220.3125 C82.66351225 213.34333437 85.35059212 203.51304836 87 193 C87.55357121 186.84244564 87.38657931 180.67312715 87.25 174.5 C87.22986269 172.88674144 87.21162495 171.27345802 87.1953125 169.66015625 C87.15198376 165.77280351 87.08337787 161.88669139 87 158 C86.53456787 158.74910645 86.06913574 159.49821289 85.58959961 160.27001953 C84.97093018 161.25599121 84.35226074 162.24196289 83.71484375 163.2578125 C82.80013306 164.72178467 82.80013306 164.72178467 81.86694336 166.21533203 C74.99961474 176.45840124 65.52890044 181.54480583 53.83203125 184.55859375 C41.38022714 186.4993577 28.02503314 186.4174927 17.3671875 179.22265625 C7.25075339 171.1144098 2.21602974 159.3092802 0.72420597 146.6618681 C-0.02966385 139.12354874 -0.13528844 131.6549657 -0.11352539 124.08325195 C-0.11324263 122.72204083 -0.11340299 121.36082956 -0.1139679 119.99961853 C-0.11425239 116.33921596 -0.10841231 112.6788468 -0.10139394 109.01845193 C-0.0951021 105.1801243 -0.09455202 101.34179573 -0.09336853 97.50346375 C-0.0902723 90.25063267 -0.08208213 82.99781683 -0.07201904 75.74499243 C-0.05870378 65.93322719 -0.05334419 56.12145772 -0.04751682 46.30968571 C-0.03814093 30.87311241 -0.01821066 15.43657126 0 0 Z " fill="#FFFFFF" transform="translate(2094,168)"/>
<path d="M0 0 C19.8 0 39.6 0 60 0 C60.33 30.03 60.66 60.06 61 91 C70.81126645 77.9188273 70.81126645 77.9188273 80.3828125 64.6796875 C83.33569068 60.51932954 86.32327643 56.38428726 89.3125 52.25 C89.860271 51.49219238 90.40804199 50.73438477 90.97241211 49.95361328 C92.09038993 48.40715075 93.20847322 46.86076446 94.32666016 45.31445312 C97.05263138 41.54406982 99.77623069 37.77197414 102.5 34 C105.84311835 29.37063705 109.18661935 24.74155174 112.53125 20.11328125 C113.40233398 18.90768555 113.40233398 18.90768555 114.29101562 17.67773438 C115.39372692 16.15158194 116.49658099 14.62553265 117.59960938 13.09960938 C118.10298828 12.40287109 118.60636719 11.70613281 119.125 10.98828125 C119.77855469 10.08396362 119.77855469 10.08396362 120.4453125 9.16137695 C122.01224388 7.14396488 122.01224388 7.14396488 122.77494812 5.21748352 C123.96272333 2.89866546 124.91713582 1.59053968 127 0 C131.88322736 -1.0069198 136.74757185 -0.8145318 141.70703125 -0.68359375 C143.15717679 -0.67052875 144.60735334 -0.66056883 146.05754089 -0.65357971 C149.86418814 -0.62692309 153.66894887 -0.55822761 157.47485352 -0.48065186 C161.36253336 -0.40888711 165.25051979 -0.37704037 169.13867188 -0.34179688 C176.75997226 -0.26684898 184.37972126 -0.14747077 192 0 C190.78822088 3.11741396 189.65535618 5.74400827 187.6015625 8.390625 C187.12855713 9.00856934 186.65555176 9.62651367 186.16821289 10.26318359 C185.65895264 10.91883301 185.14969238 11.57448242 184.625 12.25 C180.3236937 17.88323566 176.12718726 23.56859391 172.0625 29.375 C166.33123411 37.55033051 160.49905569 45.6489867 154.64111328 53.73388672 C151.92351827 57.486448 149.21205527 61.24343419 146.5 65 C145.41669638 66.50002146 144.33336304 68.00002146 143.25 69.5 C142.71375 70.2425 142.1775 70.985 141.625 71.75 C123.75 96.5 123.75 96.5 122.12280273 98.75292969 C121.0466508 100.24306093 119.97064015 101.73329422 118.89477539 103.22363281 C116.07775591 107.12550175 113.25782345 111.02522103 110.43359375 114.921875 C109.84835937 115.73011719 109.263125 116.53835937 108.66015625 117.37109375 C107.54518372 118.91081772 106.42935437 120.44992175 105.3125 121.98828125 C104.31826434 123.36199617 103.32823507 124.73876939 102.34326172 126.11914062 C101.47560552 127.33404854 100.59766959 128.5417097 99.70751953 129.74023438 C98.42999021 131.46616285 98.42999021 131.46616285 97 134 C98.20019887 137.60059661 100.07354541 138.73015586 102.91796875 141.09375 C107.1276795 144.94804427 110.52645909 149.48898235 114 154 C114.76054688 154.98355469 115.52109375 155.96710938 116.3046875 156.98046875 C127.17137291 171.60595845 135.78965547 187.7811993 144.375 203.8125 C159.10688075 231.41686972 159.10688075 231.41686972 177 257 C177.62237549 257.78068848 177.62237549 257.78068848 178.25732422 258.57714844 C184.30440662 266.02424954 190.7807679 271.28626035 199.03125 276.16015625 C201.46534542 277.66865486 203.06690439 278.96314053 205 281 C204.14277344 281.9178125 203.28554687 282.835625 202.40234375 283.78125 C197.14851475 289.41644871 191.90321194 295.04365698 186.87109375 300.87890625 C184.29607054 303.79798266 181.64695285 306.64620346 179 309.5 C175.21489031 313.58161767 171.48434756 317.69457831 167.84375 321.90625 C165.41619037 324.66297026 162.92651504 327.36143316 160.4375 330.0625 C156.53271795 334.30097308 152.70926914 338.58897723 149 343 C128.96151751 333.73583201 118.08286958 311.7247421 110.79052734 292.00488281 C106.43541311 279.79286973 102.6191072 267.39633142 98.71081543 255.03619385 C88.32727755 222.20556606 77.12017656 191.62833546 61 161 C60.67 201.59 60.34 242.18 60 284 C40.2 284 20.4 284 0 284 C0 190.28 0 96.56 0 0 Z " fill="#FFFFFF" transform="translate(1536,69)"/>
<path d="M0 0 C2.48698983 1.9326379 4.84752994 3.93894695 7.18359375 6.05078125 C8.24513672 6.99050781 8.24513672 6.99050781 9.328125 7.94921875 C20.28106179 18.21105245 27.15189217 32.4591769 30.18359375 47.05078125 C30.18359375 48.04078125 30.18359375 49.03078125 30.18359375 50.05078125 C31.49030029 49.99019531 32.79700684 49.92960937 34.14331055 49.8671875 C38.99807533 49.6423982 43.85290853 49.41911748 48.70776367 49.19628906 C50.80771751 49.09969475 52.90765265 49.00269305 55.00756836 48.90527344 C58.02843462 48.76520015 61.04936541 48.62659901 64.0703125 48.48828125 C65.00695236 48.44453369 65.94359222 48.40078613 66.90861511 48.35571289 C67.78915054 48.31567139 68.66968597 48.27562988 69.5769043 48.234375 C70.34745651 48.19884521 71.11800873 48.16331543 71.91191101 48.12670898 C74.33739011 48.04564083 76.75694093 48.03819361 79.18359375 48.05078125 C81.0486647 53.1551041 82.12026847 58.264141 83.12890625 63.5859375 C83.30364471 64.50104599 83.47838318 65.41615448 83.65841675 66.35899353 C84.02544786 68.29251279 84.39007382 70.22648998 84.75244141 72.16088867 C85.30262487 75.0815948 85.86976712 77.99867756 86.4375 80.91601562 C90.88969814 104.29267893 90.88969814 104.29267893 88.18359375 113.42578125 C83.63226766 119.39939674 78.27690703 124.30751741 70.640625 125.421875 C58.93945289 125.71570059 52.12640342 120.30505045 43.546875 112.8828125 C39.1082636 109.07924947 34.39717428 105.63986134 29.70263672 102.16186523 C26.14043111 99.5220562 22.62474905 96.84879192 19.18359375 94.05078125 C15.83315978 95.50266719 13.67873179 97.33274715 11.13671875 99.9375 C10.37359375 100.71158203 9.61046875 101.48566406 8.82421875 102.28320312 C8.0353125 103.09337891 7.24640625 103.90355469 6.43359375 104.73828125 C-0.64093996 111.97199197 -7.83606812 118.81614208 -15.81640625 125.05078125 C-16.96302734 124.08978516 -16.96302734 124.08978516 -18.1328125 123.109375 C-33.99534237 110.16288052 -53.03226775 102.54070514 -73.81640625 104.05078125 C-93.63919399 106.68139154 -109.43811988 113.94424943 -123.81640625 128.05078125 C-124.44289063 128.65277344 -125.069375 129.25476563 -125.71484375 129.875 C-134.60201019 139.14419395 -139.78547476 151.75581624 -142.81640625 164.05078125 C-143.0071875 164.79457031 -143.19796875 165.53835937 -143.39453125 166.3046875 C-146.43118006 186.0710219 -142.30993543 205.14030921 -131.81640625 222.05078125 C-130.02012577 224.41782236 -130.02012577 224.41782236 -128.25390625 226.30078125 C-127.44953125 227.20828125 -126.64515625 228.11578125 -125.81640625 229.05078125 C-126.09608936 232.33817731 -127.39107713 233.99418039 -129.6953125 236.2578125 C-130.28272217 236.84071045 -130.87013184 237.4236084 -131.4753418 238.02416992 C-132.10351807 238.63107666 -132.73169434 239.2379834 -133.37890625 239.86328125 C-134.01932861 240.49274658 -134.65975098 241.12221191 -135.31958008 241.77075195 C-139.03640051 245.40090467 -142.82854894 248.89941712 -146.796875 252.25390625 C-151.34225194 256.29814878 -155.5512707 260.71508279 -159.81640625 265.05078125 C-157.30798899 269.6136036 -154.6831179 273.7071522 -151.44140625 277.80078125 C-147.22161573 283.19131608 -143.1184721 288.65811046 -139.06640625 294.17578125 C-138.47496826 294.98104248 -137.88353027 295.78630371 -137.27416992 296.6159668 C-136.06090565 298.26866569 -134.84793574 299.92158072 -133.63525391 301.57470703 C-131.84937145 304.00590434 -130.05851913 306.43334501 -128.265625 308.859375 C-121.9852999 317.35951526 -115.746335 325.88606596 -109.58764648 334.47485352 C-106.42592105 338.87042303 -103.19048965 343.19742428 -99.89208984 347.49121094 C-86.84984661 364.53867978 -86.84984661 364.53867978 -87.4609375 373.88671875 C-88.79720334 382.02178769 -92.2187727 386.35255609 -98.81640625 391.30078125 C-103.6969667 394.14777485 -108.35593619 394.21315457 -113.93554688 394.43969727 C-114.98332054 394.48380737 -114.98332054 394.48380737 -116.05226135 394.52880859 C-118.35891469 394.62479337 -120.66575263 394.71493427 -122.97265625 394.8046875 C-124.59672956 394.87029217 -126.22079355 394.93612774 -127.84484863 395.00218201 C-131.25763275 395.14005364 -134.67051652 395.27501643 -138.08349609 395.40795898 C-142.39467675 395.57612667 -146.7055234 395.75157772 -151.0163269 395.9291172 C-168.29114981 396.63747435 -185.52379721 397.24890032 -202.81640625 397.05078125 C-201.46812862 378.60841114 -199.86797425 360.19505734 -198.14718735 341.78418243 C-197.79327258 337.99259386 -197.44179758 334.2007789 -197.08996582 330.40899658 C-196.4045673 323.02657379 -195.71691945 315.6443623 -195.02834444 308.26223517 C-194.46902287 302.26561144 -193.91042213 296.26892098 -193.35231209 290.27218437 C-191.59437036 271.38428812 -189.83400106 252.49661973 -188.07173283 233.60912668 C-186.68238374 218.71744857 -185.29680704 203.82542217 -183.9129312 188.93323452 C-182.48835972 173.60352642 -181.06114952 158.27406606 -179.63110977 142.94486707 C-178.82964973 134.35313304 -178.02926404 125.76130212 -177.23168755 117.16920662 C-176.55449652 109.87426165 -175.87484557 102.57955112 -175.19195729 95.28513718 C-174.8436937 91.56433513 -174.49659611 87.84343383 -174.15258217 84.12223625 C-173.78029386 80.09557407 -173.40251524 76.06944636 -173.02415466 72.04335022 C-172.86131403 70.2679333 -172.86131403 70.2679333 -172.69518369 68.45664936 C-172.59340757 67.38337436 -172.49163145 66.31009936 -172.3867712 65.20430088 C-172.30013995 64.27478975 -172.2135087 63.34527862 -172.12425226 62.38760048 C-171.81640625 60.05078125 -171.81640625 60.05078125 -170.81640625 57.05078125 C-153.65640625 56.39078125 -136.49640625 55.73078125 -118.81640625 55.05078125 C-118.15640625 50.76078125 -117.49640625 46.47078125 -116.81640625 42.05078125 C-112.12610113 23.53443614 -100.35373209 7.92272856 -84.37890625 -2.38671875 C-57.94706456 -17.61272576 -25.37945605 -17.56497721 0 0 Z M-85.81640625 15.05078125 C-86.49574219 15.623125 -87.17507812 16.19546875 -87.875 16.78515625 C-97.31088079 25.3933282 -103.22438673 37.65342471 -105.81640625 50.05078125 C-105.83950363 51.71728786 -105.84303308 53.38432729 -105.81640625 55.05078125 C-78.73360543 54.44055661 -51.66494316 53.59969548 -24.59417725 52.59143066 C-19.85191125 52.41533193 -15.10954441 52.24198936 -10.3671875 52.06835938 C-1.1834977 51.7317417 8.00008404 51.39227454 17.18359375 51.05078125 C17.03736572 49.79305908 16.8911377 48.53533691 16.74047852 47.23950195 C16.61709862 46.17829887 16.61709862 46.17829887 16.4912262 45.09565735 C14.65128195 32.86528938 5.54782643 20.77347514 -3.81640625 13.05078125 C-29.53164407 -5.80705982 -61.29019324 -6.13701801 -85.81640625 15.05078125 Z " fill="#FDD00C" transform="translate(202.81640625,12.94921875)"/>
<path d="M0 0 C17.39155012 14.09134633 27.94364901 31.65651066 30.53515625 54.12890625 C31.22542342 61.31797943 31.18602481 68.52285954 31.18530273 75.73852539 C31.18747986 78.16505742 31.20566618 80.59112664 31.22460938 83.01757812 C31.27357317 96.048669 30.65641315 108.91145036 26.25 121.3125 C25.98614502 122.07248291 25.72229004 122.83246582 25.45043945 123.61547852 C23.30781893 129.56960764 20.75102305 134.87622492 17 140 C16.35417969 140.89976562 15.70835937 141.79953125 15.04296875 142.7265625 C2.48017707 159.16005216 -15.78433145 168.01697713 -36 171 C-59.78788798 172.45697548 -83.04144172 170.40418678 -102.1484375 154.6640625 C-103.06496094 153.84035156 -103.06496094 153.84035156 -104 153 C-104.79664063 152.30648437 -105.59328125 151.61296875 -106.4140625 150.8984375 C-122.83040537 135.67240348 -128.73675139 114.70196322 -130 93 C-130.9355373 64.00242907 -131.41906477 33.45727715 -110.625 10.625 C-83.06336371 -18.35926263 -32.87527722 -23.58907879 0 0 Z M-63.8359375 54.09765625 C-70.56239319 65.09021974 -71.35204867 78.20639839 -68.875 90.5625 C-66.95787795 98.12298134 -63.99088852 104.39092704 -58.0625 109.5625 C-53.05543972 111.91275279 -49.69028546 112.5537142 -44.375 110.8125 C-36.35745223 106.5067799 -32.9450479 101.20610645 -30.2421875 92.58203125 C-27.17080196 79.32316271 -28.32480609 64.68781836 -35.49609375 52.9140625 C-38.64590172 48.90521599 -42.27859167 46.51660633 -47.3046875 45.5625 C-54.60014867 45.16947852 -59.34118796 48.39947377 -63.8359375 54.09765625 Z " fill="#FFFFFF" transform="translate(2045,182)"/>
<path d="M0 0 C19.8 0 39.6 0 60 0 C60.495 9.405 60.495 9.405 61 19 C62.093125 17.824375 63.18625 16.64875 64.3125 15.4375 C74.08176099 5.73691572 85.59074222 -0.05883917 99.4375 -0.5 C113.92812907 -0.05504721 125.25916147 5.39608465 135.15234375 15.8203125 C146.63106252 29.36180315 149.39898373 47.73489485 148 65 C145.92248697 76.51054514 137.76979857 84.12265968 128.921875 91.13671875 C126.24236043 92.34032184 124.81437658 91.76124277 122 91 C119.58178711 89.77929688 119.58178711 89.77929688 117.02734375 88.21875 C116.05804932 87.63174316 115.08875488 87.04473633 114.09008789 86.43994141 C113.04973389 85.79976074 112.00937988 85.15958008 110.9375 84.5 C109.28146225 83.49356549 107.62542229 82.48713462 105.96928406 81.48086548 C104.20800566 80.40888311 102.44894205 79.33334909 100.69042969 78.25683594 C96.21916502 75.52035855 91.73777943 72.80062216 87.25617981 70.08111572 C84.12440361 68.18068018 80.9933846 66.27904556 77.86499023 64.37304688 C77.28655365 64.02096161 76.70811707 63.66887634 76.1121521 63.30612183 C74.54135446 62.34990554 72.97098017 61.39299394 71.40063477 60.43603516 C69.09718249 59.01718781 69.09718249 59.01718781 67 58 C67.33 56.35 67.66 54.7 68 53 C68.639375 53.165 69.27875 53.33 69.9375 53.5 C75.25346284 54.3679123 80.02397178 55.07392838 84.875 52.4375 C88.40721208 48.38584496 89.85970388 44.65549425 90.3125 39.3125 C90.02397409 36.2541254 89.7306437 34.49981868 88 32 C84.70423907 30.35211954 81.54841538 30.37416647 78 31 C71.07579355 34.21311635 64.44263606 40.11472788 61 47 C60.89465792 48.82422981 60.85338835 50.65229075 60.84178162 52.47952271 C60.82709839 54.22537659 60.82709839 54.22537659 60.81211853 56.00650024 C60.80636307 57.28971161 60.8006076 58.57292297 60.79467773 59.89501953 C60.78510136 61.2549062 60.77509142 62.61478988 60.76467896 63.97467041 C60.73759773 67.67276204 60.71660563 71.37086647 60.69667697 75.06900263 C60.67483723 78.9314321 60.64743871 82.79382195 60.62062073 86.65621948 C60.57066658 93.97307007 60.52573787 101.28994261 60.48259836 108.6068362 C60.43324922 116.93564986 60.37832249 125.26442378 60.32291877 133.59319901 C60.20905695 150.72876406 60.10296345 167.86436548 60 185 C40.2 185 20.4 185 0 185 C0 123.95 0 62.9 0 0 Z " fill="#FFFFFF" transform="translate(1751,168)"/>
<path d="M0 0 C3.97899727 2.06504922 6.48632107 4.07190188 8.0390625 8.2734375 C8.56699531 12.77945556 8.97948498 16.80637843 6.4765625 20.7109375 C3.22122889 26.51392351 5.80418687 33.88499774 7.49755859 39.94750977 C15.51880299 66.68607182 32.65634222 88.57991612 57.0390625 102.2734375 C79.9888143 113.77375658 109.08876003 118.03575382 134.0390625 110.2734375 C140.24719404 108.04460336 146.16593606 105.26295045 152.0390625 102.2734375 C153.1425 101.71527344 154.2459375 101.15710938 155.3828125 100.58203125 C177.29892489 88.61468041 193.02810288 67.84537654 200.5390625 44.1484375 C201.06477609 42.19684977 201.56758683 40.23883317 202.0390625 38.2734375 C202.26078125 37.42136719 202.4825 36.56929688 202.7109375 35.69140625 C203.73510434 31.51861837 204.52891983 27.58418201 204.0390625 23.2734375 C203.5440625 22.5103125 203.0490625 21.7471875 202.5390625 20.9609375 C200.37126703 17.07697061 200.34030898 13.62720943 201.0390625 9.2734375 C203.10230773 5.29432169 205.24268919 2.63097181 209.0390625 0.2734375 C214.26171797 -0.60226455 218.765041 -0.34082286 223.5390625 1.9609375 C227.4929509 5.61828427 228.87406905 7.78849649 229.4765625 13.2109375 C229.57378704 16.36749435 228.9715484 17.36895845 227.08984375 20.03125 C224.73035902 23.761483 224.25948559 26.93497369 223.7890625 31.2109375 C219.41065117 62.23603589 202.38902021 90.38244546 177.73657227 109.5456543 C170.24236689 115.17237474 162.37730789 119.57241881 153.85693359 123.44628906 C152.22692246 124.18795945 150.61048829 124.95929983 148.99609375 125.734375 C137.68229921 130.88410217 124.46911246 133.80876274 112.0390625 134.2734375 C110.98460937 134.325 109.93015625 134.3765625 108.84375 134.4296875 C75.17199807 135.30238949 45.00740145 123.3663082 20.40234375 100.56640625 C0.00728617 80.77814377 -11.81095263 56.03727627 -15.42578125 27.9609375 C-15.9486969 25.33490853 -16.62102186 23.79096731 -18.0859375 21.5859375 C-20.63798909 17.07731303 -20.78107949 13.34492779 -19.9609375 8.2734375 C-18.1652656 4.47490078 -16.66477435 2.75332626 -13.2109375 0.3984375 C-8.60696782 -1.19524431 -4.58098521 -1.69733715 0 0 Z " fill="#FEFEFD" transform="translate(89.9609375,248.7265625)"/>
<path d="M0 0 C2.79443543 2.21151976 5.44050129 4.52117317 8 7 C5.73157237 10.11908799 3.29797896 12.69411726 0.3828125 15.19140625 C-4.02358481 19.01566573 -8.37671257 22.87524127 -12.625 26.875 C-13.36878906 27.53113281 -14.11257812 28.18726563 -14.87890625 28.86328125 C-16.94125169 30.83345482 -18.58398987 32.52162376 -20 35 C-20.00580371 38.25861413 -19.04018337 40.94226996 -18 44 C-17.78818585 51.37314975 -19.41997676 57.15535899 -24.4375 62.6875 C-29.75751795 67.4884918 -33.96522495 69.69548868 -41.3125 70.25 C-45 70 -45 70 -47.11254883 69.1184082 C-50.02502079 68.02505598 -51.88575724 67.66499861 -55 68 C-59.78024522 71.35353307 -63.5041656 75.59546985 -67.375 79.9375 C-68.96795357 81.68350205 -70.56914727 83.42024467 -72.18569946 85.14442444 C-73.1870913 86.2165142 -74.17391649 87.30243545 -75.14413452 88.40281677 C-76.50146484 89.87866211 -76.50146484 89.87866211 -79 92 C-81.96101045 91.92092257 -82.69986544 91.31423484 -84.74609375 89.171875 C-95.27257428 74.09931627 -98.43397293 58.01495296 -96 40 C-93.0786708 26.34694852 -86.78809112 15.82280066 -77 6 C-76.45859375 5.43539062 -75.9171875 4.87078125 -75.359375 4.2890625 C-55.57592364 -14.59514107 -21.92163238 -14.83549962 0 0 Z " fill="#FDD00C" transform="translate(169,141)"/>
<path d="M0 0 C2.48698983 1.9326379 4.84752994 3.93894695 7.18359375 6.05078125 C8.24513672 6.99050781 8.24513672 6.99050781 9.328125 7.94921875 C20.54842825 18.46154876 26.56335106 32.36489111 30.18359375 47.05078125 C31.38490568 51.65893582 31.38490568 51.65893582 33.18359375 56.05078125 C33.76370425 62.31597462 33.76370425 62.31597462 31.30859375 65.42578125 C27.80214433 68.10718375 25.60924937 68.57144662 21.18359375 68.05078125 C18.30859375 66.05078125 18.30859375 66.05078125 16.18359375 63.05078125 C15.59998511 59.70166347 15.70892204 56.46578364 16.80078125 53.2109375 C18.27423928 44.89642433 12.42543447 34.68255759 8.16015625 27.8671875 C-1.85073756 13.60265304 -15.48356105 4.3901418 -32.52734375 0.55859375 C-48.93719148 -1.97499319 -65.3812702 1.16904285 -79.1796875 10.6796875 C-81.46560124 12.39700421 -83.64848227 14.18734097 -85.81640625 16.05078125 C-86.72519531 16.79908203 -86.72519531 16.79908203 -87.65234375 17.5625 C-98.00268428 26.85907283 -103.53709584 41.30409838 -105.69140625 54.73828125 C-105.73265625 55.83140625 -105.77390625 56.92453125 -105.81640625 58.05078125 C-105.15640625 58.71078125 -104.49640625 59.37078125 -103.81640625 60.05078125 C-103.36911866 64.0018216 -103.49698378 66.39804837 -105.25390625 69.98828125 C-108.51717776 72.61481685 -110.58709581 72.72439016 -114.6875 72.4609375 C-116.81640625 72.05078125 -116.81640625 72.05078125 -119.37890625 70.55078125 C-122.47314835 65.16949065 -120.82579599 59.86329893 -119.3515625 54.1875 C-118.84044201 52.14674884 -118.40394521 50.10579415 -117.9921875 48.04296875 C-115.17801641 34.35578904 -110.29108159 22.60168746 -100.81640625 12.05078125 C-100.08808594 11.22964844 -99.35976562 10.40851562 -98.609375 9.5625 C-73.16122167 -17.53012205 -30.27122192 -20.95054055 0 0 Z " fill="#FEFEFE" transform="translate(202.81640625,12.94921875)"/>
<path d="M0 0 C6.55718501 4.35308921 10.72024965 9.70805936 12.578125 17.390625 C14.20045533 27.42503853 13.1533148 36.743741 7.45703125 45.32421875 C2.47588485 51.4908096 -3.20098403 54.73908125 -11 56 C-21.27730886 56.89816023 -30.22198763 55.34238968 -38.4375 48.8125 C-44.67627782 42.88054732 -47.09929427 34.86473695 -47.3125 26.4375 C-47.1995436 17.16377977 -44.43211544 9.42106107 -38 2.65625 C-27.33649123 -6.1744682 -11.88571235 -6.18933408 0 0 Z " fill="#FDD00C" transform="translate(981,88)"/>
<path d="M0 0 C4.4649599 3.85881812 7.79867737 7.95992421 8.85546875 13.859375 C9.29807735 20.41476721 8.64177432 26.40727516 5 32 C-0.79521938 38.38960086 -5.6132275 41.50122477 -14.375 42.3125 C-21.72711386 41.67869708 -26.38075708 40.13224582 -31.4375 34.5625 C-36.87650123 28.06866217 -37.62483817 23.13891726 -37.37109375 14.70703125 C-36.75229618 8.52556922 -34.55597909 5.29785051 -30.02734375 1.2265625 C-21.21393555 -5.79121674 -9.53198055 -6.3905557 0 0 Z " fill="#FEFEFD" transform="translate(142,169)"/>
<path d="M0 0 C4.6844511 3.57607651 7.93978033 7.70779999 9.75 13.3359375 C10.58811242 20.9471677 10.58928281 28.10589306 5.75 34.3359375 C1.07260871 39.39839248 -3.43616024 41.83827209 -10.36328125 42.7421875 C-17.14597807 42.94094785 -21.900933 42.51798906 -27.3046875 38.2109375 C-33.20658039 32.52236604 -35.62286988 28.20822618 -36 19.8359375 C-35.69861449 12.84099008 -34.18358134 8.32349676 -29.25 3.3359375 C-21.29820147 -3.74372829 -9.43871023 -5.54524226 0 0 Z " fill="#FEFEFC" transform="translate(274.25,167.6640625)"/>
</svg>
