<?xml version="1.0" encoding="UTF-8"?>
<svg version="1.1" xmlns="http://www.w3.org/2000/svg" width="2242" height="464">
<path d="M0 0 C19.8 0 39.6 0 60 0 C60.33 42.57 60.66 85.14 61 129 C64.465 124.05 64.465 124.05 68 119 C76.78260163 107.48503342 88.02634118 101.94142799 102.1875 99.75 C114.92535336 98.19930481 126.95654797 98.79694976 138 106 C147.41029003 113.38061963 152.64970304 123.62735051 154.33203125 135.3046875 C156.0726845 150.57601864 154.83136034 165.83239693 153.28936768 181.05249023 C151.88790075 195.02518348 150.60914762 208.94785627 150.625 223 C150.62306641 224.60669556 150.62306641 224.60669556 150.62109375 226.24584961 C150.69129244 231.05166771 151.02328593 234.55954106 153 239 C156.26276567 239.86013727 156.26276567 239.86013727 160 240 C169.79054925 233.79172924 174.02266213 218.41416183 176.53264999 207.59105301 C178.15591413 198.59145233 177.72518491 189.26113769 177.70703125 180.15234375 C177.72017451 177.80008173 177.73548669 175.44783094 177.75285339 173.09559631 C177.79240833 166.96204575 177.80287472 160.82879241 177.80688477 154.69512939 C177.81792826 147.30499 177.86580569 139.91500491 177.90737152 132.52498627 C177.96617224 121.34985906 177.97874269 110.1755452 178 99 C197.8 99 217.6 99 238 99 C238.02187378 105.51971558 238.02187378 105.51971558 238.04418945 112.17114258 C238.09444289 126.50429056 238.16086979 140.83732947 238.23571491 155.17036915 C238.28071251 163.8636485 238.32011794 172.55688652 238.34643555 181.25024414 C238.36938362 188.82590365 238.40274566 196.40143279 238.44870156 203.97698897 C238.47267705 207.98954476 238.49137737 212.0019711 238.49761391 216.01459694 C238.50364534 219.78950562 238.52357406 223.5640829 238.55427551 227.33886909 C238.56308706 228.72599744 238.56677189 230.11316904 238.56500816 231.50032425 C238.56336282 233.39106728 238.58177439 235.28179636 238.60127258 237.17243958 C238.60818603 238.76114978 238.60818603 238.76114978 238.61523914 240.38195515 C238.79763876 243.02144258 238.79763876 243.02144258 240.34523296 244.86422253 C242.06055415 246.2711577 242.06055415 246.2711577 244.875 246 C250.78607159 244.10845709 253.08442128 240.21382827 256 235 C263.94827659 217.84298507 264.74375146 199.93655698 264.70703125 181.32421875 C264.72018342 178.93283346 264.73549824 176.54145919 264.75285339 174.15010071 C264.79230442 167.9311219 264.80286785 161.71243629 264.80688477 155.49334717 C264.81795344 147.99131184 264.86583965 140.48942734 264.90737152 132.98751068 C264.96606225 121.65821101 264.978729 110.32970934 265 99 C284.8 99 304.6 99 325 99 C325.33 108.57 325.66 118.14 326 128 C329.96 122.555 329.96 122.555 334 117 C344.43881612 105.20800401 357.63341063 100.08748962 373.1875 99.125 C385.8367529 98.58 396.14929352 101.1174057 406.25 109.125 C414.93969734 117.23538418 418.90614927 129.11846733 419.38432312 140.77323914 C419.47207201 144.51638545 419.46471586 148.25614278 419.4375 152 C419.43592896 153.21089798 419.43592896 153.21089798 419.43432617 154.44625854 C419.39281966 170.21738627 418.10120659 185.82088686 416.42358398 201.49414062 C413.47196695 220.81794487 413.47196695 220.81794487 418.25 239.0625 C420.08304502 240.2068809 420.08304502 240.2068809 422.8125 240.125 C428.0317838 238.28289984 430.49880252 235.01793022 432.89648438 230.19775391 C433.86978895 228.08535651 434.78991334 225.95814822 435.6875 223.8125 C435.97294678 223.13058594 436.25839355 222.44867188 436.55249023 221.74609375 C440.76682175 211.12948101 442.3972074 200.80099697 442.9375 189.4375 C444.74235095 160.00469481 452.60028025 130.57432823 475 110 C485.97839752 101.49325827 497.68042744 97.84465655 511.59375 99.40234375 C523.27933287 101.54893452 532.04020716 106.23256346 539 116 C539.66 117.32 540.32 118.64 541 120 C541.33 113.07 541.66 106.14 542 99 C561.8 99 581.6 99 602 99 C602.01981934 103.38200684 602.03963867 107.76401367 602.06005859 112.27880859 C602.12683273 126.72370273 602.20437273 141.16852405 602.28752708 155.61333275 C602.3377005 164.37501648 602.38414276 173.13669063 602.421875 181.8984375 C602.45476254 189.53302456 602.49457562 197.16753828 602.54279006 204.80204451 C602.56808741 208.84640362 602.58985899 212.89071389 602.60334396 216.93513107 C602.61613514 220.73869886 602.63815724 224.5420994 602.66738319 228.34557533 C602.67648212 229.74441665 602.68215457 231.14328492 602.68421364 232.54215431 C602.68751973 234.44638403 602.70414327 236.35057698 602.7215271 238.25473022 C602.72705786 239.3221665 602.73258862 240.38960278 602.73828697 241.4893856 C602.75139362 244.17138196 602.75139362 244.17138196 605 246 C608.43382335 246.06603506 610.92317966 245.8808034 613.65234375 243.6484375 C619.43097778 237.20812782 622.42591328 229.57527142 624.625 221.3125 C624.83737305 220.53592041 625.04974609 219.75934082 625.26855469 218.95922852 C626.82107822 213.10958462 627.8904637 207.31738575 628.640625 201.30859375 C629 199 629 199 630 198 C631.99958364 197.95919217 634.00045254 197.95745644 636 198 C637.78873358 221.99884217 628.6888356 251.44821603 613.03515625 269.81640625 C604.95417493 278.48678736 596.32420003 284.24505767 584.25 285.22265625 C571.8472663 285.59409229 561.49901291 282.84473662 552.25390625 274.40625 C547.99898938 269.90728553 545.97983623 264.79673205 544 259 C543.38125 257.205625 543.38125 257.205625 542.75 255.375 C542.5025 254.59125 542.255 253.8075 542 253 C541.67128906 254.03447266 541.67128906 254.03447266 541.3359375 255.08984375 C537.61892459 266.1048942 532.13547078 275.52413063 521.6640625 281.28515625 C510.00750234 286.68744908 498.07694309 285.91287072 486 282 C467.37603386 273.96613225 457.36157291 258.13312692 450 240 C448.50262299 236.05127996 447.18699457 232.05296171 446 228 C445.731875 228.969375 445.46375 229.93875 445.1875 230.9375 C439.83850707 249.52905442 431.7746071 267.10014676 415 278 C402.21032026 284.72870701 387.35373836 287.26098956 373.1875 283.8125 C364.59431983 281.11855673 358.06284251 276.51419449 353 269 C339.45629636 242.05257932 349.95841972 209.83341591 356.26953125 182.10888672 C356.44168655 181.35220703 356.61384186 180.59552734 356.79121399 179.81591797 C357.11537613 178.39541292 357.44125462 176.97529796 357.76921082 175.55566406 C360.00290252 165.79409611 362.71714483 153.6098528 358.1875 144.1875 C356.19607718 140.86193327 356.19607718 140.86193327 353 139 C348.54044658 138.5613554 346.02509876 138.53975158 341.9375 140.375 C332.41958015 148.88037519 326.33637901 161.15073289 325.4385376 173.86032104 C325.13712927 180.92520098 325.16764672 187.98879691 325.1953125 195.05859375 C325.18404596 197.66033654 325.17015822 200.26206917 325.15377808 202.86378479 C325.12156739 208.97268629 325.11546396 215.08108393 325.12250316 221.19004923 C325.12967829 228.84100254 325.09604081 236.49171358 325.0625 244.14257812 C325.00297097 257.76187715 325.00424487 271.38032285 325 285 C305.2 285 285.4 285 265 285 C264.67 271.47 264.34 257.94 264 244 C261.36 249.28 258.72 254.56 256 260 C248.35718574 271.933517 240.08565126 281.07630832 225.91796875 284.49609375 C214.72403656 286.42918244 203.27478116 285.10113126 193.625 278.875 C182.18402899 270.09258796 179.04633149 256.6781105 177 243 C176.49210938 244.0621875 175.98421875 245.124375 175.4609375 246.21875 C168.24640654 261.11281098 168.24640654 261.11281098 163 267 C162.44183594 267.66128906 161.88367188 268.32257813 161.30859375 269.00390625 C151.52409125 279.76890169 138.63178968 284.06121062 124.4609375 285.3125 C113.76050485 285.69211624 103.07553212 283.76208192 94.70703125 276.6796875 C85.02085773 267.14867008 82.02726233 255.18916342 81.91064453 241.89306641 C81.92791182 236.43987656 82.41162594 231.16766765 83.1796875 225.7734375 C83.3109201 224.83358002 83.44215271 223.89372253 83.57736206 222.92538452 C85.32514841 211.02908985 88.09342664 199.35488721 90.81689453 187.65185547 C97.13051233 165.05362313 97.13051233 165.05362313 93 143 C90.20120247 139.81248059 88.75787164 139.11023587 84.5625 138.5 C78.7860899 139.31072422 75.55896525 142.06284851 72 146.5 C64.13641727 157.57109674 60.7086982 167.95998656 60.68115234 181.35131836 C60.66608391 183.03534256 60.66608391 183.03534256 60.65071106 184.75338745 C60.61992289 188.44886788 60.60285579 192.14427599 60.5859375 195.83984375 C60.56722238 198.40817383 60.5476487 200.97649779 60.5272522 203.54481506 C60.48119854 209.60422771 60.4437773 215.66363683 60.41057932 221.72313172 C60.36851868 229.30311527 60.31318117 236.8829946 60.2578125 244.46289062 C60.15916779 257.97520306 60.0805196 271.48754042 60 285 C40.2 285 20.4 285 0 285 C0 190.95 0 96.9 0 0 Z M513.6796875 157.96484375 C509.73245995 165.3476212 508.62926295 172.93134275 508.6875 181.1875 C508.69241455 182.01685059 508.6973291 182.84620117 508.70239258 183.70068359 C508.93175808 195.85117428 511.44819064 206.63573073 519.5625 215.9375 C523.07977728 218.9136577 524.64580978 219.94889848 529.3125 220.125 C534.47923999 218.54870644 537.03235745 215.41622796 540 211 C542.41073349 206.3510029 542.32243025 201.97416078 542.3359375 196.859375 C542.3425943 195.97775696 542.3492511 195.09613892 542.35610962 194.18780518 C542.36621404 192.32525714 542.37092732 190.46267307 542.37060547 188.60009766 C542.37496432 185.7731437 542.41126686 182.94777032 542.44921875 180.12109375 C542.45509052 178.30469279 542.4590575 176.48828448 542.4609375 174.671875 C542.47530853 173.83718689 542.48967957 173.00249878 542.50448608 172.14251709 C542.43632082 163.2355147 539.07795918 156.39785177 533 150 C524.66063173 145.83031587 518.25073794 151.16236336 513.6796875 157.96484375 Z " fill="#FFC313" transform="translate(756,69)"/>
<path d="M0 0 C0.65871094 0.515625 1.31742187 1.03125 1.99609375 1.5625 C21.87695248 17.56319113 33.2622719 43.52694437 36.2878418 68.36279297 C37.23357518 77.79322592 37.18610008 87.24765346 37.18530273 96.71533203 C37.18747971 99.59813425 37.20566668 102.48054682 37.22460938 105.36328125 C37.27174865 120.34979503 37.03220097 135.65621442 32.4375 150.0625 C32.0511438 151.2992749 32.0511438 151.2992749 31.65698242 152.56103516 C22.90467195 179.17807038 3.66000471 200.86850918 -20.9609375 214.078125 C-46.78031833 226.968126 -76.97473906 228.77759806 -104.34521484 220.09960938 C-114.42355862 216.71047224 -125.71193714 212.06321609 -133.48046875 204.625 C-136.00652313 202.618039 -136.00652313 202.618039 -139.56640625 203.4140625 C-140.90569539 203.79293163 -142.23791577 204.19754963 -143.5625 204.625 C-173.31270399 213.55305719 -206.78358944 210.44881198 -234.26489258 195.82641602 C-264.13294646 179.21326812 -285.01608608 153.14525851 -294.41552734 120.33496094 C-295.59360674 115.6285485 -296.32205594 110.82825925 -296.88793945 106.01220703 C-297.54002176 101.00195483 -299.15690959 98.10160126 -302 94 C-302.85774237 89.50867185 -302.55654615 85.34742752 -300.8125 81.125 C-300.214375 80.42375 -299.61625 79.7225 -299 79 C-298.360625 78.236875 -297.72125 77.47375 -297.0625 76.6875 C-292.20475493 74.01078333 -287.41278786 74.14303629 -282 75 C-278.01688641 76.92682168 -275.65512336 79.94012342 -274 84 C-273.44127987 88.46250491 -273.13943406 92.62309449 -275.5625 96.5 C-278.78011726 102.09585611 -276.0823311 109.07370979 -274.54199219 114.96118164 C-270.41881624 129.72035306 -263.65380825 142.13425122 -254 154 C-252.824375 155.5778125 -252.824375 155.5778125 -251.625 157.1875 C-236.53095434 173.35969178 -215.7179968 184.26067548 -194 188 C-192.87464844 188.19529297 -192.87464844 188.19529297 -191.7265625 188.39453125 C-178.4908241 190.23966207 -165.95067448 188.66305179 -153 186 C-153.40089844 185.54753906 -153.80179688 185.09507812 -154.21484375 184.62890625 C-171.07838761 164.40030148 -177.13971247 139.2150174 -177.16796875 113.39453125 C-177.17296135 111.77112068 -177.17296135 111.77112068 -177.17805481 110.11491394 C-177.18308949 107.83662334 -177.18546421 105.55832545 -177.18530273 103.2800293 C-177.18748286 99.8395539 -177.20565865 96.39940297 -177.22460938 92.95898438 C-177.2888384 68.49935225 -173.99578264 47.51463061 -162 26 C-161.20142578 24.53820312 -161.20142578 24.53820312 -160.38671875 23.046875 C-146.63828582 -0.28793424 -122.71888143 -15.92879942 -97 -23 C-63.0045086 -31.56989407 -26.36505574 -22.96774366 0 0 Z " fill="#FEC213" transform="translate(372,174)"/>
<path d="M0 0 C7.71315516 6.83144691 14.01254737 13.90975857 19 23 C19.53238281 23.94488281 20.06476563 24.88976562 20.61328125 25.86328125 C26.54350097 36.97324623 30.12037496 49.08931591 30.1328125 61.71875 C30.13410156 62.98074219 30.13539063 64.24273437 30.13671875 65.54296875 C30.13285156 66.84878906 30.12898437 68.15460938 30.125 69.5 C30.12886719 70.80582031 30.13273438 72.11164063 30.13671875 73.45703125 C30.13478516 75.35001953 30.13478516 75.35001953 30.1328125 77.28125 C30.13168457 78.42658203 30.13055664 79.57191406 30.12939453 80.75195312 C30.00333315 83.91633157 29.59227225 86.89218812 29 90 C13.8220623 92.384597 -1.39416246 94.39011437 -16.64208984 96.27197266 C-20.55008129 96.75620549 -24.45663593 97.25113196 -28.36328125 97.74609375 C-30.85668979 98.05534164 -33.35017658 98.36395941 -35.84375 98.671875 C-37.00716919 98.82074158 -38.17058838 98.96960815 -39.3692627 99.12298584 C-40.98375305 99.31879242 -40.98375305 99.31879242 -42.63085938 99.51855469 C-43.57425171 99.63608093 -44.51764404 99.75360718 -45.48962402 99.87469482 C-47.95276339 99.99764219 -49.69372358 99.85358606 -52 99 C-53.203125 97.1796875 -53.203125 97.1796875 -54.25 94.875 C-57.59811802 88.44497517 -62.32588225 83.86942406 -69.0625 81.0625 C-75.47882601 79.06520008 -80.7420051 79.6306737 -86.73046875 82.55859375 C-97.10714337 89.14894303 -101.00857526 100.33958404 -103.8125 111.75 C-107.56259862 131.25051284 -104.2966715 152.05197256 -94.11328125 169.171875 C-85.20472033 182.1234174 -72.91364447 187.58475671 -57.69140625 190.4921875 C-34.18110314 193.72640909 -14.03334975 185.99497445 4.890625 172.4375 C9.26637654 169.00726261 13.31823343 165.31245087 17.34375 161.48046875 C19.80710536 159.18012955 22.34001752 157.06726899 25 155 C28.33946703 162.30323315 31.37056021 169.71624284 34.3125 177.1875 C34.77978516 178.33669922 35.24707031 179.48589844 35.72851562 180.66992188 C36.16486328 181.78302734 36.60121094 182.89613281 37.05078125 184.04296875 C37.44950439 185.04352295 37.84822754 186.04407715 38.2590332 187.07495117 C39.48578446 191.91768816 38.57787343 195.0252034 36.06640625 199.26171875 C35.24542233 200.41349961 34.41001453 201.55509863 33.5625 202.6875 C33.11511475 203.2961792 32.66772949 203.9048584 32.20678711 204.53198242 C8.90895741 235.71949915 -27.12455333 253.64290391 -65.15161133 259.32128906 C-96.46638498 263.24839182 -130.54244608 257.69116167 -156 238 C-185.37772635 214.96897114 -203.26882085 181.57437744 -208.33984375 144.63671875 C-211.32519729 118.22658571 -209.357555 90.9937686 -200 66 C-199.62319092 64.9788208 -199.62319092 64.9788208 -199.23876953 63.93701172 C-192.95598832 47.16625649 -184.52283977 32.68865334 -173 19 C-172.31035156 18.15695313 -171.62070312 17.31390625 -170.91015625 16.4453125 C-165.88883789 10.51009367 -160.14638629 5.73449288 -154 1 C-152.70255859 -0.0209375 -152.70255859 -0.0209375 -151.37890625 -1.0625 C-108.45396904 -33.71861865 -41.81925528 -35.19604862 0 0 Z " fill="#FFC313" transform="translate(701,94)"/>
<path d="M0 0 C19.8 0 39.6 0 60 0 C60.03738281 9.73628906 60.07476563 19.47257813 60.11328125 29.50390625 C60.14355511 35.66993614 60.17457736 41.8359472 60.20898438 48.00195312 C60.26346398 57.79010311 60.3148772 67.57820077 60.34643555 77.36645508 C60.36943392 84.49535172 60.40285243 91.62411099 60.44870156 98.75289863 C60.47260909 102.52636775 60.491354 106.29970101 60.49761391 110.07324409 C60.50367603 113.6282048 60.52371608 117.18281802 60.55427551 120.73764992 C60.56720207 122.65783262 60.56548888 124.57809659 60.5632782 126.49832153 C60.64041867 133.5979401 60.78357722 139.43896049 65.75 144.9375 C69.04609048 146.49398717 71.40003157 146.44210139 75 146 C80.40835462 143.10715916 82.24622135 138.60579722 84 133 C87.33119572 117.81019556 87.47235072 102.69565866 87.51171875 87.20703125 C87.52860318 84.67826996 87.54675833 82.14951688 87.56611633 79.62077332 C87.60842905 73.69987505 87.63815495 67.77902377 87.66143972 61.85802239 C87.69623569 53.24592734 87.75727325 44.63400817 87.81494904 36.02204132 C87.89298987 24.01471147 87.9439532 12.00754321 88 0 C107.8 0 127.6 0 148 0 C148.04526005 25.09670002 148.08205486 50.19336667 148.10362434 75.29009724 C148.1139085 86.94463379 148.12791375 98.59914307 148.15087891 110.25366211 C148.17090078 120.41940572 148.18373719 130.58512956 148.18817699 140.75089234 C148.19076956 146.12659447 148.19680267 151.50224007 148.21146011 156.87792397 C148.2251835 161.95286091 148.2291933 167.02771883 148.22621536 172.10267258 C148.226759 173.95074966 148.23064755 175.79882979 148.23841095 177.64689064 C148.36819657 210.17824587 143.90415224 243.92221179 120.48242188 268.53369141 C103.03560134 285.79087259 79.95346416 291.16485197 56.21542358 291.17285156 C45.88528956 291.09925232 35.65144828 290.21677399 25.36901855 289.28909302 C9.51085924 287.87588189 -6.3224142 286.60139045 -22.25 286.5625 C-23.45253418 286.55283203 -24.65506836 286.54316406 -25.89404297 286.53320312 C-36.92760016 286.63988333 -48.02478217 288.35138332 -58.25 292.625 C-59.28640625 293.05039062 -60.3228125 293.47578125 -61.390625 293.9140625 C-62.25171875 294.27242188 -63.1128125 294.63078125 -64 295 C-64.99 295.33 -65.98 295.66 -67 296 C-67 266.3 -67 236.6 -67 206 C-34.86092843 200.64348807 -8.47272194 208.04050338 21.03564453 220.53540039 C36.06255536 226.77165502 52.70641805 230.44745282 68.3828125 224.30859375 C77.11351372 219.94324314 81.76278014 213.11370176 85 204 C87.62087591 194.41244055 87.23096469 184.65621987 87.125 174.8125 C87.1149459 173.1764378 87.10582436 171.54036958 87.09765625 169.90429688 C87.07584492 165.93604684 87.04145053 161.96809149 87 158 C86.59950439 158.67836914 86.19900879 159.35673828 85.78637695 160.05566406 C84.98913208 161.39709473 84.98913208 161.39709473 84.17578125 162.765625 C83.65153564 163.65024414 83.12729004 164.53486328 82.5871582 165.44628906 C75.73708405 176.46794352 66.3747644 181.66631876 54 185 C41.92133328 187.63534547 29.31056436 186.64785362 18.4296875 180.5625 C7.62045819 172.9410773 3.35560095 161.55054053 1 149 C-0.09473374 141.04162394 -0.13634308 133.12578125 -0.11352539 125.10498047 C-0.11324272 123.73406476 -0.11340281 122.3631489 -0.1139679 120.99223328 C-0.11425276 117.30078089 -0.10840651 113.60936154 -0.10139394 109.91791677 C-0.09510844 106.04888677 -0.09455251 102.17985586 -0.09336853 98.31082153 C-0.09027046 90.99775008 -0.08207775 83.68469371 -0.07201904 76.37162888 C-0.0608104 68.04023957 -0.05533552 59.7088495 -0.05032361 51.37745452 C-0.03989375 34.25162614 -0.02156737 17.12581853 0 0 Z " fill="#000000" transform="translate(2094,168)"/>
<path d="M0 0 C19.8 0 39.6 0 60 0 C60.33 30.36 60.66 60.72 61 92 C65.29 86.06 69.58 80.12 74 74 C77.76171875 68.796875 77.76171875 68.796875 79.25585938 66.73046875 C83.5199713 60.83168363 87.77508278 54.92693071 92 49 C95.75208392 43.7363841 99.52667818 38.48940223 103.3125 33.25 C103.85382568 32.50073242 104.39515137 31.75146484 104.95288086 30.97949219 C107.82523789 27.00518301 110.70047016 23.0329748 113.578125 19.0625 C114.16166748 18.25651367 114.74520996 17.45052734 115.34643555 16.62011719 C116.45892521 15.08361845 117.57231397 13.54777015 118.68676758 12.01269531 C119.19361084 11.31241211 119.7004541 10.61212891 120.22265625 9.890625 C120.66359619 9.28250977 121.10453613 8.67439453 121.55883789 8.04785156 C123.13699908 5.8866938 123.13699908 5.8866938 124.68876648 2.9145813 C127 0 127 0 129.94866943 -0.7215271 C131.094505 -0.70820343 132.24034058 -0.69487976 133.42089844 -0.68115234 C135.37246857 -0.68047256 135.37246857 -0.68047256 137.36346436 -0.67977905 C138.77878196 -0.64914112 140.19408545 -0.61784517 141.609375 -0.5859375 C143.06095628 -0.57474225 144.51256028 -0.56620361 145.96417236 -0.56021118 C149.77881831 -0.53733752 153.59208629 -0.47843057 157.40618896 -0.4119873 C161.30055093 -0.35053101 165.1951363 -0.32318926 169.08984375 -0.29296875 C176.7271897 -0.22868276 184.36340154 -0.12632499 192 0 C190.40801222 4.19448794 188.33764093 7.59151227 185.6875 11.1875 C185.03261597 12.09000488 185.03261597 12.09000488 184.36450195 13.01074219 C183.41435354 14.31970999 182.46203712 15.6271062 181.5078125 16.93310547 C179.43118167 19.77973057 177.37208184 22.63886896 175.31176758 25.49731445 C173.66152933 27.78601854 172.00887301 30.07295724 170.35546875 32.359375 C167.06845043 36.90490628 163.78397595 41.45227044 160.5 46 C159.41667856 47.50000859 158.33334521 49.00000858 157.25 50.5 C156.71375 51.2425 156.1775 51.985 155.625 52.75 C137.75 77.5 137.75 77.5 136.12426758 79.75097656 C135.04332809 81.24768701 133.96243599 82.74443168 132.8815918 84.24121094 C130.1370246 88.04182637 127.39158034 91.84180298 124.64453125 95.640625 C119.23460715 103.12357707 113.83718814 110.61469916 108.47827148 118.13427734 C104.68764692 123.44885402 100.85102175 128.72904844 97 134 C98.49780561 137.57540694 100.54687342 139.63238123 103.375 142.25 C123.61105787 162.16577494 136.37596751 189.34828636 149.8046875 213.96875 C168.89082584 249.75371738 168.89082584 249.75371738 198.51953125 276.4921875 C200.79792588 277.87716439 202.89782614 279.3633425 205 281 C200.91387874 285.74157416 196.73994958 290.39567409 192.5 295 C189.46110588 298.30027687 186.43843927 301.60949314 183.5 305 C180.13677362 308.87817013 176.66664329 312.65527811 173.19189453 316.43310547 C170.23564718 319.64844194 167.29583423 322.87735914 164.375 326.125 C163.65699219 326.92164063 162.93898438 327.71828125 162.19921875 328.5390625 C160.64890856 330.27386786 159.11095005 332.01975034 157.58203125 333.7734375 C156.39673828 335.12308594 156.39673828 335.12308594 155.1875 336.5 C154.12595703 337.72203125 154.12595703 337.72203125 153.04296875 338.96875 C151.09349359 340.9070427 149.52022688 341.95792866 147 343 C127.70348984 329.98194995 117.4118245 311.06851594 109.9296875 289.484375 C109.48801994 288.21638313 109.48801994 288.21638313 109.03742981 286.92277527 C106.28658102 278.95543645 103.67555041 270.94285049 101.07421875 262.92578125 C100.85698339 262.25689314 100.63974804 261.58800503 100.41592979 260.89884758 C98.38500743 254.64496327 96.35508904 248.39076784 94.34204102 242.13110352 C85.32977175 214.12634416 75.32861769 186.79151184 61 161 C60.67 201.92 60.34 242.84 60 285 C40.2 285 20.4 285 0 285 C0 190.95 0 96.9 0 0 Z " fill="#000000" transform="translate(1536,69)"/>
<path d="M0 0 C14.64691763 12.89016589 22.51878809 28.07053763 27.125 46.75 C27.8684668 46.71970703 28.61193359 46.68941406 29.37792969 46.65820312 C44.63482599 46.04698694 59.85547615 45.59167544 75.125 45.75 C76.95472316 50.78606128 78.05084095 55.82287085 79.0703125 61.06640625 C79.24505096 61.9593187 79.41978943 62.85223114 79.599823 63.77220154 C79.96680015 65.65864172 80.33142789 67.54554029 80.69384766 69.43286133 C81.24395775 72.28121452 81.8111628 75.1258201 82.37890625 77.97070312 C87.56079354 104.50567507 87.56079354 104.50567507 82.3828125 113.10546875 C78.36825868 118.35431085 73.4062496 121.15203043 67.125 122.75 C59.65533799 123.71828952 53.29207278 121.13769356 47.37890625 116.6796875 C45.39667545 115.00676001 43.43595074 113.32071638 41.484375 111.61328125 C37.09685048 107.80145313 32.40675629 104.39680152 27.73193359 100.94921875 C27.09078613 100.47484375 26.44963867 100.00046875 25.7890625 99.51171875 C24.8594873 98.82795166 24.8594873 98.82795166 23.91113281 98.13037109 C22.15591024 96.77388826 20.53879215 95.32377696 18.8984375 93.83203125 C16.43499957 91.49142396 16.43499957 91.49142396 14.14819336 91.95532227 C11.93903901 92.82304248 10.69695587 93.75410797 8.98046875 95.3828125 C8.09935425 96.21123657 8.09935425 96.21123657 7.20043945 97.05639648 C6.57741943 97.65653564 5.95439941 98.2566748 5.3125 98.875 C4.66176514 99.48867432 4.01103027 100.10234863 3.34057617 100.73461914 C-0.20336387 104.10006598 -3.66039311 107.53452184 -7.0546875 111.05078125 C-7.72653076 111.74220215 -8.39837402 112.43362305 -9.09057617 113.14599609 C-10.38912796 114.49036777 -11.67615121 115.84598671 -12.95043945 117.21337891 C-13.83155396 118.12676025 -13.83155396 118.12676025 -14.73046875 119.05859375 C-15.49846802 119.87541626 -15.49846802 119.87541626 -16.28198242 120.70874023 C-17.875 121.75 -17.875 121.75 -19.91162109 121.53417969 C-22.80203588 120.37973896 -24.89932077 118.51727341 -27.3125 116.5625 C-43.47728393 104.04100968 -62.79930069 99.91450749 -82.875 101.75 C-102.04616077 104.21266472 -119.55856406 114.51788722 -131.96875 129.19140625 C-145.24122789 147.00590013 -150.31463985 167.88626567 -147.60693359 189.93261719 C-145.4205169 202.38313146 -139.17720159 215.65674974 -130.90625 225.26953125 C-129.875 226.75 -129.875 226.75 -129.875 229.75 C-131.26904297 231.21826172 -131.26904297 231.21826172 -133.2421875 232.8046875 C-138.47714764 237.1913582 -143.20969548 242.01287682 -148 246.875 C-158.37472356 257.40387993 -158.37472356 257.40387993 -163.875 261.75 C-162.21734922 265.40917593 -159.97083273 268.57326031 -157.625 271.8125 C-157.19026367 272.41682861 -156.75552734 273.02115723 -156.30761719 273.64379883 C-150.82813479 281.23775048 -145.25622777 288.7644034 -139.68945312 296.29443359 C-136.74705315 300.27649212 -133.8112956 304.26343938 -130.875 308.25 C-129.70836666 309.83335789 -128.54169996 311.4166912 -127.375 313 C-125.04166667 316.16666667 -122.70833333 319.33333333 -120.375 322.5 C-119.79661377 323.28487793 -119.21822754 324.06975586 -118.62231445 324.87841797 C-117.46431045 326.45014507 -116.30659212 328.02208269 -115.14916992 329.59423828 C-112.10236248 333.73198411 -109.04960155 337.86516462 -105.98828125 341.9921875 C-105.35212891 342.85134766 -104.71597656 343.71050781 -104.06054688 344.59570312 C-102.84362796 346.23898779 -101.62497452 347.88098988 -100.40429688 349.52148438 C-94.47792197 357.53216464 -90.72832821 363.52824006 -91.875 373.75 C-93.68556739 380.38147574 -97.06254968 385.06435063 -102.875 388.75 C-106.97439671 390.71366961 -110.51593763 391.09741274 -115.0390625 391.3125 C-115.76032318 391.34868439 -116.48158386 391.38486877 -117.22470093 391.42214966 C-119.64945946 391.54065829 -122.07459457 391.64562901 -124.5 391.75 C-126.22136917 391.83024521 -127.94272296 391.91082096 -129.6640625 391.99169922 C-153.55613702 393.08440768 -177.46696867 393.81153417 -201.37145042 394.57437134 C-202.40321289 394.60730097 -203.43497536 394.6402306 -204.49800336 394.6741581 C-205.28241225 394.69918592 -206.06682114 394.72421375 -206.875 394.75 C-205.56135429 375.92703963 -203.96322889 357.13878334 -202.2057811 338.35267651 C-201.85152988 334.55979248 -201.50026241 330.76663177 -201.14855957 326.97351074 C-200.46354763 319.59085588 -199.7758016 312.20845836 -199.08693819 304.82616197 C-198.5274518 298.83004559 -197.96887069 292.83384551 -197.41090584 286.83758736 C-197.33098006 285.97868568 -197.25105429 285.11978401 -197.16870653 284.23485501 C-197.00628199 282.48940093 -196.84385779 280.74394681 -196.68143392 278.99849267 C-195.1669643 262.72505311 -193.64916015 246.45192585 -192.13032658 230.1788931 C-190.74047826 215.28664911 -189.35500616 200.39400168 -187.97152495 185.50116497 C-186.54730792 170.17026685 -185.12011848 154.83964811 -183.68970352 139.50932699 C-182.88804985 130.91709855 -182.08759493 122.32476242 -181.2902813 113.73213005 C-180.6134483 106.43824477 -179.9338336 99.1446254 -179.25055104 91.85134136 C-178.90205371 88.13067716 -178.55487729 84.40990184 -178.21117592 80.68879128 C-177.83938266 76.66397411 -177.46139968 72.63976307 -177.08274841 68.61558533 C-176.91990778 66.83682232 -176.91990778 66.83682232 -176.75377744 65.02212471 C-176.60111326 63.41612383 -176.60111326 63.41612383 -176.44536495 61.77767849 C-176.3587337 60.84832971 -176.27210245 59.91898093 -176.18284601 58.96147007 C-175.875 56.75 -175.875 56.75 -174.875 54.75 C-170.86100197 53.84440288 -166.90050091 53.58005985 -162.796875 53.43359375 C-161.06679199 53.3706311 -161.06679199 53.3706311 -159.30175781 53.30639648 C-158.08842773 53.26716064 -156.87509766 53.2279248 -155.625 53.1875 C-154.38331055 53.1450415 -153.14162109 53.10258301 -151.86230469 53.05883789 C-142.19636819 52.74761928 -132.54474878 52.63488394 -122.875 52.75 C-122.86082031 52.20214844 -122.84664063 51.65429688 -122.83203125 51.08984375 C-121.68881696 32.08776844 -111.77615037 15.07462592 -98.25 2.125 C-70.239643 -22.18506406 -29.06601715 -22.49350484 0 0 Z M-86.875 9.75 C-87.63425781 10.32234375 -88.39351562 10.8946875 -89.17578125 11.484375 C-100.23153719 20.42063368 -106.63923478 33.10775368 -109.875 46.75 C-109.90493169 48.41639787 -109.91027203 50.08370661 -109.875 51.75 C-88.23677383 52.02558683 -66.65407805 51.22304303 -45.03521729 50.41760254 C-41.21901978 50.27675568 -37.40264378 50.14113711 -33.58625507 50.00558567 C-29.86179924 49.87285152 -26.13744028 49.73754695 -22.41310692 49.60142326 C-20.6579427 49.53743465 -18.90275648 49.47404602 -17.14754677 49.41131783 C-7.03704147 49.04780001 3.03846343 48.55817762 13.125 47.75 C12.64464391 41.7522205 11.38706523 37.26316657 8.625 31.9375 C8.26897705 31.24462891 7.9129541 30.55175781 7.54614258 29.83789062 C-1.05241183 13.66383927 -13.95053944 4.15977714 -31.01953125 -2.02734375 C-50.5446339 -7.65879441 -71.2244291 -2.72851214 -86.875 9.75 Z " fill="#FEC213" transform="translate(206.875,16.25)"/>
<path d="M0 0 C22.04076405 -0.70431013 43.47953964 6.29906173 59.890625 21.12109375 C76.02385838 36.48183345 82.34311847 57.78995312 83.07958984 79.54492188 C83.16358903 83.32534989 83.1723 87.10381956 83.15136719 90.88500977 C83.14061386 93.18597639 83.15135955 95.48616557 83.1640625 97.78710938 C83.1893722 123.60299861 77.83576264 146.21472441 59.6875 165.45703125 C43.90495841 180.76923219 22.02265535 186.52332537 0.47851562 186.42358398 C-21.80377942 185.88747236 -43.14064802 178.02876128 -58.72070312 161.69824219 C-80.12443004 137.38950874 -79.71133045 103.32071115 -77.8359375 72.80078125 C-76.06597438 51.12272969 -67.62203875 31.94308394 -51.046875 17.43359375 C-35.93896781 5.69235112 -18.85293481 1.08229811 0 0 Z M-11.421875 67.80859375 C-18.94563489 78.80800359 -19.3129137 92.47251192 -16.984375 105.18359375 C-15.05597977 113.54300514 -11.46151306 120.35213933 -4.109375 125.12109375 C0.51161615 126.66142413 4.33831796 126.65964925 8.953125 125.05859375 C17.38345724 119.49816185 20.21320269 111.6909978 22.640625 102.18359375 C23.66931021 89.58219995 22.91099073 77.97951658 15.890625 67.12109375 C12.24016869 63.01913363 7.98966373 60.62364057 2.578125 59.74609375 C-3.31028601 60.5677325 -7.70768398 63.1797139 -11.421875 67.80859375 Z " fill="#000000" transform="translate(1993.109375,167.87890625)"/>
<path d="M0 0 C19.8 0 39.6 0 60 0 C60.33 6.6 60.66 13.2 61 20 C62.32 18.35 63.64 16.7 65 15 C76.47023494 5.15651328 87.65241381 -0.55915779 102.9375 0.125 C115.55549983 1.32801624 125.87750707 6.3993225 134.6875 15.5625 C146.17253153 29.68121488 149.34419792 47.24144159 148 65 C146.23790177 76.84257006 138.41278773 83.95803918 129.74609375 91.54296875 C127 93 127 93 124.19067383 92.30053711 C120.96814532 90.98701585 118.1665826 89.46965781 115.203125 87.6484375 C113.53491699 86.62931274 113.53491699 86.62931274 111.83300781 85.58959961 C110.63858742 84.8515364 109.4442534 84.11333339 108.25 83.375 C107.01692175 82.61869971 105.78351861 81.86292892 104.54980469 81.10766602 C101.34326735 79.14261703 98.14128682 77.17026822 94.94042969 75.19598389 C91.75434057 73.23223778 88.56445884 71.27467265 85.375 69.31640625 C79.24554949 65.55147279 73.1211566 61.77840624 67 58 C67.33 56.35 67.66 54.7 68 53 C69.03125 53.33 70.0625 53.66 71.125 54 C76.42081491 55.49478647 81.06540213 55.74144326 86 53 C87.29165425 51.25160856 87.29165425 51.25160856 88 49 C88.391875 48.113125 88.78375 47.22625 89.1875 46.3125 C90.22371956 42.08791255 90.19293882 38.20330793 89 34 C87.79515674 32.16483392 87.79515674 32.16483392 86 31 C81.0163997 30.26947224 76.57306784 31.91933844 72.375 34.5 C66.9110919 38.65857599 61.83287663 43.07558984 60.35542488 50.03715706 C60.10068622 53.63569781 60.06850828 57.17414903 60.11352539 60.78149414 C60.10562339 62.15228281 60.0946532 63.52305666 60.08087158 64.89379883 C60.05230299 68.58985483 60.0663013 72.28463499 60.08831334 75.98068929 C60.10401064 79.85249293 60.08004944 83.72405335 60.06040955 87.59580994 C60.02924345 94.91613753 60.03341521 102.23599533 60.05048412 109.55635208 C60.06819195 117.89507081 60.04619931 126.23353972 60.02097714 134.57222188 C59.97000904 151.71498807 59.97379429 168.85715166 60 186 C40.2 186 20.4 186 0 186 C0 124.62 0 63.24 0 0 Z " fill="#000000" transform="translate(1751,168)"/>
<path d="M0 0 C3.98311359 1.92682168 6.34487664 4.94012342 8 9 C8.55872013 13.46250491 8.86056594 17.62309449 6.4375 21.5 C3.21988274 27.09585611 5.9176689 34.07370979 7.45800781 39.96118164 C11.58118376 54.72035306 18.34619175 67.13425122 28 79 C28.78375 80.051875 29.5675 81.10375 30.375 82.1875 C45.46904566 98.35969178 66.2820032 109.26067548 88 113 C88.75023437 113.13019531 89.50046875 113.26039063 90.2734375 113.39453125 C117.724177 117.2213072 144.02613684 110.5657595 166 94 C185.34528067 78.46499436 199.74083763 56.71117792 204 32 C204.43193507 27.2985529 204.35685666 23.81363318 202.4375 19.4375 C200.6653041 15.19964024 200.55526447 12.34301594 202 8 C203.83838468 4.79696823 206.12104051 2.56155745 209.25 0.5625 C213.93908868 -0.39663178 218.67196836 -0.38423503 222.87890625 2.1171875 C225.03541048 3.87356926 226.74817471 5.49634942 228 8 C228.17412207 9.93246952 228.26705542 11.8727341 228.3125 13.8125 C228.36857422 15.36904297 228.36857422 15.36904297 228.42578125 16.95703125 C228 20 228 20 226.06640625 22.375 C223.37720767 25.79114641 223.11167355 29.00499416 222.625 33.1875 C219.67023649 53.55522682 211.09116123 75.63096385 197 91 C196.34 91 195.68 91 195 91 C194.65195312 91.83144531 194.65195312 91.83144531 194.296875 92.6796875 C186.24438244 107.08685793 168.16847822 116.47772274 153.79541016 123.15673828 C152.21832117 123.89745971 150.66010345 124.6780853 149.10546875 125.46484375 C122.53885972 138.56891327 89.66190729 136.53552017 62.25 127.3125 C33.46925568 116.90945662 9.16079309 94.65420911 -4.23291016 67.23803711 C-9.64095062 55.61783306 -13.39005448 43.76022345 -14.88793945 31.01220703 C-15.54002176 26.00195483 -17.15690959 23.10160126 -20 19 C-20.85774237 14.50867185 -20.55654615 10.34742752 -18.8125 6.125 C-18.214375 5.42375 -17.61625 4.7225 -17 4 C-16.0409375 2.8553125 -16.0409375 2.8553125 -15.0625 1.6875 C-10.20475493 -0.98921667 -5.41278786 -0.85696371 0 0 Z " fill="#000000" transform="translate(90,249)"/>
<path d="M0 0 C0.928125 0.86625 1.85625 1.7325 2.8125 2.625 C-4.22259395 11.18119534 -12.0818887 19.02702432 -20.53125 26.1875 C-21.0778125 26.661875 -21.624375 27.13625 -22.1875 27.625 C-22.77273437 28.099375 -23.35796875 28.57375 -23.9609375 29.0625 C-25.41292754 30.54237593 -25.41292754 30.54237593 -25.0078125 32.5 C-24.77835937 33.20125 -24.54890625 33.9025 -24.3125 34.625 C-22.51150906 41.59109703 -22.64913229 48.56299095 -26.25 54.9375 C-29.41513769 59.40917709 -33.82172891 63.46342412 -39.06640625 65.2734375 C-41.75333409 65.71878466 -44.33879456 65.79517363 -47.0625 65.8125 C-48.57457031 65.83376953 -48.57457031 65.83376953 -50.1171875 65.85546875 C-53.41871347 65.60764428 -56.1002397 64.79078635 -59.1875 63.625 C-59.88875 64.33785156 -60.59 65.05070312 -61.3125 65.78515625 C-66.17657047 70.70430465 -71.06216669 75.49480856 -76.328125 79.98828125 C-79.42886992 82.71771848 -82.30847909 85.66500663 -85.1875 88.625 C-91.18509847 86.62580051 -93.94386736 79.0700532 -96.68359375 73.68359375 C-103.55269173 58.37590062 -103.87919339 41.451382 -98.40234375 25.64453125 C-91.58191281 8.69214181 -79.52363689 -3.20695681 -62.78125 -10.37890625 C-41.97963695 -18.36747753 -17.03486391 -14.47451362 0 0 Z " fill="#FDC213" transform="translate(174.1875,145.375)"/>
<path d="M0 0 C14.23856887 12.53079449 24.27168413 28.79769118 26.6875 47.8125 C26.84443701 50.86625538 26.84443701 50.86625538 29.125 52.75 C29.35527687 56.79519695 29.03692683 60.5925544 26.5 63.8125 C23.14469514 65.13696244 20.69876708 65.19672088 17.125 64.75 C14.76002561 62.88291495 13.46469285 61.42938569 12.125 58.75 C11.9948395 55.82138871 11.98984904 53.27217415 12.7265625 50.42578125 C14.25853511 40.13753382 6.16875249 27.51843729 0.50390625 19.4375 C-10.18733799 6.3106006 -26.43479494 -1.22373102 -43 -3 C-59.42499432 -4.02419133 -74.01436332 0.57235821 -86.875 10.75 C-87.56078125 11.24886719 -88.2465625 11.74773438 -88.953125 12.26171875 C-100.86030588 21.56713373 -107.43260086 36.89971987 -109.8125 51.5 C-110.18707228 54.90003689 -110.18707228 54.90003689 -107.875 57.75 C-107.72514515 61.28942892 -108.20356223 64.65449627 -110.0625 67.6875 C-113.59260793 69.75687361 -116.68891121 70.0465222 -120.625 69.0625 C-123.32793433 67.48578831 -123.9863753 66.73901035 -124.875 63.75 C-125.31368272 57.60844188 -125.31368272 57.60844188 -123.87890625 54.80078125 C-122.75469533 52.50424144 -122.64585676 50.97768753 -122.5625 48.4375 C-120.93509641 29.41371317 -109.84638736 12.18945293 -95.70703125 -0.08203125 C-67.19485681 -21.90859238 -28.40317816 -21.98054939 0 0 Z " fill="#000000" transform="translate(206.875,16.25)"/>
<path d="M0 0 C6.36186422 4.73605448 9.99313925 11.06493215 11.4609375 18.83203125 C12.38076911 28.27308067 11.2085925 37.00603762 6.0234375 45.08203125 C1.49632731 50.51456347 -4.55749652 54.07001901 -11.58837891 55.14550781 C-20.28054474 55.92837317 -28.93955589 55.53212771 -36.5390625 50.83203125 C-39.4140625 48.39453125 -39.4140625 48.39453125 -41.5390625 45.83203125 C-42.2403125 45.11015625 -42.9415625 44.38828125 -43.6640625 43.64453125 C-48.92617568 35.75136148 -49.70201064 26.37361455 -48.0703125 17.1953125 C-46.28859133 10.26993198 -43.24790616 4.42049505 -37.2890625 0.26171875 C-25.90719565 -6.29034276 -11.42261939 -6.68144997 0 0 Z " fill="#FFC313" transform="translate(982.5390625,89.16796875)"/>
<path d="M0 0 C5.50163425 3.29864935 9.495867 8.00649796 12.125 13.8125 C13.15675767 21.42171278 12.75015473 28.30901105 8.21875 34.7109375 C3.55343556 39.94798165 -1.14668798 43.19377127 -8.1796875 43.703125 C-15.37586026 43.81299023 -20.05134966 43.71034408 -25.4375 38.5078125 C-31.56645346 32.00674401 -33.86824195 26.96999369 -33.61328125 18.01953125 C-32.91494318 10.63546478 -30.12753299 6.68350821 -24.5078125 1.9453125 C-17.55968699 -2.7631242 -7.70725532 -3.40868826 0 0 Z " fill="#000000" transform="translate(138.375,167.5)"/>
<path d="M0 0 C5.23248933 3.14170607 8.68109772 7.23399429 10.9375 12.875 C12.36813991 21.0296475 11.71342068 27.17945741 7.5625 34.4375 C3.43084759 39.19575373 -1.16932262 42.11895613 -7.5234375 42.73828125 C-20.83797847 42.78572023 -20.83797847 42.78572023 -26.33984375 37.66796875 C-32.00037803 31.61385949 -33.95754539 26.29883427 -33.74609375 18.02734375 C-32.90394254 10.95966971 -29.76310246 6.06461476 -24.31640625 1.62890625 C-17.30646067 -2.81606964 -7.60928969 -3.42271139 0 0 Z " fill="#000000" transform="translate(272.4375,167.5625)"/>
</svg>
