<?xml version="1.0" encoding="UTF-8"?>
<svg id="Layer_2" data-name="Layer 2" xmlns="http://www.w3.org/2000/svg" viewBox="0 0 734.79 189.48">
  <defs>
    <style>
      .cls-1 {
        font-family: ArialMT, Arial;
        font-size: 90.15px;
      }

      .cls-2 {
        letter-spacing: .09em;
      }

      .cls-3 {
        letter-spacing: .07em;
      }

      .cls-4 {
        letter-spacing: .09em;
      }

      .cls-5 {
        fill: #fff;
      }

      .cls-6 {
        fill: #272162;
      }

      .cls-7 {
        letter-spacing: .08em;
      }

      .cls-8 {
        letter-spacing: -.02em;
      }

      .cls-9 {
        fill: #27215e;
      }

      .cls-10 {
        fill: #b11e92;
      }
    </style>
  </defs>
  <g id="Layer_1-2" data-name="Layer 1">
    <g id="logo">
      <path class="cls-10" d="M112.28,57.3c0,10.8,3.48,19.58,10.44,26.35,3.01,2.93,6.47,5.22,10.39,6.89.55.24,1.1.45,1.66.66.98,3.43,2.54,6.41,4.4,8.68.11.14.21.26.33.39.06.07.13.14.19.21.12.14.25.27.37.4.2.21.4.41.61.61.09.1.2.19.3.28.04.04.08.06.11.1.11.11.22.19.34.29.06.05.11.09.16.14.11.08.21.16.31.23.21.16.44.32.65.46.15.1.3.2.46.29.14.09.28.16.41.24.35.18.7.34,1.04.49,1.6.65,3.24.79,4.83.36.36-.1.71-.23,1.04-.38,0-.02-.01-.04-.02-.06-.14-.34-.37-.64-.66-.88l-.04-.04c-.09-.08-.19-.16-.32-.23-.03-.02-.06-.04-.09-.05-.09.04-.19.06-.29.09-1.19.34-2.43.25-3.65-.19-.41-.15-.82-.34-1.23-.56-.07-.04-.14-.07-.21-.11-.19-.11-.37-.22-.55-.35-.26-.18-.53-.37-.79-.59-.19-.16-.36-.31-.55-.48-.14-.12-.27-.25-.4-.39-.15-.14-.29-.29-.44-.45,0,0,0,0,0-.01-.14-.15-.29-.31-.42-.47-.14-.16-.28-.34-.42-.51-.25-.32-.49-.66-.74-1.01-1.15-1.66-2.13-3.64-2.88-5.87.55.17,1.11.33,1.68.48,3.8,1,7.96,1.5,12.47,1.5.88,0,1.73-.02,2.58-.06.42-2.76.26-5.9-.49-9.03-.89-3.71-2.5-6.95-4.4-9.19-3.15-.28-5.82-1.13-8.02-2.59-.42-.27-.82-.57-1.21-.89.62-.49,1.31-.84,2.05-1.05,3.07-.85,6.42,1.03,9.05,4.62,1.7,2.31,3.09,5.32,3.91,8.76.79,3.28.94,6.48.57,9.29-.13.96-.32,1.86-.57,2.71-.11.37-.23.73-.36,1.07.54-.02,1.08-.04,1.63-.06.11-.35.23-.71.32-1.08.24-.89.41-1.82.54-2.79.37-2.93.2-6.22-.6-9.56-.76-3.2-2.01-6.05-3.55-8.37-1.48-2.23-3.24-3.99-5.1-5.08-2.02-1.19-4.16-1.61-6.21-1.04-1.03.29-1.98.81-2.82,1.52-.21-.21-.41-.44-.61-.68-.11-.14-.23-.27-.34-.41-2.76-3.47-4.14-7.67-4.14-12.58s1.52-9.23,4.55-12.92c3.03-3.7,7.43-5.54,13.21-5.54s10.04,1.84,13.06,5.54c3.03,3.69,4.55,8,4.55,12.92s-1.49,9.22-4.48,12.86c-2.43,2.98-5.8,4.74-10.09,5.28,1.47,2.37,2.62,5.15,3.34,8.19.79,3.28,1.01,6.63.67,9.72,8.41-1.12,15.36-4.35,20.85-9.69,6.96-6.77,10.44-15.55,10.44-26.35s-3.53-19.5-10.58-26.42c-7.05-6.91-16.31-10.36-27.77-10.36s-20.86,3.45-27.92,10.36c-7.05,6.92-10.58,15.72-10.58,26.42Z"/>
      <path class="cls-6" d="M139.58,103.81c6.6,12.86,23.68,45.8,25.92,47.12l67.76,37.73c2.79,1.65,6.42.71,8.07-2.08l24.96-42.31c1.64-2.79.71-6.42-2.08-8.07l-67.76-37.73c-1.71-1.01-23.66-.68-40.4-.28-.35.01-.69.02-1.03.03-.51.01-1.03.03-1.53.04-.36.01-.71.02-1.06.03-3.77.1-7.14.2-9.76.28-.39,0-.76.08-1.09.2.93,1.13,1.95,2.03,3,2.66l.11.06c.76.44,1.66.6,2.51.4.65-.15,1.34-.11,1.99.14.18.06.36.15.54.25.17.1.33.21.47.34.39.32.69.72.9,1.16.14.31.24.64.29.98.13.92-.11,1.89-.77,2.7-.92,1.11-2.5,1.52-3.85,1-1.02-.39-1.73-1.2-2.04-2.13-.26-.78-.86-1.41-1.58-1.81-.09-.04-.16-.09-.25-.14-1.29-.76-2.51-1.8-3.62-3.06-.19.79-.13,1.68.3,2.49ZM172.66,142.54c-9.61-15.15,2.01-34.83,19.91-33.75.04,0,61.92,34.22,61.92,34.22l-19.97,33.85s-61.84-34.29-61.86-34.32Z"/>
      <path class="cls-5" d="M254.49,143.01l-19.97,33.85s-61.84-34.29-61.86-34.31c-9.6-15.15,2.01-34.83,19.91-33.76.04.01,61.91,34.22,61.91,34.22Z"/>
      <path class="cls-9" d="M243.35,92.4v-38.12c0-7.93-2.64-10.57-7.24-10.57-4.31,0-8.9,3.48-9.04,10.99v37.7h-25.46V23.67h21.57l1.81,7.37c4.31-5.98,11.83-8.9,18.92-8.77,6.96.14,13.64,3.34,17.11,9.74,5.7-7.1,13.36-9.88,22.82-9.88,14.89,0,26.3,9.18,26.3,32v38.26h-25.6v-38.12c0-7.23-3.34-10.16-7.1-10.16-4.31,0-8.9,2.92-8.9,10.43v37.84h-25.18Z"/>
      <path class="cls-9" d="M366.06,92.4v-38.12c0-7.93-2.64-10.57-7.24-10.57-4.31,0-8.9,3.48-9.04,10.99v37.7h-25.46V23.67h21.57l1.81,7.37c4.31-5.98,11.83-8.9,18.92-8.77,6.96.14,13.64,3.34,17.11,9.74,5.7-7.1,13.36-9.88,22.82-9.88,14.89,0,26.3,9.18,26.3,32v38.26h-25.6v-38.12c0-7.23-3.34-10.16-7.1-10.16-4.31,0-8.9,2.92-8.9,10.43v37.84h-25.18Z"/>
      <path class="cls-9" d="M517.16,65.27h-48c1.81,6.12,9.74,8.77,15.3,8.77,7.51,0,13.22-2.23,17.67-5.57l12.52,14.05c-8.21,7.65-19.48,11.41-31.31,11.41-21.7,0-40.07-10.71-40.07-35.76s19.62-36.17,38.26-36.17c24.35,0,41.46,16.14,35.62,43.27ZM494.2,48.85c-.7-10.85-23.23-11.27-24.91,0h24.91Z"/>
      <path class="cls-9" d="M552.07,23.67l1.53,7.51c3.62-6.4,10.02-9.18,16.7-9.18s13.64,2.64,18.09,7.37l-10.3,18.5c-4.17-3.34-7.23-4.17-11.55-4.17-6.4,0-11.83,3.9-11.83,12.94v35.76h-25.6V23.67h22.96Z"/>
      <path class="cls-9" d="M656.56,82.11c-8.21,7.37-18.09,11.69-28.38,11.69-20.04,0-38.96-9.88-38.96-35.62s19.2-36.03,38.54-36.03c9.88,0,19.76,3.48,26.99,10.71l-13.63,14.75c-3.34-3.48-7.24-5.01-11.83-5.01-9.74,0-15.03,7.1-15.03,15.72,0,7.51,5.15,14.19,14.89,14.19,4.73,0,9.32-1.95,12.8-5.7l14.61,15.3Z"/>
      <path class="cls-9" d="M733.64,65.27h-48c1.81,6.12,9.74,8.77,15.3,8.77,7.51,0,13.22-2.23,17.67-5.57l12.52,14.05c-8.21,7.65-19.48,11.41-31.31,11.41-21.7,0-40.07-10.71-40.07-35.76s19.62-36.17,38.26-36.17c24.35,0,41.46,16.14,35.62,43.27ZM710.68,48.85c-.7-10.85-23.23-11.27-24.91,0h24.91Z"/>
      <path class="cls-9" d="M107.34,82.11c-8.21,7.37-18.09,11.69-28.38,11.69-20.04,0-38.96-9.88-38.96-35.62s19.2-36.03,38.54-36.03c9.88,0,19.76,3.48,26.99,10.71l-13.63,14.75c-3.34-3.48-7.24-5.01-11.83-5.01-9.74,0-15.03,7.1-15.03,15.72,0,7.51,5.15,14.19,14.89,14.19,4.73,0,9.32-1.95,12.8-5.7l14.61,15.3Z"/>
      <text class="cls-1" transform="translate(287.22 162.97)"><tspan class="cls-8" x="0" y="0">s</tspan><tspan class="cls-7" x="42.91" y="0">h</tspan><tspan class="cls-3" x="100.08" y="0">o</tspan><tspan class="cls-4" x="156.7" y="0">pp</tspan><tspan class="cls-2" x="273.56" y="0">i</tspan><tspan class="cls-7" x="301.79" y="0">n</tspan><tspan x="358.96" y="0">g</tspan></text>
    </g>
    <g>
      <path class="cls-9" d="M29.21,36.07v56.99c0,7.15-5.79,12.94-12.94,12.94s-12.94-5.79-12.94-12.94v-58.01c3.05,4.06,7.9,6.68,13.36,6.68,4.99,0,9.47-2.19,12.52-5.66Z"/>
      <circle class="cls-10" cx="16.69" cy="16.69" r="16.69"/>
    </g>
  </g>
</svg>