<?xml version="1.0" encoding="UTF-8"?>
<svg id="Layer_2" data-name="Layer 2" xmlns="http://www.w3.org/2000/svg" xmlns:xlink="http://www.w3.org/1999/xlink" viewBox="0 0 734.79 189.48">
  <defs>
    <style>
      .cls-1 {
        fill: #fff;
      }

      .cls-2 {
        fill: #eb72ac;
      }

      .cls-3 {
        fill: url(#Orchid_2);
      }

      .cls-4 {
        fill: #00b8e5;
      }
    </style>
    <linearGradient id="Orchid_2" data-name="Orchid 2" x1="0" y1="16.69" x2="33.39" y2="16.69" gradientUnits="userSpaceOnUse">
      <stop offset="0" stop-color="#ff7bac"/>
      <stop offset="1" stop-color="#ff7bac"/>
    </linearGradient>
  </defs>
  <g id="Layer_1-2" data-name="Layer 1">
    <path class="cls-2" d="M112.28,57.3c0,10.8,3.48,19.58,10.44,26.35,3.01,2.93,6.47,5.22,10.39,6.89.55.24,1.1.45,1.66.66.98,3.43,2.54,6.41,4.4,8.68.11.14.21.26.33.39.06.07.13.14.19.21.12.14.25.27.37.4.2.21.4.41.61.61.09.1.2.19.3.28.04.04.08.06.11.1.11.11.22.19.34.29.06.05.11.09.16.14.11.08.21.16.31.23.21.16.44.32.65.46.15.1.3.2.46.29.14.09.28.16.41.24.35.18.7.34,1.04.49,1.6.65,3.24.79,4.83.36.36-.1.71-.23,1.04-.38,0-.02-.01-.04-.02-.06-.14-.34-.37-.64-.66-.88l-.04-.04c-.09-.08-.19-.16-.32-.23-.03-.02-.06-.04-.09-.05-.09.04-.19.06-.29.09-1.19.34-2.43.25-3.65-.19-.41-.15-.82-.34-1.23-.56-.07-.04-.14-.07-.21-.11-.19-.11-.37-.22-.55-.35-.26-.18-.53-.37-.79-.59-.19-.16-.36-.31-.55-.48-.14-.12-.27-.25-.4-.39-.15-.14-.29-.29-.44-.45,0,0,0,0,0-.01-.14-.15-.29-.31-.42-.47-.14-.16-.28-.34-.42-.51-.25-.32-.49-.66-.74-1.01-1.15-1.66-2.13-3.64-2.88-5.87.55.17,1.11.33,1.68.48,3.8,1,7.96,1.5,12.47,1.5.88,0,1.73-.02,2.58-.06.42-2.76.26-5.9-.49-9.03-.89-3.71-2.5-6.95-4.4-9.19-3.15-.28-5.82-1.13-8.02-2.59-.42-.27-.82-.57-1.21-.89.62-.49,1.31-.84,2.05-1.05,3.07-.85,6.42,1.03,9.05,4.62,1.7,2.31,3.09,5.32,3.91,8.76.79,3.28.94,6.48.57,9.29-.13.96-.32,1.86-.57,2.71-.11.37-.23.73-.36,1.07.54-.02,1.08-.04,1.63-.06.11-.35.23-.71.32-1.08.24-.89.41-1.82.54-2.79.37-2.93.2-6.22-.6-9.56-.76-3.2-2.01-6.05-3.55-8.37-1.48-2.23-3.24-3.99-5.1-5.08-2.02-1.19-4.16-1.61-6.21-1.04-1.03.29-1.98.81-2.82,1.52-.21-.21-.41-.44-.61-.68-.11-.14-.23-.27-.34-.41-2.76-3.47-4.14-7.67-4.14-12.58s1.52-9.23,4.55-12.92c3.03-3.7,7.43-5.54,13.21-5.54s10.04,1.84,13.06,5.54c3.03,3.69,4.55,8,4.55,12.92s-1.49,9.22-4.48,12.86c-2.43,2.98-5.8,4.74-10.09,5.28,1.47,2.37,2.62,5.15,3.34,8.19.79,3.28,1.01,6.63.67,9.72,8.41-1.12,15.36-4.35,20.85-9.69,6.96-6.77,10.44-15.55,10.44-26.35s-3.53-19.5-10.58-26.42c-7.05-6.91-16.31-10.36-27.77-10.36s-20.86,3.45-27.92,10.36c-7.05,6.92-10.58,15.72-10.58,26.42Z"/>
    <path class="cls-4" d="M139.58,103.81c6.6,12.86,23.68,45.8,25.92,47.12l67.76,37.73c2.79,1.65,6.42.71,8.07-2.08l24.96-42.31c1.64-2.79.71-6.42-2.08-8.07l-67.76-37.73c-1.71-1.01-23.66-.68-40.4-.28-.35.01-.69.02-1.03.03-.51.01-1.03.03-1.53.04-.36.01-.71.02-1.06.03-3.77.1-7.14.2-9.76.28-.39,0-.76.08-1.09.2.93,1.13,1.95,2.03,3,2.66l.11.06c.76.44,1.66.6,2.51.4.65-.15,1.34-.11,1.99.14.18.06.36.15.54.25.17.1.33.21.47.34.39.32.69.72.9,1.16.14.31.24.64.29.98.13.92-.11,1.89-.77,2.7-.92,1.11-2.5,1.52-3.85,1-1.02-.39-1.73-1.2-2.04-2.13-.26-.78-.86-1.41-1.58-1.81-.09-.04-.16-.09-.25-.14-1.29-.76-2.51-1.8-3.62-3.06-.19.79-.13,1.68.3,2.49ZM172.66,142.54c-9.61-15.15,2.01-34.83,19.91-33.75.04,0,61.92,34.22,61.92,34.22l-19.97,33.85s-61.84-34.29-61.86-34.32Z"/>
    <path class="cls-4" d="M243.35,92.4v-38.12c0-7.93-2.64-10.57-7.24-10.57-4.31,0-8.9,3.48-9.04,10.99v37.7h-25.46V23.67h21.57l1.81,7.37c4.31-5.98,11.83-8.9,18.92-8.77,6.96.14,13.64,3.34,17.11,9.74,5.7-7.1,13.36-9.88,22.82-9.88,14.89,0,26.3,9.18,26.3,32v38.26h-25.6v-38.12c0-7.23-3.34-10.16-7.1-10.16-4.31,0-8.9,2.92-8.9,10.43v37.84h-25.18Z"/>
    <path class="cls-4" d="M366.06,92.4v-38.12c0-7.93-2.64-10.57-7.24-10.57-4.31,0-8.9,3.48-9.04,10.99v37.7h-25.46V23.67h21.57l1.81,7.37c4.31-5.98,11.83-8.9,18.92-8.77,6.96.14,13.64,3.34,17.11,9.74,5.7-7.1,13.36-9.88,22.82-9.88,14.89,0,26.3,9.18,26.3,32v38.26h-25.6v-38.12c0-7.23-3.34-10.16-7.1-10.16-4.31,0-8.9,2.92-8.9,10.43v37.84h-25.18Z"/>
    <path class="cls-4" d="M517.16,65.27h-48c1.81,6.12,9.74,8.77,15.3,8.77,7.51,0,13.22-2.23,17.67-5.57l12.52,14.05c-8.21,7.65-19.48,11.41-31.31,11.41-21.7,0-40.07-10.71-40.07-35.76s19.62-36.17,38.26-36.17c24.35,0,41.46,16.14,35.62,43.27ZM494.2,48.85c-.7-10.85-23.23-11.27-24.91,0h24.91Z"/>
    <path class="cls-4" d="M552.07,23.67l1.53,7.51c3.62-6.4,10.02-9.18,16.7-9.18s13.64,2.64,18.09,7.37l-10.3,18.5c-4.17-3.34-7.23-4.17-11.55-4.17-6.4,0-11.83,3.9-11.83,12.94v35.76h-25.6V23.67h22.96Z"/>
    <path class="cls-4" d="M656.56,82.11c-8.21,7.37-18.09,11.69-28.38,11.69-20.04,0-38.96-9.88-38.96-35.62s19.2-36.03,38.54-36.03c9.88,0,19.76,3.48,26.99,10.71l-13.63,14.75c-3.34-3.48-7.24-5.01-11.83-5.01-9.74,0-15.03,7.1-15.03,15.72,0,7.51,5.15,14.19,14.89,14.19,4.73,0,9.32-1.95,12.8-5.7l14.61,15.3Z"/>
    <path class="cls-4" d="M733.64,65.27h-48c1.81,6.12,9.74,8.77,15.3,8.77,7.51,0,13.22-2.23,17.67-5.57l12.52,14.05c-8.21,7.65-19.48,11.41-31.31,11.41-21.7,0-40.07-10.71-40.07-35.76s19.62-36.17,38.26-36.17c24.35,0,41.46,16.14,35.62,43.27ZM710.68,48.85c-.7-10.85-23.23-11.27-24.91,0h24.91Z"/>
    <path class="cls-4" d="M107.34,82.11c-8.21,7.37-18.09,11.69-28.38,11.69-20.04,0-38.96-9.88-38.96-35.62s19.2-36.03,38.54-36.03c9.88,0,19.76,3.48,26.99,10.71l-13.63,14.75c-3.34-3.48-7.24-5.01-11.83-5.01-9.74,0-15.03,7.1-15.03,15.72,0,7.51,5.15,14.19,14.89,14.19,4.73,0,9.32-1.95,12.8-5.7l14.61,15.3Z"/>
    <g>
      <path class="cls-1" d="M314.79,166.35v-7.75c3.93,2.91,8.26,4.36,12.98,4.36,6.34,0,9.51-2.11,9.51-6.34,0-1.2-.27-2.22-.81-3.06-.54-.84-1.28-1.58-2.2-2.22-.92-.64-2.01-1.22-3.26-1.74-1.25-.51-2.59-1.05-4.03-1.61-2-.79-3.75-1.59-5.26-2.4-1.51-.81-2.77-1.72-3.79-2.73-1.01-1.01-1.78-2.16-2.29-3.46-.51-1.29-.77-2.8-.77-4.53,0-2.11.48-3.98,1.45-5.61.97-1.63,2.26-2.99,3.87-4.09,1.61-1.1,3.46-1.93,5.52-2.49,2.07-.56,4.2-.84,6.4-.84,3.9,0,7.39.68,10.48,2.03v7.31c-3.32-2.17-7.13-3.26-11.44-3.26-1.35,0-2.57.15-3.65.46-1.09.31-2.02.74-2.79,1.3-.78.56-1.38,1.23-1.8,2-.43.78-.64,1.64-.64,2.58,0,1.17.21,2.16.64,2.95.43.79,1.05,1.5,1.87,2.11.82.62,1.82,1.17,2.99,1.67,1.17.5,2.51,1.04,4.01,1.63,2,.76,3.79,1.55,5.37,2.35,1.58.81,2.93,1.72,4.05,2.73,1.11,1.01,1.97,2.18,2.58,3.5.6,1.32.9,2.89.9,4.71,0,2.23-.49,4.17-1.47,5.81-.98,1.64-2.3,3.01-3.94,4.09-1.64,1.09-3.54,1.89-5.68,2.42-2.14.53-4.39.79-6.73.79-4.64,0-8.66-.9-12.06-2.69Z"/>
      <path class="cls-1" d="M400.4,167.97h-7.22v-25.97c0-9.39-3.49-14.09-10.48-14.09-3.52,0-6.49,1.36-8.89,4.07-2.41,2.71-3.61,6.2-3.61,10.45v25.53h-7.22v-66.73h7.22v29.14h.18c3.46-5.69,8.39-8.54,14.79-8.54,10.15,0,15.23,6.12,15.23,18.36v27.77Z"/>
      <path class="cls-1" d="M440.05,169.03c-6.66,0-11.98-2.11-15.96-6.32-3.98-4.21-5.96-9.79-5.96-16.75,0-7.57,2.07-13.48,6.21-17.74s9.73-6.38,16.77-6.38,11.96,2.07,15.74,6.21,5.66,9.88,5.66,17.21-2.03,12.95-6.1,17.28c-4.07,4.33-9.52,6.49-16.35,6.49ZM440.58,127.92c-4.64,0-8.3,1.58-11,4.73-2.7,3.15-4.05,7.5-4.05,13.05s1.36,9.55,4.09,12.63c2.73,3.08,6.38,4.62,10.96,4.62s8.25-1.51,10.76-4.53c2.51-3.02,3.76-7.32,3.76-12.9s-1.25-9.98-3.76-13.03c-2.51-3.05-6.1-4.58-10.76-4.58Z"/>
      <path class="cls-1" d="M488.64,161.46h-.18v27.25h-7.22v-65.8h7.22v7.92h.18c3.55-5.99,8.74-8.98,15.58-8.98,5.81,0,10.34,2.02,13.6,6.05,3.26,4.04,4.89,9.44,4.89,16.22,0,7.54-1.83,13.58-5.5,18.11-3.67,4.53-8.69,6.8-15.05,6.8-5.84,0-10.34-2.52-13.51-7.57ZM488.46,143.28v6.29c0,3.73,1.21,6.89,3.63,9.49,2.42,2.6,5.49,3.9,9.22,3.9,4.37,0,7.8-1.67,10.28-5.02,2.48-3.34,3.72-8,3.72-13.95,0-5.02-1.16-8.95-3.48-11.8-2.32-2.85-5.46-4.27-9.42-4.27-4.2,0-7.57,1.46-10.12,4.38-2.55,2.92-3.83,6.58-3.83,10.98Z"/>
      <path class="cls-1" d="M548.85,161.46h-.18v27.25h-7.22v-65.8h7.22v7.92h.18c3.55-5.99,8.74-8.98,15.58-8.98,5.81,0,10.34,2.02,13.6,6.05,3.26,4.04,4.89,9.44,4.89,16.22,0,7.54-1.83,13.58-5.5,18.11-3.67,4.53-8.69,6.8-15.05,6.8-5.84,0-10.34-2.52-13.51-7.57ZM548.67,143.28v6.29c0,3.73,1.21,6.89,3.63,9.49,2.42,2.6,5.5,3.9,9.22,3.9,4.37,0,7.8-1.67,10.28-5.02,2.48-3.34,3.72-8,3.72-13.95,0-5.02-1.16-8.95-3.48-11.8-2.32-2.85-5.46-4.27-9.42-4.27-4.2,0-7.57,1.46-10.12,4.38-2.55,2.92-3.83,6.58-3.83,10.98Z"/>
      <path class="cls-1" d="M605.36,111.46c-1.29,0-2.39-.44-3.3-1.32-.91-.88-1.36-2-1.36-3.35s.46-2.47,1.36-3.37c.91-.89,2.01-1.34,3.3-1.34s2.44.45,3.37,1.34c.92.9,1.39,2.02,1.39,3.37s-.46,2.39-1.39,3.3c-.92.91-2.05,1.36-3.37,1.36ZM608.88,167.97h-7.22v-45.07h7.22v45.07Z"/>
      <path class="cls-1" d="M668.12,167.97h-7.22v-25.71c0-9.57-3.49-14.35-10.48-14.35-3.61,0-6.6,1.36-8.96,4.07s-3.54,6.14-3.54,10.28v25.71h-7.22v-45.07h7.22v7.48h.18c3.4-5.69,8.33-8.54,14.79-8.54,4.93,0,8.7,1.59,11.31,4.78,2.61,3.18,3.92,7.78,3.92,13.8v27.55Z"/>
      <path class="cls-1" d="M727.4,164.37c0,16.55-7.92,24.83-23.77,24.83-5.58,0-10.45-1.06-14.61-3.17v-7.22c5.08,2.82,9.92,4.23,14.53,4.23,11.09,0,16.64-5.9,16.64-17.69v-4.93h-.18c-3.43,5.75-8.6,8.63-15.49,8.63-5.6,0-10.12-2-13.54-6.01-3.42-4-5.13-9.38-5.13-16.13,0-7.66,1.84-13.75,5.52-18.27s8.72-6.78,15.12-6.78,10.58,2.44,13.51,7.31h.18v-6.25h7.22v41.46ZM720.18,147.59v-6.65c0-3.58-1.21-6.65-3.63-9.2s-5.44-3.83-9.05-3.83c-4.46,0-7.95,1.62-10.48,4.86-2.52,3.24-3.79,7.78-3.79,13.62,0,5.02,1.21,9.03,3.63,12.04s5.63,4.51,9.62,4.51,7.34-1.44,9.88-4.31c2.54-2.88,3.81-6.56,3.81-11.05Z"/>
    </g>
    <g>
      <path class="cls-4" d="M29.21,36.07v56.99c0,7.15-5.79,12.94-12.94,12.94s-12.94-5.79-12.94-12.94v-58.01c3.05,4.06,7.9,6.68,13.36,6.68,4.99,0,9.47-2.19,12.52-5.66Z"/>
      <circle class="cls-3" cx="16.69" cy="16.69" r="16.69"/>
    </g>
  </g>
</svg>