<svg xmlns="http://www.w3.org/2000/svg" xmlns:xlink="http://www.w3.org/1999/xlink" width="2380" zoomAndPan="magnify" viewBox="0 0 1784.88 1784.99993" height="2380" preserveAspectRatio="xMidYMid meet" version="1.0"><defs><g/><clipPath id="f125fb572a"><path d="M 0 0.0585938 L 1784.761719 0.0585938 L 1784.761719 1784.9375 L 0 1784.9375 Z M 0 0.0585938 " clip-rule="nonzero"/></clipPath><clipPath id="0a77329a67"><path d="M 0 0.0585938 L 1784.75 0.0585938 L 1784.75 1784.8125 L 0 1784.8125 Z M 0 0.0585938 " clip-rule="nonzero"/></clipPath><radialGradient gradientTransform="matrix(1, 0, 0, 1, 0, 0.059965)" gradientUnits="userSpaceOnUse" r="2524.019059" cx="0" id="7688457972" cy="0" fx="0" fy="0"><stop stop-opacity="1" stop-color="rgb(10.935974%, 10.935974%, 29.293823%)" offset="0"/><stop stop-opacity="1" stop-color="rgb(10.829163%, 10.829163%, 29.006958%)" offset="0.0078125"/><stop stop-opacity="1" stop-color="rgb(10.699463%, 10.699463%, 28.662109%)" offset="0.0195312"/><stop stop-opacity="1" stop-color="rgb(10.571289%, 10.571289%, 28.317261%)" offset="0.03125"/><stop stop-opacity="1" stop-color="rgb(10.443115%, 10.443115%, 27.972412%)" offset="0.0429688"/><stop stop-opacity="1" stop-color="rgb(10.314941%, 10.314941%, 27.629089%)" offset="0.0546875"/><stop stop-opacity="1" stop-color="rgb(10.185242%, 10.185242%, 27.284241%)" offset="0.0664062"/><stop stop-opacity="1" stop-color="rgb(10.057068%, 10.057068%, 26.939392%)" offset="0.078125"/><stop stop-opacity="1" stop-color="rgb(9.928894%, 9.928894%, 26.594543%)" offset="0.0898438"/><stop stop-opacity="1" stop-color="rgb(9.799194%, 9.799194%, 26.249695%)" offset="0.101562"/><stop stop-opacity="1" stop-color="rgb(9.671021%, 9.671021%, 25.904846%)" offset="0.113281"/><stop stop-opacity="1" stop-color="rgb(9.542847%, 9.542847%, 25.559998%)" offset="0.125"/><stop stop-opacity="1" stop-color="rgb(9.413147%, 9.413147%, 25.216675%)" offset="0.136719"/><stop stop-opacity="1" stop-color="rgb(9.284973%, 9.284973%, 24.871826%)" offset="0.148438"/><stop stop-opacity="1" stop-color="rgb(9.156799%, 9.156799%, 24.526978%)" offset="0.160156"/><stop stop-opacity="1" stop-color="rgb(9.0271%, 9.0271%, 24.182129%)" offset="0.171875"/><stop stop-opacity="1" stop-color="rgb(8.898926%, 8.898926%, 23.83728%)" offset="0.183594"/><stop stop-opacity="1" stop-color="rgb(8.770752%, 8.770752%, 23.492432%)" offset="0.195312"/><stop stop-opacity="1" stop-color="rgb(8.641052%, 8.641052%, 23.147583%)" offset="0.207031"/><stop stop-opacity="1" stop-color="rgb(8.512878%, 8.512878%, 22.802734%)" offset="0.21875"/><stop stop-opacity="1" stop-color="rgb(8.384705%, 8.384705%, 22.459412%)" offset="0.230469"/><stop stop-opacity="1" stop-color="rgb(8.255005%, 8.255005%, 22.114563%)" offset="0.242188"/><stop stop-opacity="1" stop-color="rgb(8.148193%, 8.148193%, 21.826172%)" offset="0.253906"/><stop stop-opacity="1" stop-color="rgb(8.062744%, 8.062744%, 21.59729%)" offset="0.261719"/><stop stop-opacity="1" stop-color="rgb(7.977295%, 7.977295%, 21.366882%)" offset="0.269531"/><stop stop-opacity="1" stop-color="rgb(7.89032%, 7.89032%, 21.136475%)" offset="0.277344"/><stop stop-opacity="1" stop-color="rgb(7.804871%, 7.804871%, 20.907593%)" offset="0.285156"/><stop stop-opacity="1" stop-color="rgb(7.719421%, 7.719421%, 20.677185%)" offset="0.292969"/><stop stop-opacity="1" stop-color="rgb(7.633972%, 7.633972%, 20.448303%)" offset="0.300781"/><stop stop-opacity="1" stop-color="rgb(7.548523%, 7.548523%, 20.217896%)" offset="0.308594"/><stop stop-opacity="1" stop-color="rgb(7.461548%, 7.461548%, 19.989014%)" offset="0.316406"/><stop stop-opacity="1" stop-color="rgb(7.376099%, 7.376099%, 19.758606%)" offset="0.324219"/><stop stop-opacity="1" stop-color="rgb(7.290649%, 7.290649%, 19.528198%)" offset="0.332031"/><stop stop-opacity="1" stop-color="rgb(7.2052%, 7.2052%, 19.299316%)" offset="0.339844"/><stop stop-opacity="1" stop-color="rgb(7.118225%, 7.118225%, 19.068909%)" offset="0.347656"/><stop stop-opacity="1" stop-color="rgb(7.032776%, 7.032776%, 18.840027%)" offset="0.355469"/><stop stop-opacity="1" stop-color="rgb(6.947327%, 6.947327%, 18.609619%)" offset="0.363281"/><stop stop-opacity="1" stop-color="rgb(6.861877%, 6.861877%, 18.380737%)" offset="0.371094"/><stop stop-opacity="1" stop-color="rgb(6.776428%, 6.776428%, 18.15033%)" offset="0.378906"/><stop stop-opacity="1" stop-color="rgb(6.689453%, 6.689453%, 17.919922%)" offset="0.386719"/><stop stop-opacity="1" stop-color="rgb(6.604004%, 6.604004%, 17.69104%)" offset="0.394531"/><stop stop-opacity="1" stop-color="rgb(6.518555%, 6.518555%, 17.460632%)" offset="0.402344"/><stop stop-opacity="1" stop-color="rgb(6.433105%, 6.433105%, 17.23175%)" offset="0.410156"/><stop stop-opacity="1" stop-color="rgb(6.34613%, 6.34613%, 17.001343%)" offset="0.417969"/><stop stop-opacity="1" stop-color="rgb(6.260681%, 6.260681%, 16.770935%)" offset="0.425781"/><stop stop-opacity="1" stop-color="rgb(6.175232%, 6.175232%, 16.542053%)" offset="0.433594"/><stop stop-opacity="1" stop-color="rgb(6.089783%, 6.089783%, 16.311646%)" offset="0.441406"/><stop stop-opacity="1" stop-color="rgb(6.004333%, 6.004333%, 16.082764%)" offset="0.449219"/><stop stop-opacity="1" stop-color="rgb(5.917358%, 5.917358%, 15.852356%)" offset="0.457031"/><stop stop-opacity="1" stop-color="rgb(5.831909%, 5.831909%, 15.623474%)" offset="0.464844"/><stop stop-opacity="1" stop-color="rgb(5.74646%, 5.74646%, 15.393066%)" offset="0.472656"/><stop stop-opacity="1" stop-color="rgb(5.661011%, 5.661011%, 15.162659%)" offset="0.480469"/><stop stop-opacity="1" stop-color="rgb(5.575562%, 5.575562%, 14.933777%)" offset="0.488281"/><stop stop-opacity="1" stop-color="rgb(5.488586%, 5.488586%, 14.703369%)" offset="0.496094"/><stop stop-opacity="1" stop-color="rgb(5.381775%, 5.381775%, 14.416504%)" offset="0.503906"/><stop stop-opacity="1" stop-color="rgb(5.253601%, 5.253601%, 14.071655%)" offset="0.515625"/><stop stop-opacity="1" stop-color="rgb(5.123901%, 5.123901%, 13.728333%)" offset="0.527344"/><stop stop-opacity="1" stop-color="rgb(4.995728%, 4.995728%, 13.383484%)" offset="0.539062"/><stop stop-opacity="1" stop-color="rgb(4.867554%, 4.867554%, 13.038635%)" offset="0.550781"/><stop stop-opacity="1" stop-color="rgb(4.737854%, 4.737854%, 12.693787%)" offset="0.5625"/><stop stop-opacity="1" stop-color="rgb(4.60968%, 4.60968%, 12.348938%)" offset="0.574219"/><stop stop-opacity="1" stop-color="rgb(4.481506%, 4.481506%, 12.004089%)" offset="0.585938"/><stop stop-opacity="1" stop-color="rgb(4.351807%, 4.351807%, 11.659241%)" offset="0.597656"/><stop stop-opacity="1" stop-color="rgb(4.223633%, 4.223633%, 11.314392%)" offset="0.609375"/><stop stop-opacity="1" stop-color="rgb(4.095459%, 4.095459%, 10.971069%)" offset="0.621094"/><stop stop-opacity="1" stop-color="rgb(3.988647%, 3.988647%, 10.682678%)" offset="0.632812"/><stop stop-opacity="1" stop-color="rgb(3.901672%, 3.901672%, 10.453796%)" offset="0.640625"/><stop stop-opacity="1" stop-color="rgb(3.816223%, 3.816223%, 10.223389%)" offset="0.648438"/><stop stop-opacity="1" stop-color="rgb(3.730774%, 3.730774%, 9.992981%)" offset="0.65625"/><stop stop-opacity="1" stop-color="rgb(3.645325%, 3.645325%, 9.764099%)" offset="0.664062"/><stop stop-opacity="1" stop-color="rgb(3.55835%, 3.55835%, 9.533691%)" offset="0.671875"/><stop stop-opacity="1" stop-color="rgb(3.4729%, 3.4729%, 9.30481%)" offset="0.679688"/><stop stop-opacity="1" stop-color="rgb(3.387451%, 3.387451%, 9.074402%)" offset="0.6875"/><stop stop-opacity="1" stop-color="rgb(3.302002%, 3.302002%, 8.84552%)" offset="0.695312"/><stop stop-opacity="1" stop-color="rgb(3.216553%, 3.216553%, 8.615112%)" offset="0.703125"/><stop stop-opacity="1" stop-color="rgb(3.129578%, 3.129578%, 8.384705%)" offset="0.710938"/><stop stop-opacity="1" stop-color="rgb(3.044128%, 3.044128%, 8.155823%)" offset="0.71875"/><stop stop-opacity="1" stop-color="rgb(2.958679%, 2.958679%, 7.925415%)" offset="0.726562"/><stop stop-opacity="1" stop-color="rgb(2.87323%, 2.87323%, 7.696533%)" offset="0.734375"/><stop stop-opacity="1" stop-color="rgb(2.786255%, 2.786255%, 7.466125%)" offset="0.742188"/><stop stop-opacity="1" stop-color="rgb(2.700806%, 2.700806%, 7.235718%)" offset="0.75"/><stop stop-opacity="1" stop-color="rgb(2.593994%, 2.593994%, 6.948853%)" offset="0.757812"/><stop stop-opacity="1" stop-color="rgb(2.46582%, 2.46582%, 6.60553%)" offset="0.769531"/><stop stop-opacity="1" stop-color="rgb(2.336121%, 2.336121%, 6.260681%)" offset="0.78125"/><stop stop-opacity="1" stop-color="rgb(2.207947%, 2.207947%, 5.915833%)" offset="0.792969"/><stop stop-opacity="1" stop-color="rgb(2.079773%, 2.079773%, 5.570984%)" offset="0.804688"/><stop stop-opacity="1" stop-color="rgb(1.971436%, 1.971436%, 5.284119%)" offset="0.816406"/><stop stop-opacity="1" stop-color="rgb(1.885986%, 1.885986%, 5.053711%)" offset="0.824219"/><stop stop-opacity="1" stop-color="rgb(1.800537%, 1.800537%, 4.823303%)" offset="0.832031"/><stop stop-opacity="1" stop-color="rgb(1.715088%, 1.715088%, 4.594421%)" offset="0.839844"/><stop stop-opacity="1" stop-color="rgb(1.629639%, 1.629639%, 4.364014%)" offset="0.847656"/><stop stop-opacity="1" stop-color="rgb(1.542664%, 1.542664%, 4.135132%)" offset="0.855469"/><stop stop-opacity="1" stop-color="rgb(1.457214%, 1.457214%, 3.904724%)" offset="0.863281"/><stop stop-opacity="1" stop-color="rgb(1.371765%, 1.371765%, 3.674316%)" offset="0.871094"/><stop stop-opacity="1" stop-color="rgb(1.264954%, 1.264954%, 3.387451%)" offset="0.878906"/><stop stop-opacity="1" stop-color="rgb(1.135254%, 1.135254%, 3.044128%)" offset="0.890625"/><stop stop-opacity="1" stop-color="rgb(1.00708%, 1.00708%, 2.69928%)" offset="0.902344"/><stop stop-opacity="1" stop-color="rgb(0.900269%, 0.900269%, 2.410889%)" offset="0.914062"/><stop stop-opacity="1" stop-color="rgb(0.813293%, 0.813293%, 2.182007%)" offset="0.921875"/><stop stop-opacity="1" stop-color="rgb(0.727844%, 0.727844%, 1.951599%)" offset="0.929688"/><stop stop-opacity="1" stop-color="rgb(0.642395%, 0.642395%, 1.722717%)" offset="0.9375"/><stop stop-opacity="1" stop-color="rgb(0.535583%, 0.535583%, 1.435852%)" offset="0.945312"/><stop stop-opacity="1" stop-color="rgb(0.427246%, 0.427246%, 1.147461%)" offset="0.957031"/><stop stop-opacity="1" stop-color="rgb(0.341797%, 0.341797%, 0.918579%)" offset="0.964844"/><stop stop-opacity="1" stop-color="rgb(0.234985%, 0.234985%, 0.631714%)" offset="0.972656"/><stop stop-opacity="1" stop-color="rgb(0.128174%, 0.128174%, 0.343323%)" offset="0.984375"/><stop stop-opacity="1" stop-color="rgb(0.0427246%, 0.0427246%, 0.114441%)" offset="0.992188"/><stop stop-opacity="1" stop-color="rgb(0%, 0%, 0%)" offset="1"/></radialGradient><clipPath id="81a33cd28a"><path d="M 571 467 L 752 467 L 752 596.15625 L 571 596.15625 Z M 571 467 " clip-rule="nonzero"/></clipPath><clipPath id="d1095535b9"><path d="M 376 329.921875 L 424 329.921875 L 424 377 L 376 377 Z M 376 329.921875 " clip-rule="nonzero"/></clipPath><clipPath id="bb519dcf28"><path d="M 423.511719 353.375 C 423.511719 354.140625 423.472656 354.90625 423.398438 355.671875 C 423.320312 356.4375 423.210938 357.195312 423.058594 357.949219 C 422.910156 358.703125 422.722656 359.445312 422.5 360.179688 C 422.277344 360.917969 422.019531 361.636719 421.726562 362.347656 C 421.433594 363.058594 421.105469 363.75 420.746094 364.429688 C 420.382812 365.105469 419.988281 365.765625 419.5625 366.402344 C 419.136719 367.039062 418.679688 367.65625 418.191406 368.25 C 417.707031 368.84375 417.191406 369.414062 416.648438 369.957031 C 416.105469 370.5 415.539062 371.015625 414.945312 371.5 C 414.351562 371.988281 413.738281 372.445312 413.101562 372.871094 C 412.460938 373.300781 411.804688 373.695312 411.128906 374.054688 C 410.453125 374.417969 409.757812 374.746094 409.050781 375.039062 C 408.339844 375.332031 407.621094 375.589844 406.886719 375.816406 C 406.152344 376.039062 405.410156 376.222656 404.65625 376.375 C 403.902344 376.523438 403.144531 376.636719 402.382812 376.710938 C 401.617188 376.785156 400.851562 376.824219 400.085938 376.824219 C 399.320312 376.824219 398.554688 376.785156 397.789062 376.710938 C 397.027344 376.636719 396.269531 376.523438 395.515625 376.375 C 394.765625 376.222656 394.019531 376.039062 393.285156 375.816406 C 392.550781 375.589844 391.832031 375.332031 391.121094 375.039062 C 390.414062 374.746094 389.722656 374.417969 389.042969 374.054688 C 388.367188 373.695312 387.710938 373.300781 387.074219 372.871094 C 386.433594 372.445312 385.820312 371.988281 385.226562 371.5 C 384.632812 371.015625 384.066406 370.5 383.523438 369.957031 C 382.980469 369.414062 382.464844 368.84375 381.980469 368.25 C 381.492188 367.65625 381.035156 367.039062 380.609375 366.402344 C 380.183594 365.765625 379.789062 365.105469 379.429688 364.429688 C 379.066406 363.75 378.738281 363.058594 378.445312 362.347656 C 378.152344 361.636719 377.894531 360.917969 377.671875 360.179688 C 377.449219 359.445312 377.261719 358.703125 377.113281 357.949219 C 376.960938 357.195312 376.851562 356.4375 376.773438 355.671875 C 376.699219 354.90625 376.664062 354.140625 376.664062 353.375 C 376.664062 352.605469 376.699219 351.839844 376.773438 351.074219 C 376.851562 350.3125 376.960938 349.550781 377.113281 348.800781 C 377.261719 348.046875 377.449219 347.300781 377.671875 346.566406 C 377.894531 345.832031 378.152344 345.109375 378.445312 344.398438 C 378.738281 343.691406 379.066406 342.996094 379.429688 342.320312 C 379.789062 341.640625 380.183594 340.984375 380.609375 340.34375 C 381.035156 339.707031 381.492188 339.089844 381.980469 338.496094 C 382.464844 337.902344 382.980469 337.335938 383.523438 336.792969 C 384.066406 336.25 384.632812 335.734375 385.226562 335.246094 C 385.820312 334.757812 386.433594 334.300781 387.074219 333.875 C 387.710938 333.449219 388.367188 333.054688 389.042969 332.691406 C 389.722656 332.332031 390.414062 332.003906 391.121094 331.707031 C 391.832031 331.414062 392.550781 331.15625 393.285156 330.933594 C 394.019531 330.710938 394.765625 330.523438 395.515625 330.375 C 396.269531 330.222656 397.027344 330.113281 397.789062 330.035156 C 398.554688 329.960938 399.320312 329.921875 400.085938 329.921875 C 400.851562 329.921875 401.617188 329.960938 402.382812 330.035156 C 403.144531 330.113281 403.902344 330.222656 404.65625 330.375 C 405.410156 330.523438 406.152344 330.710938 406.886719 330.933594 C 407.621094 331.15625 408.339844 331.414062 409.050781 331.707031 C 409.757812 332.003906 410.453125 332.332031 411.128906 332.691406 C 411.804688 333.054688 412.460938 333.449219 413.101562 333.875 C 413.738281 334.300781 414.351562 334.757812 414.945312 335.246094 C 415.539062 335.734375 416.105469 336.25 416.648438 336.792969 C 417.191406 337.335938 417.707031 337.902344 418.191406 338.496094 C 418.679688 339.089844 419.136719 339.707031 419.5625 340.34375 C 419.988281 340.984375 420.382812 341.640625 420.746094 342.320312 C 421.105469 342.996094 421.433594 343.691406 421.726562 344.398438 C 422.019531 345.109375 422.277344 345.832031 422.5 346.566406 C 422.722656 347.300781 422.910156 348.046875 423.058594 348.800781 C 423.210938 349.550781 423.320312 350.3125 423.398438 351.074219 C 423.472656 351.839844 423.511719 352.605469 423.511719 353.375 Z M 423.511719 353.375 " clip-rule="nonzero"/></clipPath><clipPath id="682867c29c"><rect x="0" width="869" y="0" height="362"/></clipPath><clipPath id="d80f12bb83"><path d="M 375.199219 1098.777344 L 896 1098.777344 L 896 1105.527344 L 375.199219 1105.527344 Z M 375.199219 1098.777344 " clip-rule="nonzero"/></clipPath><clipPath id="25a9ea9abb"><path d="M 889 1098.777344 L 1409.378906 1098.777344 L 1409.378906 1105.527344 L 889 1105.527344 Z M 889 1098.777344 " clip-rule="nonzero"/></clipPath></defs><g clip-path="url(#f125fb572a)"><path fill="#ffffff" d="M 0 0.0585938 L 1784.878906 0.0585938 L 1784.878906 1784.941406 L 0 1784.941406 Z M 0 0.0585938 " fill-opacity="1" fill-rule="nonzero"/></g><g clip-path="url(#0a77329a67)"><path fill="url(#7688457972)" d="M 0 0.0585938 L 0 1784.8125 L 1784.75 1784.8125 L 1784.75 0.0585938 Z M 0 0.0585938 " fill-rule="nonzero"/></g><path fill="#eb72ac" d="M 534.242188 410.433594 C 534.242188 425.609375 539.128906 437.945312 548.894531 447.457031 C 553.121094 451.574219 557.976562 454.792969 563.476562 457.136719 C 564.25 457.476562 565.023438 457.769531 565.808594 458.066406 C 567.183594 462.886719 569.371094 467.070312 571.984375 470.261719 C 572.136719 470.457031 572.277344 470.625 572.445312 470.808594 C 572.53125 470.90625 572.628906 471.007812 572.710938 471.105469 C 572.882812 471.300781 573.0625 471.484375 573.230469 471.667969 C 573.511719 471.960938 573.792969 472.242188 574.089844 472.523438 C 574.214844 472.664062 574.367188 472.789062 574.507812 472.917969 C 574.566406 472.972656 574.621094 473 574.664062 473.058594 C 574.816406 473.210938 574.972656 473.324219 575.140625 473.464844 C 575.226562 473.535156 575.296875 473.589844 575.367188 473.660156 C 575.519531 473.773438 575.660156 473.886719 575.800781 473.984375 C 576.09375 474.210938 576.417969 474.433594 576.710938 474.632812 C 576.921875 474.773438 577.132812 474.914062 577.359375 475.039062 C 577.554688 475.164062 577.75 475.261719 577.933594 475.375 C 578.425781 475.628906 578.917969 475.855469 579.394531 476.0625 C 581.640625 476.976562 583.941406 477.175781 586.171875 476.570312 C 586.675781 476.429688 587.167969 476.246094 587.632812 476.035156 C 587.632812 476.007812 587.617188 475.980469 587.605469 475.953125 C 587.40625 475.472656 587.085938 475.054688 586.675781 474.714844 L 586.621094 474.660156 C 586.496094 474.546875 586.355469 474.433594 586.171875 474.335938 C 586.128906 474.308594 586.085938 474.28125 586.046875 474.265625 C 585.917969 474.320312 585.777344 474.351562 585.640625 474.390625 C 583.96875 474.871094 582.226562 474.742188 580.515625 474.125 C 579.941406 473.914062 579.363281 473.648438 578.789062 473.339844 C 578.691406 473.28125 578.59375 473.238281 578.496094 473.183594 C 578.226562 473.03125 577.976562 472.875 577.722656 472.691406 C 577.359375 472.4375 576.980469 472.171875 576.613281 471.863281 C 576.347656 471.636719 576.109375 471.425781 575.84375 471.1875 C 575.644531 471.019531 575.464844 470.835938 575.28125 470.640625 C 575.070312 470.445312 574.875 470.234375 574.664062 470.007812 C 574.664062 470.007812 574.664062 470.007812 574.664062 469.996094 C 574.46875 469.785156 574.257812 469.558594 574.074219 469.335938 C 573.878906 469.109375 573.679688 468.855469 573.484375 468.617188 C 573.132812 468.167969 572.796875 467.691406 572.445312 467.199219 C 570.832031 464.867188 569.457031 462.082031 568.402344 458.949219 C 569.175781 459.191406 569.960938 459.414062 570.761719 459.625 C 576.09375 461.03125 581.933594 461.734375 588.261719 461.734375 C 589.5 461.734375 590.691406 461.703125 591.882812 461.648438 C 592.472656 457.769531 592.25 453.359375 591.195312 448.960938 C 589.949219 443.746094 587.6875 439.195312 585.019531 436.046875 C 580.601562 435.65625 576.851562 434.460938 573.765625 432.410156 C 573.175781 432.03125 572.613281 431.609375 572.066406 431.160156 C 572.9375 430.46875 573.90625 429.976562 574.945312 429.683594 C 579.253906 428.488281 583.953125 431.128906 587.644531 436.175781 C 590.03125 439.421875 591.980469 443.648438 593.132812 448.484375 C 594.242188 453.089844 594.453125 457.585938 593.933594 461.535156 C 593.75 462.886719 593.484375 464.148438 593.132812 465.34375 C 592.980469 465.863281 592.808594 466.371094 592.628906 466.847656 C 593.386719 466.820312 594.144531 466.789062 594.914062 466.761719 C 595.070312 466.269531 595.238281 465.765625 595.363281 465.246094 C 595.703125 463.996094 595.941406 462.6875 596.121094 461.324219 C 596.640625 457.207031 596.402344 452.585938 595.28125 447.894531 C 594.214844 443.398438 592.460938 439.390625 590.296875 436.132812 C 588.222656 433 585.75 430.527344 583.140625 428.996094 C 580.304688 427.324219 577.300781 426.734375 574.425781 427.535156 C 572.980469 427.941406 571.644531 428.671875 570.46875 429.667969 C 570.171875 429.375 569.890625 429.050781 569.609375 428.714844 C 569.457031 428.515625 569.289062 428.335938 569.132812 428.136719 C 565.261719 423.261719 563.324219 417.359375 563.324219 410.460938 C 563.324219 403.5625 565.457031 397.492188 569.710938 392.308594 C 573.960938 387.109375 580.136719 384.523438 588.25 384.523438 C 596.359375 384.523438 602.339844 387.109375 606.578125 392.308594 C 610.832031 397.492188 612.964844 403.550781 612.964844 410.460938 C 612.964844 417.375 610.875 423.417969 606.675781 428.53125 C 603.265625 432.71875 598.535156 435.191406 592.515625 435.949219 C 594.578125 439.28125 596.191406 443.1875 597.203125 447.457031 C 598.3125 452.066406 598.621094 456.773438 598.144531 461.113281 C 609.945312 459.539062 619.699219 455.003906 627.40625 447.5 C 637.175781 437.988281 642.058594 425.652344 642.058594 410.476562 C 642.058594 395.300781 637.105469 383.078125 627.210938 373.355469 C 617.316406 363.644531 604.320312 358.796875 588.234375 358.796875 C 572.152344 358.796875 558.957031 363.644531 549.050781 373.355469 C 539.15625 383.078125 534.203125 395.441406 534.203125 410.476562 Z M 534.242188 410.433594 " fill-opacity="1" fill-rule="nonzero"/><g clip-path="url(#81a33cd28a)"><path fill="#00b8e5" d="M 572.558594 475.785156 C 581.820312 493.851562 605.792969 540.136719 608.9375 541.988281 L 704.035156 595.003906 C 707.949219 597.320312 713.046875 596 715.359375 592.082031 L 750.390625 532.632812 C 752.695312 528.710938 751.386719 523.613281 747.472656 521.292969 L 652.375 468.28125 C 649.972656 466.859375 619.167969 467.324219 595.671875 467.886719 C 595.183594 467.902344 594.707031 467.914062 594.226562 467.929688 C 593.511719 467.941406 592.78125 467.972656 592.082031 467.984375 C 591.574219 468 591.085938 468.011719 590.59375 468.027344 C 585.300781 468.167969 580.570312 468.308594 576.894531 468.421875 C 576.347656 468.421875 575.828125 468.535156 575.367188 468.703125 C 576.671875 470.289062 578.101562 471.554688 579.574219 472.4375 L 579.730469 472.523438 C 580.796875 473.140625 582.058594 473.367188 583.253906 473.085938 C 584.164062 472.875 585.132812 472.929688 586.046875 473.28125 C 586.296875 473.367188 586.550781 473.492188 586.804688 473.632812 C 587.042969 473.773438 587.265625 473.929688 587.464844 474.109375 C 588.011719 474.5625 588.433594 475.121094 588.726562 475.742188 C 588.921875 476.175781 589.0625 476.640625 589.132812 477.117188 C 589.316406 478.410156 588.980469 479.773438 588.050781 480.910156 C 586.761719 482.472656 584.542969 483.046875 582.648438 482.316406 C 581.21875 481.769531 580.222656 480.628906 579.785156 479.324219 C 579.421875 478.226562 578.578125 477.34375 577.570312 476.78125 C 577.441406 476.726562 577.34375 476.65625 577.21875 476.585938 C 575.40625 475.515625 573.695312 474.054688 572.136719 472.285156 C 571.871094 473.394531 571.953125 474.644531 572.558594 475.785156 Z M 618.984375 530.203125 C 605.496094 508.914062 621.804688 481.261719 646.929688 482.78125 C 646.984375 482.78125 733.832031 530.863281 733.832031 530.863281 L 705.804688 578.421875 C 705.804688 578.421875 619.011719 530.242188 618.984375 530.203125 Z M 618.984375 530.203125 " fill-opacity="1" fill-rule="nonzero"/></g><path fill="#00b8e5" d="M 718.195312 459.75 L 718.195312 406.191406 C 718.195312 395.046875 714.492188 391.339844 708.035156 391.339844 C 701.984375 391.339844 695.542969 396.226562 695.347656 406.78125 L 695.347656 459.75 L 659.617188 459.75 L 659.617188 363.179688 L 689.886719 363.179688 L 692.429688 373.535156 C 698.476562 365.132812 709.03125 361.03125 718.980469 361.214844 C 728.75 361.410156 738.125 365.90625 742.996094 374.898438 C 750.996094 364.921875 761.746094 361.015625 775.023438 361.015625 C 795.921875 361.015625 811.933594 373.917969 811.933594 405.980469 L 811.933594 459.738281 L 776.003906 459.738281 L 776.003906 406.175781 C 776.003906 396.019531 771.316406 391.902344 766.039062 391.902344 C 759.992188 391.902344 753.550781 396.003906 753.550781 406.554688 L 753.550781 459.722656 L 718.210938 459.722656 Z M 718.195312 459.75 " fill-opacity="1" fill-rule="nonzero"/><path fill="#00b8e5" d="M 890.414062 459.75 L 890.414062 406.191406 C 890.414062 395.046875 886.710938 391.339844 880.253906 391.339844 C 874.207031 391.339844 867.765625 396.226562 867.566406 406.78125 L 867.566406 459.75 L 831.835938 459.75 L 831.835938 363.179688 L 862.109375 363.179688 L 864.648438 373.535156 C 870.695312 365.132812 881.25 361.03125 891.203125 361.214844 C 900.96875 361.410156 910.34375 365.90625 915.214844 374.898438 C 923.214844 364.921875 933.964844 361.015625 947.242188 361.015625 C 968.140625 361.015625 984.152344 373.917969 984.152344 405.980469 L 984.152344 459.738281 L 948.226562 459.738281 L 948.226562 406.175781 C 948.226562 396.019531 943.539062 391.902344 938.261719 391.902344 C 932.210938 391.902344 925.769531 396.003906 925.769531 406.554688 L 925.769531 459.722656 L 890.429688 459.722656 Z M 890.414062 459.75 " fill-opacity="1" fill-rule="nonzero"/><path fill="#00b8e5" d="M 1102.480469 421.632812 L 1035.113281 421.632812 C 1037.652344 430.230469 1048.78125 433.953125 1056.585938 433.953125 C 1067.125 433.953125 1075.140625 430.820312 1081.386719 426.128906 L 1098.957031 445.871094 C 1087.433594 456.617188 1071.617188 461.902344 1055.015625 461.902344 C 1024.558594 461.902344 998.777344 446.851562 998.777344 411.65625 C 998.777344 376.460938 1026.3125 360.835938 1052.472656 360.835938 C 1086.648438 360.835938 1110.660156 383.511719 1102.464844 421.632812 Z M 1070.257812 398.5625 C 1069.273438 383.316406 1037.652344 382.726562 1035.296875 398.5625 Z M 1070.257812 398.5625 " fill-opacity="1" fill-rule="nonzero"/><path fill="#00b8e5" d="M 1151.476562 363.179688 L 1153.621094 373.734375 C 1158.703125 364.742188 1167.683594 360.835938 1177.058594 360.835938 C 1186.433594 360.835938 1196.203125 364.542969 1202.449219 371.191406 L 1187.992188 397.183594 C 1182.140625 392.492188 1177.847656 391.324219 1171.785156 391.324219 C 1162.800781 391.324219 1155.179688 396.804688 1155.179688 409.507812 L 1155.179688 459.75 L 1119.25 459.75 L 1119.25 363.179688 Z M 1151.476562 363.179688 " fill-opacity="1" fill-rule="nonzero"/><path fill="#00b8e5" d="M 1298.125 445.292969 C 1286.601562 455.648438 1272.734375 461.71875 1258.292969 461.71875 C 1230.167969 461.71875 1203.613281 447.835938 1203.613281 411.671875 C 1203.613281 375.503906 1230.558594 361.046875 1257.703125 361.046875 C 1271.570312 361.046875 1285.4375 365.933594 1295.582031 376.09375 L 1276.453125 396.820312 C 1271.765625 391.929688 1266.292969 389.777344 1259.851562 389.777344 C 1246.179688 389.777344 1238.757812 399.753906 1238.757812 411.867188 C 1238.757812 422.417969 1245.984375 431.804688 1259.652344 431.804688 C 1266.292969 431.804688 1272.734375 429.066406 1277.617188 423.796875 Z M 1298.125 445.292969 " fill-opacity="1" fill-rule="nonzero"/><path fill="#00b8e5" d="M 1406.300781 421.632812 L 1338.9375 421.632812 C 1341.476562 430.230469 1352.605469 433.953125 1360.410156 433.953125 C 1370.949219 433.953125 1378.964844 430.820312 1385.207031 426.128906 L 1402.78125 445.871094 C 1391.257812 456.617188 1375.441406 461.902344 1358.835938 461.902344 C 1328.382812 461.902344 1302.601562 446.851562 1302.601562 411.65625 C 1302.601562 376.460938 1330.136719 360.835938 1356.296875 360.835938 C 1390.472656 360.835938 1414.484375 383.511719 1406.289062 421.632812 Z M 1374.078125 398.5625 C 1373.097656 383.316406 1341.476562 382.726562 1339.117188 398.5625 Z M 1374.078125 398.5625 " fill-opacity="1" fill-rule="nonzero"/><path fill="#00b8e5" d="M 527.3125 445.292969 C 515.789062 455.648438 501.921875 461.71875 487.480469 461.71875 C 459.355469 461.71875 432.800781 447.835938 432.800781 411.671875 C 432.800781 375.503906 459.746094 361.046875 486.890625 361.046875 C 500.757812 361.046875 514.625 365.933594 524.769531 376.09375 L 505.640625 396.820312 C 500.953125 391.929688 495.480469 389.777344 489.039062 389.777344 C 475.367188 389.777344 467.945312 399.753906 467.945312 411.867188 C 467.945312 422.417969 475.171875 431.804688 488.839844 431.804688 C 495.480469 431.804688 501.921875 429.066406 506.804688 423.796875 Z M 527.3125 445.292969 " fill-opacity="1" fill-rule="nonzero"/><path fill="#ffffff" d="M 818.460938 563.65625 L 818.460938 552.765625 C 823.976562 556.855469 830.050781 558.894531 836.675781 558.894531 C 845.574219 558.894531 850.023438 555.929688 850.023438 549.984375 C 850.023438 548.300781 849.644531 546.867188 848.886719 545.683594 C 848.128906 544.503906 847.089844 543.464844 845.800781 542.566406 C 844.507812 541.667969 842.980469 540.851562 841.222656 540.121094 C 839.46875 539.40625 837.589844 538.644531 835.566406 537.859375 C 832.761719 536.75 830.304688 535.625 828.1875 534.488281 C 826.066406 533.347656 824.296875 532.070312 822.867188 530.652344 C 821.449219 529.230469 820.367188 527.617188 819.652344 525.789062 C 818.9375 523.976562 818.574219 521.855469 818.574219 519.425781 C 818.574219 516.460938 819.246094 513.832031 820.605469 511.542969 C 821.96875 509.253906 823.777344 507.339844 826.039062 505.796875 C 828.296875 504.25 830.894531 503.082031 833.785156 502.296875 C 836.691406 501.511719 839.679688 501.117188 842.769531 501.117188 C 848.242188 501.117188 853.140625 502.070312 857.476562 503.96875 L 857.476562 514.238281 C 852.816406 511.191406 847.46875 509.660156 841.421875 509.660156 C 839.527344 509.660156 837.8125 509.871094 836.296875 510.304688 C 834.769531 510.742188 833.464844 511.34375 832.382812 512.132812 C 831.289062 512.917969 830.445312 513.859375 829.855469 514.941406 C 829.253906 516.039062 828.957031 517.246094 828.957031 518.566406 C 828.957031 520.210938 829.253906 521.601562 829.855469 522.710938 C 830.460938 523.824219 831.328125 524.820312 832.480469 525.675781 C 833.632812 526.546875 835.035156 527.320312 836.675781 528.023438 C 838.320312 528.726562 840.199219 529.484375 842.304688 530.3125 C 845.113281 531.382812 847.625 532.492188 849.839844 533.617188 C 852.058594 534.753906 853.953125 536.03125 855.527344 537.453125 C 857.082031 538.871094 858.289062 540.515625 859.148438 542.371094 C 859.988281 544.222656 860.410156 546.429688 860.410156 548.988281 C 860.410156 552.121094 859.722656 554.847656 858.347656 557.152344 C 856.972656 559.457031 855.117188 561.378906 852.816406 562.898438 C 850.515625 564.429688 847.847656 565.554688 844.84375 566.296875 C 841.839844 567.042969 838.683594 567.40625 835.398438 567.40625 C 828.886719 567.40625 823.246094 566.144531 818.472656 563.628906 Z M 818.460938 563.65625 " fill-opacity="1" fill-rule="nonzero"/><path fill="#ffffff" d="M 938.609375 565.933594 L 928.476562 565.933594 L 928.476562 529.441406 C 928.476562 516.25 923.578125 509.644531 913.769531 509.644531 C 908.828125 509.644531 904.660156 511.554688 901.292969 515.363281 C 897.910156 519.171875 896.226562 524.074219 896.226562 530.046875 L 896.226562 565.917969 L 886.09375 565.917969 L 886.09375 472.160156 L 896.226562 472.160156 L 896.226562 513.101562 L 896.480469 513.101562 C 901.335938 505.105469 908.253906 501.101562 917.234375 501.101562 C 931.480469 501.101562 938.609375 509.703125 938.609375 526.898438 Z M 938.609375 565.933594 " fill-opacity="1" fill-rule="nonzero"/><path fill="#ffffff" d="M 994.257812 567.421875 C 984.910156 567.421875 977.445312 564.457031 971.859375 558.542969 C 966.273438 552.625 963.496094 544.785156 963.496094 535.007812 C 963.496094 524.371094 966.398438 516.066406 972.210938 510.082031 C 978.019531 504.09375 985.867188 501.117188 995.746094 501.117188 C 1005.625 501.117188 1012.53125 504.023438 1017.835938 509.84375 C 1023.140625 515.660156 1025.78125 523.722656 1025.78125 534.023438 C 1025.78125 544.324219 1022.929688 552.21875 1017.21875 558.304688 C 1011.507812 564.386719 1003.859375 567.421875 994.273438 567.421875 Z M 995.003906 509.660156 C 988.488281 509.660156 983.351562 511.878906 979.5625 516.304688 C 975.773438 520.730469 973.878906 526.84375 973.878906 534.640625 C 973.878906 542.441406 975.789062 548.058594 979.621094 552.386719 C 983.453125 556.714844 988.574219 558.878906 995.003906 558.878906 C 1001.429688 558.878906 1006.582031 556.757812 1010.105469 552.515625 C 1013.625 548.269531 1015.378906 542.230469 1015.378906 534.390625 C 1015.378906 526.546875 1013.625 520.367188 1010.105469 516.082031 C 1006.582031 511.796875 1001.542969 509.644531 995.003906 509.644531 Z M 995.003906 509.660156 " fill-opacity="1" fill-rule="nonzero"/><path fill="#ffffff" d="M 1062.453125 556.785156 L 1062.199219 556.785156 L 1062.199219 595.074219 L 1052.066406 595.074219 L 1052.066406 502.621094 L 1062.199219 502.621094 L 1062.199219 513.75 L 1062.453125 513.75 C 1067.433594 505.332031 1074.71875 501.128906 1084.320312 501.128906 C 1092.472656 501.128906 1098.832031 503.96875 1103.40625 509.632812 C 1107.980469 515.308594 1110.269531 522.894531 1110.269531 532.421875 C 1110.269531 543.015625 1107.699219 551.503906 1102.550781 557.867188 C 1097.398438 564.230469 1090.355469 567.421875 1081.429688 567.421875 C 1073.230469 567.421875 1066.917969 563.882812 1062.46875 556.785156 Z M 1062.199219 531.242188 L 1062.199219 540.078125 C 1062.199219 545.320312 1063.898438 549.761719 1067.292969 553.414062 C 1070.691406 557.066406 1075 558.894531 1080.234375 558.894531 C 1086.367188 558.894531 1091.183594 556.546875 1094.664062 551.839844 C 1098.144531 547.148438 1099.882812 540.597656 1099.882812 532.238281 C 1099.882812 525.183594 1098.253906 519.664062 1095 515.660156 C 1091.742188 511.65625 1087.335938 509.660156 1081.777344 509.660156 C 1075.882812 509.660156 1071.15625 511.710938 1067.574219 515.8125 C 1063.996094 519.917969 1062.199219 525.058594 1062.199219 531.242188 Z M 1062.199219 531.242188 " fill-opacity="1" fill-rule="nonzero"/><path fill="#ffffff" d="M 1146.957031 556.785156 L 1146.703125 556.785156 L 1146.703125 595.074219 L 1136.570312 595.074219 L 1136.570312 502.621094 L 1146.703125 502.621094 L 1146.703125 513.75 L 1146.957031 513.75 C 1151.9375 505.332031 1159.222656 501.128906 1168.820312 501.128906 C 1176.976562 501.128906 1183.332031 503.96875 1187.910156 509.632812 C 1192.484375 515.308594 1194.773438 522.894531 1194.773438 532.421875 C 1194.773438 543.015625 1192.203125 551.503906 1187.054688 557.867188 C 1181.902344 564.230469 1174.855469 567.421875 1165.929688 567.421875 C 1157.734375 567.421875 1151.417969 563.882812 1146.96875 556.785156 Z M 1146.703125 531.242188 L 1146.703125 540.078125 C 1146.703125 545.320312 1148.402344 549.761719 1151.796875 553.414062 C 1155.195312 557.066406 1159.515625 558.894531 1164.738281 558.894531 C 1170.871094 558.894531 1175.683594 556.546875 1179.164062 551.839844 C 1182.644531 547.148438 1184.386719 540.597656 1184.386719 532.238281 C 1184.386719 525.183594 1182.757812 519.664062 1179.503906 515.660156 C 1176.246094 511.65625 1171.839844 509.660156 1166.28125 509.660156 C 1160.386719 509.660156 1155.65625 511.710938 1152.078125 515.8125 C 1148.5 519.917969 1146.703125 525.058594 1146.703125 531.242188 Z M 1146.703125 531.242188 " fill-opacity="1" fill-rule="nonzero"/><path fill="#ffffff" d="M 1226.265625 486.53125 C 1224.457031 486.53125 1222.910156 485.914062 1221.632812 484.675781 C 1220.355469 483.441406 1219.726562 481.867188 1219.726562 479.96875 C 1219.726562 478.074219 1220.371094 476.5 1221.632812 475.234375 C 1222.910156 473.984375 1224.457031 473.351562 1226.265625 473.351562 C 1228.074219 473.351562 1229.691406 473.984375 1230.996094 475.234375 C 1232.285156 476.5 1232.945312 478.074219 1232.945312 479.96875 C 1232.945312 481.867188 1232.300781 483.328125 1230.996094 484.605469 C 1229.703125 485.886719 1228.117188 486.519531 1226.265625 486.519531 Z M 1231.207031 565.933594 L 1221.074219 565.933594 L 1221.074219 502.605469 L 1231.207031 502.605469 Z M 1231.207031 565.933594 " fill-opacity="1" fill-rule="nonzero"/><path fill="#ffffff" d="M 1314.347656 565.933594 L 1304.214844 565.933594 L 1304.214844 529.808594 C 1304.214844 516.363281 1299.316406 509.644531 1289.507812 509.644531 C 1284.441406 509.644531 1280.242188 511.554688 1276.929688 515.363281 C 1273.617188 519.171875 1271.960938 523.992188 1271.960938 529.808594 L 1271.960938 565.933594 L 1261.828125 565.933594 L 1261.828125 502.605469 L 1271.960938 502.605469 L 1271.960938 513.117188 L 1272.214844 513.117188 C 1276.988281 505.121094 1283.90625 501.117188 1292.972656 501.117188 C 1299.890625 501.117188 1305.183594 503.351562 1308.847656 507.832031 C 1312.507812 512.300781 1314.347656 518.765625 1314.347656 527.222656 Z M 1314.347656 565.933594 " fill-opacity="1" fill-rule="nonzero"/><path fill="#ffffff" d="M 1397.546875 560.875 C 1397.546875 584.128906 1386.429688 595.761719 1364.183594 595.761719 C 1356.351562 595.761719 1349.519531 594.273438 1343.679688 591.308594 L 1343.679688 581.164062 C 1350.808594 585.125 1357.601562 587.105469 1364.074219 587.105469 C 1379.636719 587.105469 1387.425781 578.816406 1387.425781 562.25 L 1387.425781 555.324219 L 1387.171875 555.324219 C 1382.359375 563.402344 1375.105469 567.449219 1365.433594 567.449219 C 1357.574219 567.449219 1351.230469 564.640625 1346.429688 559.003906 C 1341.632812 553.386719 1339.230469 545.824219 1339.230469 536.339844 C 1339.230469 525.578125 1341.8125 517.023438 1346.976562 510.671875 C 1352.144531 504.320312 1359.214844 501.144531 1368.199219 501.144531 C 1377.179688 501.144531 1383.046875 504.574219 1387.160156 511.414062 L 1387.410156 511.414062 L 1387.410156 502.632812 L 1397.546875 502.632812 L 1397.546875 560.886719 Z M 1387.410156 537.296875 L 1387.410156 527.953125 C 1387.410156 522.921875 1385.714844 518.609375 1382.316406 515.027344 C 1378.921875 511.445312 1374.683594 509.644531 1369.617188 509.644531 C 1363.355469 509.644531 1358.457031 511.921875 1354.90625 516.472656 C 1351.371094 521.027344 1349.589844 527.40625 1349.589844 535.609375 C 1349.589844 542.664062 1351.285156 548.300781 1354.683594 552.527344 C 1358.078125 556.757812 1362.585938 558.863281 1368.183594 558.863281 C 1373.785156 558.863281 1378.484375 556.839844 1382.050781 552.808594 C 1385.617188 548.761719 1387.398438 543.59375 1387.398438 537.28125 Z M 1387.410156 537.296875 " fill-opacity="1" fill-rule="nonzero"/><path fill="#00b8e5" d="M 417.65625 380.605469 L 417.65625 460.679688 C 417.65625 470.726562 409.53125 478.859375 399.496094 478.859375 C 389.460938 478.859375 381.335938 470.726562 381.335938 460.679688 L 381.335938 379.171875 C 385.617188 384.875 392.421875 388.558594 400.085938 388.558594 C 407.089844 388.558594 413.378906 385.480469 417.65625 380.605469 Z M 417.65625 380.605469 " fill-opacity="1" fill-rule="nonzero"/><g clip-path="url(#d1095535b9)"><g clip-path="url(#bb519dcf28)"><path fill="#ff7bac" d="M 376.664062 329.921875 L 376.664062 376.824219 L 423.511719 376.824219 L 423.511719 329.921875 Z M 376.664062 329.921875 " fill-opacity="1" fill-rule="nonzero"/></g></g><g transform="matrix(1, 0, 0, 1, 458, 764)"><g clip-path="url(#682867c29c)"><g fill="#ffffff" fill-opacity="1"><g transform="translate(0.652885, 283.564092)"><g><path d="M 61.734375 0 L 24.484375 0 L 24.484375 -188.421875 L 61.734375 -188.421875 Z M 61.734375 0 "/></g></g></g><g fill="#ffffff" fill-opacity="1"><g transform="translate(86.999078, 283.564092)"><g><path d="M 58.640625 0 L 24.484375 0 L 24.484375 -188.421875 L 73.203125 -188.421875 L 120.890625 -49.875 L 123.59375 -49.875 L 171.015625 -188.421875 L 218.578125 -188.421875 L 218.578125 0 L 183.265625 0 L 183.265625 -124.5 L 180.046875 -125.015625 L 136.484375 0 L 105.421875 0 L 61.859375 -125.015625 L 58.640625 -124.5 Z M 58.640625 0 "/></g></g></g><g fill="#ffffff" fill-opacity="1"><g transform="translate(330.186055, 283.564092)"><g><path d="M 180.8125 0 L 141.640625 0 L 127.453125 -43.4375 L 55.28125 -43.4375 L 41.109375 0 L 2.828125 0 L 67.921875 -188.421875 L 115.734375 -188.421875 Z M 89.5625 -149.109375 L 65.34375 -74.75 L 117.140625 -74.75 L 92.796875 -149.109375 Z M 89.5625 -149.109375 "/></g></g></g><g fill="#ffffff" fill-opacity="1"><g transform="translate(509.579909, 283.564092)"><g><path d="M 91.5 2.703125 C 75.78125 2.703125 62.179688 -0.878906 50.703125 -8.046875 C 39.234375 -15.222656 30.382812 -26.050781 24.15625 -40.53125 C 17.9375 -55.007812 14.828125 -72.898438 14.828125 -94.203125 C 14.828125 -115.679688 18.5625 -133.660156 26.03125 -148.140625 C 33.507812 -162.617188 43.882812 -173.398438 57.15625 -180.484375 C 70.425781 -187.578125 85.828125 -191.125 103.359375 -191.125 C 121.398438 -191.125 136.773438 -187.769531 149.484375 -181.0625 C 162.203125 -174.363281 171.140625 -164.398438 176.296875 -151.171875 L 149.109375 -134.671875 L 145.890625 -134.796875 C 142.023438 -143.222656 136.585938 -149.367188 129.578125 -153.234375 C 122.578125 -157.097656 113.835938 -159.03125 103.359375 -159.03125 C 87.117188 -159.03125 74.703125 -153.894531 66.109375 -143.625 C 57.515625 -133.363281 53.21875 -116.890625 53.21875 -94.203125 C 53.21875 -71.441406 57.234375 -54.90625 65.265625 -44.59375 C 73.304688 -34.28125 85.1875 -29.125 100.90625 -29.125 C 114.476562 -29.125 124.488281 -32.171875 130.9375 -38.265625 C 137.382812 -44.367188 140.609375 -53.476562 140.609375 -65.59375 L 140.609375 -73.71875 L 96.015625 -73.71875 L 96.015625 -104 L 177.59375 -104 L 177.59375 0 L 142.015625 0 L 142.015625 -25.265625 L 139.3125 -25.640625 C 135.445312 -16.617188 129.582031 -9.640625 121.71875 -4.703125 C 113.863281 0.234375 103.789062 2.703125 91.5 2.703125 Z M 91.5 2.703125 "/></g></g></g><g fill="#ffffff" fill-opacity="1"><g transform="translate(706.11414, 283.564092)"><g><path d="M 61.734375 -82.734375 L 61.734375 -31.1875 L 151.6875 -31.1875 L 151.6875 0 L 24.484375 0 L 24.484375 -188.421875 L 149.625 -188.421875 L 149.625 -157.234375 L 61.734375 -157.234375 L 61.734375 -113.15625 L 138.546875 -113.15625 L 138.546875 -82.734375 Z M 61.734375 -82.734375 "/></g></g></g></g></g><g clip-path="url(#d80f12bb83)"><path fill="#ffffff" d="M 895.703125 1105.140625 L 375.566406 1102.011719 L 375.199219 1101.785156 L 375.566406 1102.003906 L 895.703125 1098.875 Z M 895.703125 1105.140625 " fill-opacity="1" fill-rule="nonzero"/></g><g clip-path="url(#25a9ea9abb)"><path fill="#ffffff" d="M 889.066406 1098.875 L 1409.203125 1102.003906 L 1409.570312 1101.785156 L 1409.203125 1102.011719 L 889.066406 1105.140625 Z M 889.066406 1098.875 " fill-opacity="1" fill-rule="nonzero"/></g><g fill="#ffffff" fill-opacity="1"><g transform="translate(458.652897, 1221.506203)"><g><path d="M 43.6875 1.140625 C 36.320312 1.140625 29.832031 -0.382812 24.21875 -3.4375 C 18.601562 -6.5 14.207031 -11.101562 11.03125 -17.25 C 7.863281 -23.394531 6.28125 -30.96875 6.28125 -39.96875 C 6.28125 -48.976562 7.863281 -56.550781 11.03125 -62.6875 C 14.207031 -68.832031 18.601562 -73.4375 24.21875 -76.5 C 29.832031 -79.5625 36.320312 -81.09375 43.6875 -81.09375 C 51.382812 -81.09375 57.921875 -79.585938 63.296875 -76.578125 C 68.671875 -73.566406 72.503906 -68.984375 74.796875 -62.828125 L 63.265625 -55.78125 L 61.890625 -55.828125 C 60.179688 -59.984375 57.859375 -62.960938 54.921875 -64.765625 C 51.992188 -66.566406 48.25 -67.46875 43.6875 -67.46875 C 37.050781 -67.46875 31.875 -65.269531 28.15625 -60.875 C 24.4375 -56.488281 22.578125 -49.519531 22.578125 -39.96875 C 22.578125 -30.457031 24.4375 -23.503906 28.15625 -19.109375 C 31.875 -14.710938 37.050781 -12.515625 43.6875 -12.515625 C 54.070312 -12.515625 60.429688 -17.566406 62.765625 -27.671875 L 64.140625 -27.671875 L 75.78125 -21.59375 C 73.59375 -14.007812 69.851562 -8.320312 64.5625 -4.53125 C 59.28125 -0.75 52.320312 1.140625 43.6875 1.140625 Z M 43.6875 1.140625 "/></g></g></g><g fill="#ffffff" fill-opacity="1"><g transform="translate(536.137152, 1221.506203)"><g><path d="M 43.578125 1.140625 C 36.253906 1.140625 29.789062 -0.347656 24.1875 -3.328125 C 18.59375 -6.316406 14.207031 -10.882812 11.03125 -17.03125 C 7.863281 -23.175781 6.28125 -30.820312 6.28125 -39.96875 C 6.28125 -49.125 7.863281 -56.769531 11.03125 -62.90625 C 14.207031 -69.050781 18.59375 -73.617188 24.1875 -76.609375 C 29.789062 -79.597656 36.253906 -81.09375 43.578125 -81.09375 C 50.910156 -81.09375 57.363281 -79.601562 62.9375 -76.625 C 68.507812 -73.65625 72.875 -69.09375 76.03125 -62.9375 C 79.1875 -56.78125 80.765625 -49.125 80.765625 -39.96875 C 80.765625 -30.820312 79.1875 -23.164062 76.03125 -17 C 72.875 -10.84375 68.507812 -6.28125 62.9375 -3.3125 C 57.363281 -0.34375 50.910156 1.140625 43.578125 1.140625 Z M 43.578125 -12.578125 C 50.359375 -12.578125 55.535156 -14.753906 59.109375 -19.109375 C 62.679688 -23.460938 64.46875 -30.414062 64.46875 -39.96875 C 64.46875 -49.519531 62.679688 -56.484375 59.109375 -60.859375 C 55.535156 -65.234375 50.359375 -67.421875 43.578125 -67.421875 C 36.765625 -67.421875 31.5625 -65.234375 27.96875 -60.859375 C 24.375 -56.484375 22.578125 -49.519531 22.578125 -39.96875 C 22.578125 -30.414062 24.375 -23.460938 27.96875 -19.109375 C 31.5625 -14.753906 36.765625 -12.578125 43.578125 -12.578125 Z M 43.578125 -12.578125 "/></g></g></g><g fill="#ffffff" fill-opacity="1"><g transform="translate(623.245446, 1221.506203)"><g><path d="M 24.875 0 L 10.390625 0 L 10.390625 -79.9375 L 31.0625 -79.9375 L 51.296875 -21.15625 L 52.4375 -21.15625 L 72.5625 -79.9375 L 92.734375 -79.9375 L 92.734375 0 L 77.75 0 L 77.75 -52.828125 L 76.390625 -53.046875 L 57.90625 0 L 44.734375 0 L 26.25 -53.046875 L 24.875 -52.828125 Z M 24.875 0 "/></g></g></g><g fill="#ffffff" fill-opacity="1"><g transform="translate(726.430224, 1221.506203)"><g><path d="M 26.1875 0 L 10.390625 0 L 10.390625 -79.9375 L 26.1875 -79.9375 Z M 26.1875 0 "/></g></g></g><g fill="#ffffff" fill-opacity="1"><g transform="translate(763.067095, 1221.506203)"><g><path d="M 25.703125 0 L 10.390625 0 L 10.390625 -79.9375 L 28.484375 -79.9375 L 60.578125 -28.4375 L 62 -28.65625 L 62 -79.9375 L 77.203125 -79.9375 L 77.203125 0 L 61.015625 0 L 27.0625 -55.015625 L 25.703125 -54.796875 Z M 25.703125 0 "/></g></g></g><g fill="#ffffff" fill-opacity="1"><g transform="translate(850.72221, 1221.506203)"><g><path d="M 38.828125 1.140625 C 32.148438 1.140625 26.378906 -0.378906 21.515625 -3.421875 C 16.648438 -6.460938 12.894531 -11.050781 10.25 -17.1875 C 7.601562 -23.332031 6.28125 -30.925781 6.28125 -39.96875 C 6.28125 -49.082031 7.863281 -56.707031 11.03125 -62.84375 C 14.207031 -68.988281 18.613281 -73.566406 24.25 -76.578125 C 29.882812 -79.585938 36.421875 -81.09375 43.859375 -81.09375 C 51.515625 -81.09375 58.035156 -79.671875 63.421875 -76.828125 C 68.816406 -73.984375 72.609375 -69.753906 74.796875 -64.140625 L 63.265625 -57.140625 L 61.890625 -57.1875 C 60.253906 -60.757812 57.953125 -63.363281 54.984375 -65 C 52.015625 -66.644531 48.304688 -67.46875 43.859375 -67.46875 C 36.960938 -67.46875 31.691406 -65.289062 28.046875 -60.9375 C 24.398438 -56.582031 22.578125 -49.59375 22.578125 -39.96875 C 22.578125 -30.3125 24.28125 -23.296875 27.6875 -18.921875 C 31.101562 -14.546875 36.144531 -12.359375 42.8125 -12.359375 C 48.570312 -12.359375 52.816406 -13.648438 55.546875 -16.234375 C 58.285156 -18.828125 59.65625 -22.691406 59.65625 -27.828125 L 59.65625 -31.28125 L 40.734375 -31.28125 L 40.734375 -44.125 L 75.34375 -44.125 L 75.34375 0 L 60.25 0 L 60.25 -10.71875 L 59.109375 -10.875 C 57.460938 -7.050781 54.972656 -4.09375 51.640625 -2 C 48.304688 0.09375 44.035156 1.140625 38.828125 1.140625 Z M 38.828125 1.140625 "/></g></g></g><g fill="#ffffff" fill-opacity="1"><g transform="translate(934.112123, 1221.506203)"><g/></g></g><g fill="#ffffff" fill-opacity="1"><g transform="translate(960.523493, 1221.506203)"><g><path d="M 35.4375 1.140625 C 29.894531 1.140625 24.960938 0.457031 20.640625 -0.90625 C 16.316406 -2.269531 12.710938 -4.0625 9.828125 -6.28125 C 6.953125 -8.507812 4.75 -10.953125 3.21875 -13.609375 L 11.921875 -24.21875 L 13.28125 -24.21875 C 15.6875 -20.644531 18.738281 -17.800781 22.4375 -15.6875 C 26.144531 -13.570312 30.476562 -12.515625 35.4375 -12.515625 C 39.664062 -12.515625 42.851562 -13.40625 45 -15.1875 C 47.15625 -16.976562 48.234375 -19.441406 48.234375 -22.578125 C 48.234375 -24.472656 47.882812 -26.054688 47.1875 -27.328125 C 46.5 -28.609375 45.351562 -29.703125 43.75 -30.609375 C 42.144531 -31.523438 39.972656 -32.3125 37.234375 -32.96875 L 26.953125 -35.328125 C 19.773438 -36.960938 14.425781 -39.6875 10.90625 -43.5 C 7.382812 -47.3125 5.625 -52.257812 5.625 -58.34375 C 5.625 -62.863281 6.753906 -66.835938 9.015625 -70.265625 C 11.273438 -73.691406 14.566406 -76.351562 18.890625 -78.25 C 23.210938 -80.144531 28.378906 -81.09375 34.390625 -81.09375 C 40.554688 -81.09375 45.832031 -80.28125 50.21875 -78.65625 C 54.613281 -77.03125 58.320312 -74.539062 61.34375 -71.1875 L 53.53125 -60.46875 L 52.171875 -60.46875 C 49.910156 -62.84375 47.320312 -64.617188 44.40625 -65.796875 C 41.488281 -66.984375 38.148438 -67.578125 34.390625 -67.578125 C 30.054688 -67.578125 26.757812 -66.8125 24.5 -65.28125 C 22.238281 -63.75 21.109375 -61.632812 21.109375 -58.9375 C 21.109375 -56.425781 21.898438 -54.421875 23.484375 -52.921875 C 25.066406 -51.429688 27.8125 -50.269531 31.71875 -49.4375 L 42.21875 -47.25 C 49.976562 -45.601562 55.609375 -42.820312 59.109375 -38.90625 C 62.609375 -34.988281 64.359375 -29.875 64.359375 -23.5625 C 64.359375 -18.570312 63.28125 -14.222656 61.125 -10.515625 C 58.976562 -6.816406 55.734375 -3.945312 51.390625 -1.90625 C 47.054688 0.125 41.738281 1.140625 35.4375 1.140625 Z M 35.4375 1.140625 "/></g></g></g><g fill="#ffffff" fill-opacity="1"><g transform="translate(1029.204023, 1221.506203)"><g><path d="M 43.578125 1.140625 C 36.253906 1.140625 29.789062 -0.347656 24.1875 -3.328125 C 18.59375 -6.316406 14.207031 -10.882812 11.03125 -17.03125 C 7.863281 -23.175781 6.28125 -30.820312 6.28125 -39.96875 C 6.28125 -49.125 7.863281 -56.769531 11.03125 -62.90625 C 14.207031 -69.050781 18.59375 -73.617188 24.1875 -76.609375 C 29.789062 -79.597656 36.253906 -81.09375 43.578125 -81.09375 C 50.910156 -81.09375 57.363281 -79.601562 62.9375 -76.625 C 68.507812 -73.65625 72.875 -69.09375 76.03125 -62.9375 C 79.1875 -56.78125 80.765625 -49.125 80.765625 -39.96875 C 80.765625 -30.820312 79.1875 -23.164062 76.03125 -17 C 72.875 -10.84375 68.507812 -6.28125 62.9375 -3.3125 C 57.363281 -0.34375 50.910156 1.140625 43.578125 1.140625 Z M 43.578125 -12.578125 C 50.359375 -12.578125 55.535156 -14.753906 59.109375 -19.109375 C 62.679688 -23.460938 64.46875 -30.414062 64.46875 -39.96875 C 64.46875 -49.519531 62.679688 -56.484375 59.109375 -60.859375 C 55.535156 -65.234375 50.359375 -67.421875 43.578125 -67.421875 C 36.765625 -67.421875 31.5625 -65.234375 27.96875 -60.859375 C 24.375 -56.484375 22.578125 -49.519531 22.578125 -39.96875 C 22.578125 -30.414062 24.375 -23.460938 27.96875 -19.109375 C 31.5625 -14.753906 36.765625 -12.578125 43.578125 -12.578125 Z M 43.578125 -12.578125 "/></g></g></g><g fill="#ffffff" fill-opacity="1"><g transform="translate(1116.312283, 1221.506203)"><g><path d="M 43.578125 1.140625 C 36.253906 1.140625 29.789062 -0.347656 24.1875 -3.328125 C 18.59375 -6.316406 14.207031 -10.882812 11.03125 -17.03125 C 7.863281 -23.175781 6.28125 -30.820312 6.28125 -39.96875 C 6.28125 -49.125 7.863281 -56.769531 11.03125 -62.90625 C 14.207031 -69.050781 18.59375 -73.617188 24.1875 -76.609375 C 29.789062 -79.597656 36.253906 -81.09375 43.578125 -81.09375 C 50.910156 -81.09375 57.363281 -79.601562 62.9375 -76.625 C 68.507812 -73.65625 72.875 -69.09375 76.03125 -62.9375 C 79.1875 -56.78125 80.765625 -49.125 80.765625 -39.96875 C 80.765625 -30.820312 79.1875 -23.164062 76.03125 -17 C 72.875 -10.84375 68.507812 -6.28125 62.9375 -3.3125 C 57.363281 -0.34375 50.910156 1.140625 43.578125 1.140625 Z M 43.578125 -12.578125 C 50.359375 -12.578125 55.535156 -14.753906 59.109375 -19.109375 C 62.679688 -23.460938 64.46875 -30.414062 64.46875 -39.96875 C 64.46875 -49.519531 62.679688 -56.484375 59.109375 -60.859375 C 55.535156 -65.234375 50.359375 -67.421875 43.578125 -67.421875 C 36.765625 -67.421875 31.5625 -65.234375 27.96875 -60.859375 C 24.375 -56.484375 22.578125 -49.519531 22.578125 -39.96875 C 22.578125 -30.414062 24.375 -23.460938 27.96875 -19.109375 C 31.5625 -14.753906 36.765625 -12.578125 43.578125 -12.578125 Z M 43.578125 -12.578125 "/></g></g></g><g fill="#ffffff" fill-opacity="1"><g transform="translate(1203.42059, 1221.506203)"><g><path d="M 25.703125 0 L 10.390625 0 L 10.390625 -79.9375 L 28.484375 -79.9375 L 60.578125 -28.4375 L 62 -28.65625 L 62 -79.9375 L 77.203125 -79.9375 L 77.203125 0 L 61.015625 0 L 27.0625 -55.015625 L 25.703125 -54.796875 Z M 25.703125 0 "/></g></g></g><g fill="#ffffff" fill-opacity="1"><g transform="translate(1291.075658, 1221.506203)"><g><path d="M 24.390625 -26.515625 L 10.71875 -26.515625 L 9.625 -79.9375 L 25.484375 -79.9375 Z M 17.546875 0.546875 C 15.648438 0.546875 13.984375 0.164062 12.546875 -0.59375 C 11.109375 -1.363281 9.992188 -2.421875 9.203125 -3.765625 C 8.421875 -5.117188 8.03125 -6.632812 8.03125 -8.3125 C 8.03125 -10.019531 8.421875 -11.554688 9.203125 -12.921875 C 9.992188 -14.296875 11.109375 -15.363281 12.546875 -16.125 C 13.984375 -16.894531 15.648438 -17.28125 17.546875 -17.28125 C 20.390625 -17.28125 22.675781 -16.441406 24.40625 -14.765625 C 26.144531 -13.085938 27.015625 -10.953125 27.015625 -8.359375 C 27.015625 -5.773438 26.144531 -3.644531 24.40625 -1.96875 C 22.675781 -0.289062 20.390625 0.546875 17.546875 0.546875 Z M 17.546875 0.546875 "/></g></g></g></svg>