<svg xmlns="http://www.w3.org/2000/svg" xmlns:xlink="http://www.w3.org/1999/xlink" width="2380" zoomAndPan="magnify" viewBox="0 0 1784.88 1784.99993" height="2380" preserveAspectRatio="xMidYMid meet" version="1.0"><defs><g/><clipPath id="e7857e34ef"><path d="M 0 0.0585938 L 1784.761719 0.0585938 L 1784.761719 1784.9375 L 0 1784.9375 Z M 0 0.0585938 " clip-rule="nonzero"/></clipPath><clipPath id="c83f2bde57"><path d="M 0 0.0585938 L 1784.75 0.0585938 L 1784.75 1784.8125 L 0 1784.8125 Z M 0 0.0585938 " clip-rule="nonzero"/></clipPath><radialGradient gradientTransform="matrix(1, 0, 0, 1, 0, 0.059965)" gradientUnits="userSpaceOnUse" r="2524.019059" cx="0" id="3ff614c652" cy="0" fx="0" fy="0"><stop stop-opacity="1" stop-color="rgb(99.891663%, 99.891663%, 99.891663%)" offset="0"/><stop stop-opacity="1" stop-color="rgb(99.597168%, 99.597168%, 99.597168%)" offset="0.015625"/><stop stop-opacity="1" stop-color="rgb(99.221802%, 99.221802%, 99.221802%)" offset="0.0429688"/><stop stop-opacity="1" stop-color="rgb(98.846436%, 98.846436%, 98.846436%)" offset="0.0703125"/><stop stop-opacity="1" stop-color="rgb(98.471069%, 98.471069%, 98.471069%)" offset="0.0976562"/><stop stop-opacity="1" stop-color="rgb(98.095703%, 98.095703%, 98.095703%)" offset="0.125"/><stop stop-opacity="1" stop-color="rgb(97.746277%, 97.746277%, 97.746277%)" offset="0.152344"/><stop stop-opacity="1" stop-color="rgb(97.424316%, 97.424316%, 97.424316%)" offset="0.175781"/><stop stop-opacity="1" stop-color="rgb(97.102356%, 97.102356%, 97.102356%)" offset="0.199219"/><stop stop-opacity="1" stop-color="rgb(96.780396%, 96.780396%, 96.780396%)" offset="0.222656"/><stop stop-opacity="1" stop-color="rgb(96.458435%, 96.458435%, 96.458435%)" offset="0.246094"/><stop stop-opacity="1" stop-color="rgb(96.16394%, 96.16394%, 96.16394%)" offset="0.269531"/><stop stop-opacity="1" stop-color="rgb(95.895386%, 95.895386%, 95.895386%)" offset="0.289062"/><stop stop-opacity="1" stop-color="rgb(95.628357%, 95.628357%, 95.628357%)" offset="0.308594"/><stop stop-opacity="1" stop-color="rgb(95.359802%, 95.359802%, 95.359802%)" offset="0.328125"/><stop stop-opacity="1" stop-color="rgb(95.091248%, 95.091248%, 95.091248%)" offset="0.347656"/><stop stop-opacity="1" stop-color="rgb(94.824219%, 94.824219%, 94.824219%)" offset="0.367188"/><stop stop-opacity="1" stop-color="rgb(94.581604%, 94.581604%, 94.581604%)" offset="0.386719"/><stop stop-opacity="1" stop-color="rgb(94.367981%, 94.367981%, 94.367981%)" offset="0.402344"/><stop stop-opacity="1" stop-color="rgb(94.152832%, 94.152832%, 94.152832%)" offset="0.417969"/><stop stop-opacity="1" stop-color="rgb(93.937683%, 93.937683%, 93.937683%)" offset="0.433594"/><stop stop-opacity="1" stop-color="rgb(93.72406%, 93.72406%, 93.72406%)" offset="0.449219"/><stop stop-opacity="1" stop-color="rgb(93.508911%, 93.508911%, 93.508911%)" offset="0.464844"/><stop stop-opacity="1" stop-color="rgb(93.295288%, 93.295288%, 93.295288%)" offset="0.480469"/><stop stop-opacity="1" stop-color="rgb(93.080139%, 93.080139%, 93.080139%)" offset="0.496094"/><stop stop-opacity="1" stop-color="rgb(92.785645%, 92.785645%, 92.785645%)" offset="0.511719"/><stop stop-opacity="1" stop-color="rgb(92.410278%, 92.410278%, 92.410278%)" offset="0.539062"/><stop stop-opacity="1" stop-color="rgb(92.060852%, 92.060852%, 92.060852%)" offset="0.566406"/><stop stop-opacity="1" stop-color="rgb(91.738892%, 91.738892%, 91.738892%)" offset="0.589844"/><stop stop-opacity="1" stop-color="rgb(91.416931%, 91.416931%, 91.416931%)" offset="0.613281"/><stop stop-opacity="1" stop-color="rgb(91.122437%, 91.122437%, 91.122437%)" offset="0.636719"/><stop stop-opacity="1" stop-color="rgb(90.855408%, 90.855408%, 90.855408%)" offset="0.65625"/><stop stop-opacity="1" stop-color="rgb(90.586853%, 90.586853%, 90.586853%)" offset="0.675781"/><stop stop-opacity="1" stop-color="rgb(90.344238%, 90.344238%, 90.344238%)" offset="0.695312"/><stop stop-opacity="1" stop-color="rgb(90.130615%, 90.130615%, 90.130615%)" offset="0.710938"/><stop stop-opacity="1" stop-color="rgb(89.915466%, 89.915466%, 89.915466%)" offset="0.726562"/><stop stop-opacity="1" stop-color="rgb(89.701843%, 89.701843%, 89.701843%)" offset="0.742188"/><stop stop-opacity="1" stop-color="rgb(89.407349%, 89.407349%, 89.407349%)" offset="0.757812"/><stop stop-opacity="1" stop-color="rgb(89.057922%, 89.057922%, 89.057922%)" offset="0.785156"/><stop stop-opacity="1" stop-color="rgb(88.735962%, 88.735962%, 88.735962%)" offset="0.808594"/><stop stop-opacity="1" stop-color="rgb(88.441467%, 88.441467%, 88.441467%)" offset="0.832031"/><stop stop-opacity="1" stop-color="rgb(88.198853%, 88.198853%, 88.198853%)" offset="0.851562"/><stop stop-opacity="1" stop-color="rgb(87.985229%, 87.985229%, 87.985229%)" offset="0.867188"/><stop stop-opacity="1" stop-color="rgb(87.690735%, 87.690735%, 87.690735%)" offset="0.882812"/><stop stop-opacity="1" stop-color="rgb(87.368774%, 87.368774%, 87.368774%)" offset="0.910156"/><stop stop-opacity="1" stop-color="rgb(87.12616%, 87.12616%, 87.12616%)" offset="0.929688"/><stop stop-opacity="1" stop-color="rgb(86.831665%, 86.831665%, 86.831665%)" offset="0.945312"/><stop stop-opacity="1" stop-color="rgb(86.456299%, 86.456299%, 86.456299%)" offset="0.972656"/><stop stop-opacity="1" stop-color="rgb(86.268616%, 86.268616%, 86.268616%)" offset="1"/></radialGradient><clipPath id="f776487c13"><path d="M 571 590 L 752 590 L 752 719.269531 L 571 719.269531 Z M 571 590 " clip-rule="nonzero"/></clipPath><clipPath id="b93f81d236"><path d="M 375 453.035156 L 423 453.035156 L 423 500 L 375 500 Z M 375 453.035156 " clip-rule="nonzero"/></clipPath><clipPath id="343bc49fed"><rect x="0" width="869" y="0" height="362"/></clipPath><clipPath id="46511cf9cc"><path d="M 311.019531 1172.027344 L 897 1172.027344 L 897 1179.527344 L 311.019531 1179.527344 Z M 311.019531 1172.027344 " clip-rule="nonzero"/></clipPath><clipPath id="2143e1c3e5"><path d="M 888 1172.027344 L 1473.441406 1172.027344 L 1473.441406 1179.527344 L 888 1179.527344 Z M 888 1172.027344 " clip-rule="nonzero"/></clipPath></defs><g clip-path="url(#e7857e34ef)"><path fill="#ffffff" d="M 0 0.0585938 L 1784.878906 0.0585938 L 1784.878906 1784.941406 L 0 1784.941406 Z M 0 0.0585938 " fill-opacity="1" fill-rule="nonzero"/></g><g clip-path="url(#c83f2bde57)"><path fill="url(#3ff614c652)" d="M 0 0.0585938 L 0 1784.8125 L 1784.75 1784.8125 L 1784.75 0.0585938 Z M 0 0.0585938 " fill-rule="nonzero"/></g><path fill="#b11e92" d="M 533.539062 533.546875 C 533.539062 548.722656 538.433594 561.058594 548.222656 570.570312 C 552.457031 574.6875 557.324219 577.90625 562.835938 580.25 C 563.609375 580.589844 564.382812 580.882812 565.171875 581.179688 C 566.550781 585.996094 568.746094 590.183594 571.359375 593.375 C 571.515625 593.570312 571.65625 593.738281 571.824219 593.921875 C 571.910156 594.019531 572.007812 594.117188 572.089844 594.21875 C 572.261719 594.414062 572.441406 594.597656 572.613281 594.777344 C 572.894531 595.074219 573.175781 595.355469 573.46875 595.636719 C 573.597656 595.777344 573.75 595.902344 573.890625 596.03125 C 573.949219 596.085938 574.003906 596.113281 574.046875 596.171875 C 574.203125 596.324219 574.355469 596.4375 574.523438 596.578125 C 574.609375 596.648438 574.679688 596.703125 574.75 596.773438 C 574.90625 596.886719 575.046875 597 575.1875 597.097656 C 575.480469 597.324219 575.804688 597.546875 576.101562 597.742188 C 576.3125 597.882812 576.523438 598.023438 576.746094 598.152344 C 576.945312 598.277344 577.140625 598.375 577.324219 598.488281 C 577.816406 598.742188 578.308594 598.964844 578.785156 599.175781 C 581.035156 600.089844 583.34375 600.285156 585.578125 599.683594 C 586.085938 599.542969 586.578125 599.359375 587.042969 599.148438 C 587.042969 599.121094 587.027344 599.09375 587.015625 599.066406 C 586.816406 598.585938 586.492188 598.164062 586.085938 597.828125 L 586.03125 597.773438 C 585.902344 597.660156 585.761719 597.546875 585.578125 597.449219 C 585.539062 597.421875 585.496094 597.394531 585.453125 597.378906 C 585.328125 597.433594 585.1875 597.460938 585.046875 597.503906 C 583.371094 597.984375 581.628906 597.855469 579.910156 597.238281 C 579.335938 597.027344 578.757812 596.761719 578.183594 596.453125 C 578.082031 596.394531 577.984375 596.351562 577.886719 596.296875 C 577.617188 596.140625 577.367188 595.988281 577.113281 595.804688 C 576.746094 595.550781 576.367188 595.285156 576 594.976562 C 575.734375 594.75 575.496094 594.539062 575.226562 594.300781 C 575.03125 594.132812 574.847656 593.949219 574.664062 593.753906 C 574.453125 593.558594 574.257812 593.347656 574.046875 593.121094 C 574.046875 593.121094 574.046875 593.121094 574.046875 593.105469 C 573.851562 592.894531 573.640625 592.671875 573.457031 592.445312 C 573.257812 592.222656 573.0625 591.96875 572.863281 591.730469 C 572.511719 591.28125 572.175781 590.804688 571.824219 590.3125 C 570.207031 587.980469 568.828125 585.195312 567.773438 582.0625 C 568.546875 582.300781 569.335938 582.527344 570.136719 582.738281 C 575.480469 584.144531 581.332031 584.84375 587.675781 584.84375 C 588.914062 584.84375 590.109375 584.816406 591.304688 584.761719 C 591.894531 580.882812 591.667969 576.472656 590.613281 572.074219 C 589.363281 566.859375 587.097656 562.308594 584.425781 559.160156 C 579.996094 558.765625 576.242188 557.574219 573.144531 555.523438 C 572.554688 555.140625 571.992188 554.722656 571.445312 554.269531 C 572.316406 553.582031 573.289062 553.089844 574.328125 552.796875 C 578.644531 551.601562 583.359375 554.242188 587.058594 559.289062 C 589.449219 562.53125 591.402344 566.761719 592.554688 571.59375 C 593.667969 576.203125 593.878906 580.699219 593.359375 584.648438 C 593.175781 585.996094 592.90625 587.261719 592.554688 588.457031 C 592.402344 588.976562 592.234375 589.480469 592.050781 589.960938 C 592.808594 589.933594 593.570312 589.902344 594.34375 589.875 C 594.496094 589.382812 594.664062 588.878906 594.792969 588.359375 C 595.128906 587.109375 595.367188 585.800781 595.550781 584.4375 C 596.070312 580.320312 595.832031 575.699219 594.707031 571.003906 C 593.640625 566.507812 591.882812 562.503906 589.714844 559.246094 C 587.632812 556.113281 585.15625 553.640625 582.542969 552.105469 C 579.699219 550.433594 576.691406 549.84375 573.808594 550.644531 C 572.359375 551.054688 571.023438 551.785156 569.839844 552.78125 C 569.546875 552.488281 569.265625 552.164062 568.984375 551.828125 C 568.828125 551.628906 568.660156 551.445312 568.503906 551.25 C 564.625 546.375 562.683594 540.472656 562.683594 533.574219 C 562.683594 526.675781 564.820312 520.605469 569.082031 515.421875 C 573.34375 510.222656 579.53125 507.636719 587.660156 507.636719 C 595.789062 507.636719 601.78125 510.222656 606.03125 515.421875 C 610.292969 520.605469 612.429688 526.660156 612.429688 533.574219 C 612.429688 540.488281 610.335938 546.527344 606.128906 551.644531 C 602.710938 555.832031 597.972656 558.304688 591.9375 559.0625 C 594.003906 562.390625 595.621094 566.296875 596.636719 570.570312 C 597.746094 575.179688 598.054688 579.886719 597.578125 584.226562 C 609.40625 582.652344 619.179688 578.113281 626.902344 570.613281 C 636.691406 561.101562 641.585938 548.761719 641.585938 533.589844 C 641.585938 518.414062 636.621094 506.191406 626.707031 496.464844 C 616.789062 486.757812 603.765625 481.910156 587.648438 481.910156 C 571.527344 481.910156 558.308594 486.757812 548.378906 496.464844 C 538.460938 506.191406 533.496094 518.554688 533.496094 533.589844 Z M 533.539062 533.546875 " fill-opacity="1" fill-rule="nonzero"/><g clip-path="url(#f776487c13)"><path fill="#272162" d="M 571.9375 598.894531 C 581.21875 616.964844 605.242188 663.25 608.394531 665.101562 L 703.695312 718.117188 C 707.621094 720.433594 712.726562 719.113281 715.046875 715.195312 L 750.152344 655.746094 C 752.460938 651.824219 751.152344 646.722656 747.226562 644.40625 L 651.925781 591.394531 C 649.519531 589.972656 618.644531 590.4375 595.101562 591 C 594.609375 591.011719 594.132812 591.027344 593.652344 591.042969 C 592.9375 591.054688 592.203125 591.082031 591.5 591.097656 C 590.996094 591.113281 590.503906 591.125 590.011719 591.140625 C 584.707031 591.28125 579.96875 591.421875 576.28125 591.535156 C 575.734375 591.535156 575.214844 591.644531 574.75 591.816406 C 576.058594 593.402344 577.492188 594.667969 578.96875 595.550781 L 579.125 595.636719 C 580.191406 596.253906 581.457031 596.480469 582.65625 596.199219 C 583.570312 595.988281 584.539062 596.042969 585.453125 596.394531 C 585.707031 596.480469 585.960938 596.605469 586.210938 596.746094 C 586.453125 596.886719 586.675781 597.042969 586.875 597.222656 C 587.421875 597.671875 587.84375 598.234375 588.140625 598.855469 C 588.335938 599.289062 588.476562 599.753906 588.546875 600.230469 C 588.730469 601.523438 588.394531 602.886719 587.464844 604.023438 C 586.171875 605.585938 583.949219 606.160156 582.050781 605.429688 C 580.613281 604.882812 579.617188 603.742188 579.179688 602.4375 C 578.816406 601.339844 577.972656 600.457031 576.957031 599.894531 C 576.832031 599.835938 576.734375 599.765625 576.605469 599.695312 C 574.792969 598.628906 573.078125 597.167969 571.515625 595.398438 C 571.246094 596.507812 571.332031 597.757812 571.9375 598.894531 Z M 618.464844 653.3125 C 604.945312 632.027344 621.289062 604.375 646.464844 605.894531 C 646.523438 605.894531 733.554688 653.976562 733.554688 653.976562 L 705.46875 701.535156 C 705.46875 701.535156 618.492188 653.355469 618.464844 653.3125 Z M 618.464844 653.3125 " fill-opacity="1" fill-rule="nonzero"/></g><path fill="#ffffff" d="M 733.554688 653.976562 L 705.46875 701.535156 C 705.46875 701.535156 618.492188 653.355469 618.464844 653.328125 C 604.960938 632.042969 621.289062 604.390625 646.464844 605.894531 C 646.523438 605.90625 733.542969 653.976562 733.542969 653.976562 Z M 733.554688 653.976562 " fill-opacity="1" fill-rule="nonzero"/><path fill="#27215e" d="M 717.886719 582.863281 L 717.886719 529.304688 C 717.886719 518.160156 714.175781 514.453125 707.707031 514.453125 C 701.644531 514.453125 695.1875 519.339844 694.992188 529.894531 L 694.992188 582.863281 L 659.179688 582.863281 L 659.179688 486.292969 L 689.519531 486.292969 L 692.066406 496.648438 C 698.128906 488.246094 708.703125 484.144531 718.675781 484.328125 C 728.464844 484.523438 737.859375 489.019531 742.742188 498.011719 C 750.757812 488.035156 761.53125 484.128906 774.835938 484.128906 C 795.78125 484.128906 811.828125 497.027344 811.828125 529.09375 L 811.828125 582.851562 L 775.820312 582.851562 L 775.820312 529.289062 C 775.820312 519.128906 771.125 515.011719 765.835938 515.011719 C 759.773438 515.011719 753.316406 519.117188 753.316406 529.667969 L 753.316406 582.835938 L 717.902344 582.835938 Z M 717.886719 582.863281 " fill-opacity="1" fill-rule="nonzero"/><path fill="#27215e" d="M 890.476562 582.863281 L 890.476562 529.304688 C 890.476562 518.160156 886.765625 514.453125 880.296875 514.453125 C 874.234375 514.453125 867.777344 519.339844 867.582031 529.894531 L 867.582031 582.863281 L 831.769531 582.863281 L 831.769531 486.292969 L 862.109375 486.292969 L 864.65625 496.648438 C 870.71875 488.246094 881.292969 484.144531 891.265625 484.328125 C 901.054688 484.523438 910.449219 489.019531 915.332031 498.011719 C 923.347656 488.035156 934.121094 484.128906 947.425781 484.128906 C 968.371094 484.128906 984.417969 497.027344 984.417969 529.09375 L 984.417969 582.851562 L 948.410156 582.851562 L 948.410156 529.289062 C 948.410156 519.128906 943.714844 515.011719 938.425781 515.011719 C 932.363281 515.011719 925.90625 519.117188 925.90625 529.667969 L 925.90625 582.835938 L 890.492188 582.835938 Z M 890.476562 582.863281 " fill-opacity="1" fill-rule="nonzero"/><path fill="#27215e" d="M 1103 544.746094 L 1035.488281 544.746094 C 1038.03125 553.34375 1049.1875 557.066406 1057.007812 557.066406 C 1067.570312 557.066406 1075.601562 553.933594 1081.859375 549.242188 L 1099.46875 568.980469 C 1087.921875 579.730469 1072.070312 585.015625 1055.429688 585.015625 C 1024.910156 585.015625 999.074219 569.964844 999.074219 534.769531 C 999.074219 499.570312 1026.667969 483.949219 1052.886719 483.949219 C 1087.132812 483.949219 1111.199219 506.625 1102.984375 544.746094 Z M 1070.707031 521.671875 C 1069.722656 506.429688 1038.03125 505.839844 1035.671875 521.671875 Z M 1070.707031 521.671875 " fill-opacity="1" fill-rule="nonzero"/><path fill="#27215e" d="M 1152.097656 486.292969 L 1154.25 496.847656 C 1159.34375 487.855469 1168.34375 483.949219 1177.738281 483.949219 C 1187.132812 483.949219 1196.925781 487.65625 1203.183594 494.304688 L 1188.695312 520.296875 C 1182.832031 515.605469 1178.527344 514.4375 1172.449219 514.4375 C 1163.449219 514.4375 1155.8125 519.917969 1155.8125 532.617188 L 1155.8125 582.863281 L 1119.804688 582.863281 L 1119.804688 486.292969 Z M 1152.097656 486.292969 " fill-opacity="1" fill-rule="nonzero"/><path fill="#27215e" d="M 1299.0625 568.40625 C 1287.515625 578.761719 1273.621094 584.832031 1259.148438 584.832031 C 1230.960938 584.832031 1204.351562 570.949219 1204.351562 534.78125 C 1204.351562 498.617188 1231.355469 484.160156 1258.554688 484.160156 C 1272.453125 484.160156 1286.347656 489.046875 1296.515625 499.207031 L 1277.347656 519.929688 C 1272.648438 515.042969 1267.164062 512.890625 1260.707031 512.890625 C 1247.007812 512.890625 1239.566406 522.867188 1239.566406 534.980469 C 1239.566406 545.53125 1246.8125 554.917969 1260.511719 554.917969 C 1267.164062 554.917969 1273.621094 552.175781 1278.515625 546.910156 Z M 1299.0625 568.40625 " fill-opacity="1" fill-rule="nonzero"/><path fill="#27215e" d="M 1407.476562 544.746094 L 1339.964844 544.746094 C 1342.507812 553.34375 1353.664062 557.066406 1361.484375 557.066406 C 1372.046875 557.066406 1380.078125 553.933594 1386.335938 549.242188 L 1403.945312 568.980469 C 1392.398438 579.730469 1376.546875 585.015625 1359.90625 585.015625 C 1329.386719 585.015625 1303.550781 569.964844 1303.550781 534.769531 C 1303.550781 499.570312 1331.144531 483.949219 1357.363281 483.949219 C 1391.609375 483.949219 1415.675781 506.625 1407.460938 544.746094 Z M 1375.183594 521.671875 C 1374.199219 506.429688 1342.507812 505.839844 1340.144531 521.671875 Z M 1375.183594 521.671875 " fill-opacity="1" fill-rule="nonzero"/><path fill="#27215e" d="M 526.589844 568.40625 C 515.042969 578.761719 501.148438 584.832031 486.675781 584.832031 C 458.488281 584.832031 431.878906 570.949219 431.878906 534.78125 C 431.878906 498.617188 458.882812 484.160156 486.085938 484.160156 C 499.980469 484.160156 513.878906 489.046875 524.046875 499.207031 L 504.875 519.929688 C 500.179688 515.042969 494.691406 512.890625 488.238281 512.890625 C 474.539062 512.890625 467.097656 522.867188 467.097656 534.980469 C 467.097656 545.53125 474.339844 554.917969 488.039062 554.917969 C 494.691406 554.917969 501.148438 552.175781 506.042969 546.910156 Z M 526.589844 568.40625 " fill-opacity="1" fill-rule="nonzero"/><g fill="#000000" fill-opacity="1"><g transform="translate(779.590723, 682.019783)"><g><path d="M 58.8125 -18.484375 C 58.8125 -12.179688 56.425781 -7.316406 51.65625 -3.890625 C 46.894531 -0.472656 40.222656 1.234375 31.640625 1.234375 C 23.296875 1.234375 16.863281 -0.132812 12.34375 -2.875 C 7.832031 -5.613281 4.894531 -9.890625 3.53125 -15.703125 L 13.375 -17.625 C 14.320312 -14.039062 16.28125 -11.410156 19.25 -9.734375 C 22.21875 -8.066406 26.347656 -7.234375 31.640625 -7.234375 C 37.285156 -7.234375 41.414062 -8.097656 44.03125 -9.828125 C 46.65625 -11.566406 47.96875 -14.164062 47.96875 -17.625 C 47.96875 -20.257812 47.0625 -22.398438 45.25 -24.046875 C 43.4375 -25.703125 40.507812 -27.066406 36.46875 -28.140625 L 28.46875 -30.234375 C 22.070312 -31.890625 17.519531 -33.507812 14.8125 -35.09375 C 12.113281 -36.6875 10 -38.613281 8.46875 -40.875 C 6.945312 -43.144531 6.1875 -45.929688 6.1875 -49.234375 C 6.1875 -55.328125 8.363281 -59.972656 12.71875 -63.171875 C 17.070312 -66.367188 23.414062 -67.96875 31.75 -67.96875 C 39.144531 -67.96875 45.019531 -66.664062 49.375 -64.0625 C 53.726562 -61.46875 56.484375 -57.304688 57.640625 -51.578125 L 47.609375 -50.34375 C 46.984375 -53.3125 45.316406 -55.585938 42.609375 -57.171875 C 39.910156 -58.765625 36.289062 -59.5625 31.75 -59.5625 C 26.71875 -59.5625 23.003906 -58.796875 20.609375 -57.265625 C 18.222656 -55.742188 17.03125 -53.4375 17.03125 -50.34375 C 17.03125 -48.445312 17.523438 -46.878906 18.515625 -45.640625 C 19.503906 -44.398438 20.96875 -43.347656 22.90625 -42.484375 C 24.84375 -41.617188 28.925781 -40.425781 35.15625 -38.90625 C 41.0625 -37.414062 45.3125 -36.039062 47.90625 -34.78125 C 50.507812 -33.53125 52.5625 -32.140625 54.0625 -30.609375 C 55.570312 -29.085938 56.738281 -27.328125 57.5625 -25.328125 C 58.394531 -23.328125 58.8125 -21.046875 58.8125 -18.484375 Z M 58.8125 -18.484375 "/></g></g></g><g fill="#000000" fill-opacity="1"><g transform="translate(839.935491, 682.019783)"><g><path d="M 19.625 -55.46875 C 22.019531 -59.84375 24.898438 -63.050781 28.265625 -65.09375 C 31.628906 -67.132812 35.890625 -68.15625 41.046875 -68.15625 C 48.304688 -68.15625 53.660156 -66.347656 57.109375 -62.734375 C 60.554688 -59.128906 62.28125 -53.082031 62.28125 -44.59375 L 62.28125 0 L 51.078125 0 L 51.078125 -42.421875 C 51.078125 -47.117188 50.640625 -50.613281 49.765625 -52.90625 C 48.898438 -55.195312 47.476562 -56.878906 45.5 -57.953125 C 43.519531 -59.023438 40.773438 -59.5625 37.265625 -59.5625 C 32.023438 -59.5625 27.828125 -57.742188 24.671875 -54.109375 C 21.515625 -50.484375 19.9375 -45.597656 19.9375 -39.453125 L 19.9375 0 L 8.796875 0 L 8.796875 -91.78125 L 19.9375 -91.78125 L 19.9375 -67.90625 C 19.9375 -65.382812 19.863281 -62.785156 19.71875 -60.109375 C 19.570312 -57.429688 19.476562 -55.882812 19.4375 -55.46875 Z M 19.625 -55.46875 "/></g></g></g><g fill="#000000" fill-opacity="1"><g transform="translate(920.3405, 682.019783)"><g><path d="M 65.1875 -33.515625 C 65.1875 -21.804688 62.601562 -13.085938 57.4375 -7.359375 C 52.28125 -1.628906 44.789062 1.234375 34.96875 1.234375 C 25.195312 1.234375 17.8125 -1.742188 12.8125 -7.703125 C 7.820312 -13.660156 5.328125 -22.265625 5.328125 -33.515625 C 5.328125 -56.609375 15.332031 -68.15625 35.34375 -68.15625 C 45.582031 -68.15625 53.113281 -65.335938 57.9375 -59.703125 C 62.769531 -54.078125 65.1875 -45.347656 65.1875 -33.515625 Z M 53.484375 -33.515625 C 53.484375 -42.753906 52.109375 -49.460938 49.359375 -53.640625 C 46.617188 -57.828125 42.007812 -59.921875 35.53125 -59.921875 C 29.007812 -59.921875 24.296875 -57.785156 21.390625 -53.515625 C 18.484375 -49.253906 17.03125 -42.585938 17.03125 -33.515625 C 17.03125 -24.691406 18.460938 -18.0625 21.328125 -13.625 C 24.191406 -9.195312 28.703125 -6.984375 34.859375 -6.984375 C 41.535156 -6.984375 46.304688 -9.128906 49.171875 -13.421875 C 52.046875 -17.710938 53.484375 -24.410156 53.484375 -33.515625 Z M 53.484375 -33.515625 "/></g></g></g><g fill="#000000" fill-opacity="1"><g transform="translate(999.983881, 682.019783)"><g><path d="M 65.1875 -33.765625 C 65.1875 -10.429688 56.972656 1.234375 40.546875 1.234375 C 30.234375 1.234375 23.300781 -2.640625 19.75 -10.390625 L 19.4375 -10.390625 C 19.601562 -10.054688 19.6875 -6.550781 19.6875 0.125 L 19.6875 26.28125 L 8.546875 26.28125 L 8.546875 -53.25 C 8.546875 -60.132812 8.421875 -64.691406 8.171875 -66.921875 L 18.9375 -66.921875 C 18.976562 -66.753906 19.039062 -66.164062 19.125 -65.15625 C 19.207031 -64.144531 19.300781 -62.585938 19.40625 -60.484375 C 19.507812 -58.378906 19.5625 -56.9375 19.5625 -56.15625 L 19.8125 -56.15625 C 21.789062 -60.28125 24.410156 -63.300781 27.671875 -65.21875 C 30.929688 -67.132812 35.222656 -68.09375 40.546875 -68.09375 C 48.796875 -68.09375 54.960938 -65.328125 59.046875 -59.796875 C 63.140625 -54.273438 65.1875 -45.597656 65.1875 -33.765625 Z M 53.484375 -33.515625 C 53.484375 -42.835938 52.222656 -49.5 49.703125 -53.5 C 47.191406 -57.5 43.191406 -59.5 37.703125 -59.5 C 33.285156 -59.5 29.828125 -58.566406 27.328125 -56.703125 C 24.828125 -54.847656 22.925781 -51.953125 21.625 -48.015625 C 20.332031 -44.078125 19.6875 -38.957031 19.6875 -32.65625 C 19.6875 -23.875 21.085938 -17.398438 23.890625 -13.234375 C 26.703125 -9.066406 31.265625 -6.984375 37.578125 -6.984375 C 43.109375 -6.984375 47.140625 -9.015625 49.671875 -13.078125 C 52.210938 -17.140625 53.484375 -23.953125 53.484375 -33.515625 Z M 53.484375 -33.515625 "/></g></g></g><g fill="#000000" fill-opacity="1"><g transform="translate(1081.905851, 682.019783)"><g><path d="M 65.1875 -33.765625 C 65.1875 -10.429688 56.972656 1.234375 40.546875 1.234375 C 30.234375 1.234375 23.300781 -2.640625 19.75 -10.390625 L 19.4375 -10.390625 C 19.601562 -10.054688 19.6875 -6.550781 19.6875 0.125 L 19.6875 26.28125 L 8.546875 26.28125 L 8.546875 -53.25 C 8.546875 -60.132812 8.421875 -64.691406 8.171875 -66.921875 L 18.9375 -66.921875 C 18.976562 -66.753906 19.039062 -66.164062 19.125 -65.15625 C 19.207031 -64.144531 19.300781 -62.585938 19.40625 -60.484375 C 19.507812 -58.378906 19.5625 -56.9375 19.5625 -56.15625 L 19.8125 -56.15625 C 21.789062 -60.28125 24.410156 -63.300781 27.671875 -65.21875 C 30.929688 -67.132812 35.222656 -68.09375 40.546875 -68.09375 C 48.796875 -68.09375 54.960938 -65.328125 59.046875 -59.796875 C 63.140625 -54.273438 65.1875 -45.597656 65.1875 -33.765625 Z M 53.484375 -33.515625 C 53.484375 -42.835938 52.222656 -49.5 49.703125 -53.5 C 47.191406 -57.5 43.191406 -59.5 37.703125 -59.5 C 33.285156 -59.5 29.828125 -58.566406 27.328125 -56.703125 C 24.828125 -54.847656 22.925781 -51.953125 21.625 -48.015625 C 20.332031 -44.078125 19.6875 -38.957031 19.6875 -32.65625 C 19.6875 -23.875 21.085938 -17.398438 23.890625 -13.234375 C 26.703125 -9.066406 31.265625 -6.984375 37.578125 -6.984375 C 43.109375 -6.984375 47.140625 -9.015625 49.671875 -13.078125 C 52.210938 -17.140625 53.484375 -23.953125 53.484375 -33.515625 Z M 53.484375 -33.515625 "/></g></g></g><g fill="#000000" fill-opacity="1"><g transform="translate(1164.344278, 682.019783)"><g><path d="M 8.484375 -81.140625 L 8.484375 -91.78125 L 19.625 -91.78125 L 19.625 -81.140625 Z M 8.484375 0 L 8.484375 -66.921875 L 19.625 -66.921875 L 19.625 0 Z M 8.484375 0 "/></g></g></g><g fill="#000000" fill-opacity="1"><g transform="translate(1204.042933, 682.019783)"><g><path d="M 51.078125 0 L 51.078125 -42.421875 C 51.078125 -46.835938 50.640625 -50.257812 49.765625 -52.6875 C 48.898438 -55.125 47.519531 -56.878906 45.625 -57.953125 C 43.726562 -59.023438 40.941406 -59.5625 37.265625 -59.5625 C 31.898438 -59.5625 27.671875 -57.722656 24.578125 -54.046875 C 21.484375 -50.378906 19.9375 -45.289062 19.9375 -38.78125 L 19.9375 0 L 8.796875 0 L 8.796875 -52.625 C 8.796875 -60.414062 8.671875 -65.179688 8.421875 -66.921875 L 18.9375 -66.921875 C 18.976562 -66.710938 19.019531 -66.15625 19.0625 -65.25 C 19.101562 -64.34375 19.15625 -63.300781 19.21875 -62.125 C 19.28125 -60.945312 19.351562 -58.726562 19.4375 -55.46875 L 19.625 -55.46875 C 22.1875 -60.09375 25.144531 -63.363281 28.5 -65.28125 C 31.863281 -67.195312 36.046875 -68.15625 41.046875 -68.15625 C 48.390625 -68.15625 53.765625 -66.328125 57.171875 -62.671875 C 60.578125 -59.023438 62.28125 -53 62.28125 -44.59375 L 62.28125 0 Z M 51.078125 0 "/></g></g></g><g fill="#000000" fill-opacity="1"><g transform="translate(1284.459664, 682.019783)"><g><path d="M 33.921875 26.28125 C 26.617188 26.28125 20.800781 24.847656 16.46875 21.984375 C 12.132812 19.117188 9.347656 15.046875 8.109375 9.765625 L 19.3125 8.15625 C 20.050781 11.25 21.691406 13.628906 24.234375 15.296875 C 26.773438 16.972656 30.109375 17.8125 34.234375 17.8125 C 45.335938 17.8125 50.890625 11.316406 50.890625 -1.671875 L 50.890625 -12.4375 L 50.765625 -12.4375 C 48.660156 -8.144531 45.769531 -4.914062 42.09375 -2.75 C 38.414062 -0.582031 34.125 0.5 29.21875 0.5 C 21.007812 0.5 14.972656 -2.21875 11.109375 -7.65625 C 7.253906 -13.101562 5.328125 -21.660156 5.328125 -33.328125 C 5.328125 -45.160156 7.398438 -53.890625 11.546875 -59.515625 C 15.691406 -65.148438 21.992188 -67.96875 30.453125 -67.96875 C 35.203125 -67.96875 39.316406 -66.882812 42.796875 -64.71875 C 46.285156 -62.550781 48.984375 -59.46875 50.890625 -55.46875 L 51.015625 -55.46875 C 51.015625 -56.707031 51.09375 -58.851562 51.25 -61.90625 C 51.414062 -64.957031 51.582031 -66.628906 51.75 -66.921875 L 62.34375 -66.921875 C 62.09375 -64.691406 61.96875 -60.070312 61.96875 -53.0625 L 61.96875 -1.921875 C 61.96875 16.878906 52.617188 26.28125 33.921875 26.28125 Z M 50.890625 -33.453125 C 50.890625 -38.898438 50.144531 -43.59375 48.65625 -47.53125 C 47.164062 -51.46875 45.066406 -54.472656 42.359375 -56.546875 C 39.660156 -58.628906 36.601562 -59.671875 33.1875 -59.671875 C 27.488281 -59.671875 23.335938 -57.609375 20.734375 -53.484375 C 18.140625 -49.367188 16.84375 -42.691406 16.84375 -33.453125 C 16.84375 -24.304688 18.054688 -17.734375 20.484375 -13.734375 C 22.921875 -9.734375 27.09375 -7.734375 33 -7.734375 C 36.5 -7.734375 39.609375 -8.765625 42.328125 -10.828125 C 45.054688 -12.890625 47.164062 -15.847656 48.65625 -19.703125 C 50.144531 -23.554688 50.890625 -28.140625 50.890625 -33.453125 Z M 50.890625 -33.453125 "/></g></g></g><path fill="#27215e" d="M 416.703125 503.71875 L 416.703125 583.792969 C 416.703125 593.835938 408.558594 601.972656 398.503906 601.972656 C 388.445312 601.972656 380.304688 593.835938 380.304688 583.792969 L 380.304688 502.285156 C 384.59375 507.988281 391.414062 511.667969 399.09375 511.667969 C 406.113281 511.667969 412.414062 508.59375 416.703125 503.71875 Z M 416.703125 503.71875 " fill-opacity="1" fill-rule="nonzero"/><g clip-path="url(#b93f81d236)"><path fill="#b11e92" d="M 422.566406 476.488281 C 422.566406 477.253906 422.53125 478.019531 422.453125 478.785156 C 422.378906 479.550781 422.265625 480.308594 422.117188 481.0625 C 421.96875 481.816406 421.78125 482.558594 421.558594 483.292969 C 421.332031 484.027344 421.074219 484.75 420.78125 485.460938 C 420.488281 486.171875 420.160156 486.863281 419.796875 487.542969 C 419.433594 488.21875 419.039062 488.875 418.613281 489.515625 C 418.183594 490.152344 417.726562 490.769531 417.238281 491.363281 C 416.75 491.957031 416.234375 492.527344 415.691406 493.070312 C 415.148438 493.613281 414.578125 494.125 413.984375 494.613281 C 413.390625 495.101562 412.773438 495.558594 412.136719 495.984375 C 411.496094 496.410156 410.835938 496.804688 410.160156 497.167969 C 409.480469 497.53125 408.789062 497.859375 408.078125 498.152344 C 407.367188 498.445312 406.644531 498.703125 405.90625 498.925781 C 405.171875 499.148438 404.425781 499.335938 403.671875 499.488281 C 402.917969 499.636719 402.160156 499.75 401.394531 499.824219 C 400.628906 499.898438 399.863281 499.9375 399.09375 499.9375 C 398.324219 499.9375 397.558594 499.898438 396.792969 499.824219 C 396.027344 499.75 395.269531 499.636719 394.515625 499.488281 C 393.761719 499.335938 393.015625 499.148438 392.28125 498.925781 C 391.542969 498.703125 390.820312 498.445312 390.109375 498.152344 C 389.398438 497.859375 388.707031 497.53125 388.027344 497.167969 C 387.351562 496.804688 386.691406 496.410156 386.050781 495.984375 C 385.414062 495.558594 384.796875 495.101562 384.203125 494.613281 C 383.609375 494.125 383.039062 493.613281 382.496094 493.070312 C 381.953125 492.527344 381.433594 491.957031 380.949219 491.363281 C 380.460938 490.769531 380.003906 490.152344 379.574219 489.515625 C 379.148438 488.875 378.753906 488.21875 378.390625 487.542969 C 378.027344 486.863281 377.699219 486.171875 377.40625 485.460938 C 377.113281 484.75 376.851562 484.027344 376.628906 483.292969 C 376.40625 482.558594 376.21875 481.816406 376.070312 481.0625 C 375.921875 480.308594 375.808594 479.550781 375.730469 478.785156 C 375.65625 478.019531 375.621094 477.253906 375.621094 476.488281 C 375.621094 475.71875 375.65625 474.953125 375.730469 474.1875 C 375.808594 473.421875 375.921875 472.664062 376.070312 471.910156 C 376.21875 471.160156 376.40625 470.414062 376.628906 469.679688 C 376.851562 468.945312 377.113281 468.222656 377.40625 467.511719 C 377.699219 466.804688 378.027344 466.109375 378.390625 465.433594 C 378.753906 464.753906 379.148438 464.097656 379.574219 463.457031 C 380.003906 462.820312 380.460938 462.203125 380.949219 461.609375 C 381.433594 461.015625 381.953125 460.449219 382.496094 459.90625 C 383.039062 459.363281 383.609375 458.847656 384.203125 458.359375 C 384.796875 457.871094 385.414062 457.414062 386.050781 456.988281 C 386.691406 456.5625 387.351562 456.167969 388.027344 455.804688 C 388.707031 455.441406 389.398438 455.113281 390.109375 454.820312 C 390.820312 454.527344 391.542969 454.269531 392.28125 454.046875 C 393.015625 453.824219 393.761719 453.636719 394.515625 453.488281 C 395.269531 453.335938 396.027344 453.222656 396.792969 453.148438 C 397.558594 453.074219 398.324219 453.035156 399.09375 453.035156 C 399.863281 453.035156 400.628906 453.074219 401.394531 453.148438 C 402.160156 453.222656 402.917969 453.335938 403.671875 453.488281 C 404.425781 453.636719 405.171875 453.824219 405.90625 454.046875 C 406.644531 454.269531 407.367188 454.527344 408.078125 454.820312 C 408.789062 455.113281 409.480469 455.441406 410.160156 455.804688 C 410.835938 456.167969 411.496094 456.5625 412.136719 456.988281 C 412.773438 457.414062 413.390625 457.871094 413.984375 458.359375 C 414.578125 458.847656 415.148438 459.363281 415.691406 459.90625 C 416.234375 460.449219 416.75 461.015625 417.238281 461.609375 C 417.726562 462.203125 418.183594 462.820312 418.613281 463.457031 C 419.039062 464.097656 419.433594 464.753906 419.796875 465.433594 C 420.160156 466.109375 420.488281 466.804688 420.78125 467.511719 C 421.074219 468.222656 421.332031 468.945312 421.558594 469.679688 C 421.78125 470.414062 421.96875 471.160156 422.117188 471.910156 C 422.265625 472.664062 422.378906 473.421875 422.453125 474.1875 C 422.53125 474.953125 422.566406 475.71875 422.566406 476.488281 Z M 422.566406 476.488281 " fill-opacity="1" fill-rule="nonzero"/></g><g transform="matrix(1, 0, 0, 1, 458, 838)"><g clip-path="url(#343bc49fed)"><g fill="#545454" fill-opacity="1"><g transform="translate(0.652885, 283.213122)"><g><path d="M 61.734375 0 L 24.484375 0 L 24.484375 -188.421875 L 61.734375 -188.421875 Z M 61.734375 0 "/></g></g></g><g fill="#545454" fill-opacity="1"><g transform="translate(86.999078, 283.213122)"><g><path d="M 58.640625 0 L 24.484375 0 L 24.484375 -188.421875 L 73.203125 -188.421875 L 120.890625 -49.875 L 123.59375 -49.875 L 171.015625 -188.421875 L 218.578125 -188.421875 L 218.578125 0 L 183.265625 0 L 183.265625 -124.5 L 180.046875 -125.015625 L 136.484375 0 L 105.421875 0 L 61.859375 -125.015625 L 58.640625 -124.5 Z M 58.640625 0 "/></g></g></g><g fill="#545454" fill-opacity="1"><g transform="translate(330.186055, 283.213122)"><g><path d="M 180.8125 0 L 141.640625 0 L 127.453125 -43.4375 L 55.28125 -43.4375 L 41.109375 0 L 2.828125 0 L 67.921875 -188.421875 L 115.734375 -188.421875 Z M 89.5625 -149.109375 L 65.34375 -74.75 L 117.140625 -74.75 L 92.796875 -149.109375 Z M 89.5625 -149.109375 "/></g></g></g><g fill="#545454" fill-opacity="1"><g transform="translate(509.579909, 283.213122)"><g><path d="M 91.5 2.703125 C 75.78125 2.703125 62.179688 -0.878906 50.703125 -8.046875 C 39.234375 -15.222656 30.382812 -26.050781 24.15625 -40.53125 C 17.9375 -55.007812 14.828125 -72.898438 14.828125 -94.203125 C 14.828125 -115.679688 18.5625 -133.660156 26.03125 -148.140625 C 33.507812 -162.617188 43.882812 -173.398438 57.15625 -180.484375 C 70.425781 -187.578125 85.828125 -191.125 103.359375 -191.125 C 121.398438 -191.125 136.773438 -187.769531 149.484375 -181.0625 C 162.203125 -174.363281 171.140625 -164.398438 176.296875 -151.171875 L 149.109375 -134.671875 L 145.890625 -134.796875 C 142.023438 -143.222656 136.585938 -149.367188 129.578125 -153.234375 C 122.578125 -157.097656 113.835938 -159.03125 103.359375 -159.03125 C 87.117188 -159.03125 74.703125 -153.894531 66.109375 -143.625 C 57.515625 -133.363281 53.21875 -116.890625 53.21875 -94.203125 C 53.21875 -71.441406 57.234375 -54.90625 65.265625 -44.59375 C 73.304688 -34.28125 85.1875 -29.125 100.90625 -29.125 C 114.476562 -29.125 124.488281 -32.171875 130.9375 -38.265625 C 137.382812 -44.367188 140.609375 -53.476562 140.609375 -65.59375 L 140.609375 -73.71875 L 96.015625 -73.71875 L 96.015625 -104 L 177.59375 -104 L 177.59375 0 L 142.015625 0 L 142.015625 -25.265625 L 139.3125 -25.640625 C 135.445312 -16.617188 129.582031 -9.640625 121.71875 -4.703125 C 113.863281 0.234375 103.789062 2.703125 91.5 2.703125 Z M 91.5 2.703125 "/></g></g></g><g fill="#545454" fill-opacity="1"><g transform="translate(706.11414, 283.213122)"><g><path d="M 61.734375 -82.734375 L 61.734375 -31.1875 L 151.6875 -31.1875 L 151.6875 0 L 24.484375 0 L 24.484375 -188.421875 L 149.625 -188.421875 L 149.625 -157.234375 L 61.734375 -157.234375 L 61.734375 -113.15625 L 138.546875 -113.15625 L 138.546875 -82.734375 Z M 61.734375 -82.734375 "/></g></g></g></g></g><g clip-path="url(#46511cf9cc)"><path fill="#a6a6a6" d="M 896.113281 1179.179688 L 311.433594 1175.664062 L 311.019531 1175.40625 L 311.433594 1175.65625 L 896.113281 1172.136719 Z M 896.113281 1179.179688 " fill-opacity="1" fill-rule="nonzero"/></g><g clip-path="url(#2143e1c3e5)"><path fill="#a6a6a6" d="M 888.65625 1172.136719 L 1473.339844 1175.65625 L 1473.75 1175.40625 L 1473.339844 1175.664062 L 888.65625 1179.179688 Z M 888.65625 1172.136719 " fill-opacity="1" fill-rule="nonzero"/></g><g fill="#545454" fill-opacity="1"><g transform="translate(458.652897, 1295.155352)"><g><path d="M 43.6875 1.140625 C 36.320312 1.140625 29.832031 -0.382812 24.21875 -3.4375 C 18.601562 -6.5 14.207031 -11.101562 11.03125 -17.25 C 7.863281 -23.394531 6.28125 -30.96875 6.28125 -39.96875 C 6.28125 -48.976562 7.863281 -56.550781 11.03125 -62.6875 C 14.207031 -68.832031 18.601562 -73.4375 24.21875 -76.5 C 29.832031 -79.5625 36.320312 -81.09375 43.6875 -81.09375 C 51.382812 -81.09375 57.921875 -79.585938 63.296875 -76.578125 C 68.671875 -73.566406 72.503906 -68.984375 74.796875 -62.828125 L 63.265625 -55.78125 L 61.890625 -55.828125 C 60.179688 -59.984375 57.859375 -62.960938 54.921875 -64.765625 C 51.992188 -66.566406 48.25 -67.46875 43.6875 -67.46875 C 37.050781 -67.46875 31.875 -65.269531 28.15625 -60.875 C 24.4375 -56.488281 22.578125 -49.519531 22.578125 -39.96875 C 22.578125 -30.457031 24.4375 -23.503906 28.15625 -19.109375 C 31.875 -14.710938 37.050781 -12.515625 43.6875 -12.515625 C 54.070312 -12.515625 60.429688 -17.566406 62.765625 -27.671875 L 64.140625 -27.671875 L 75.78125 -21.59375 C 73.59375 -14.007812 69.851562 -8.320312 64.5625 -4.53125 C 59.28125 -0.75 52.320312 1.140625 43.6875 1.140625 Z M 43.6875 1.140625 "/></g></g></g><g fill="#545454" fill-opacity="1"><g transform="translate(536.137152, 1295.155352)"><g><path d="M 43.578125 1.140625 C 36.253906 1.140625 29.789062 -0.347656 24.1875 -3.328125 C 18.59375 -6.316406 14.207031 -10.882812 11.03125 -17.03125 C 7.863281 -23.175781 6.28125 -30.820312 6.28125 -39.96875 C 6.28125 -49.125 7.863281 -56.769531 11.03125 -62.90625 C 14.207031 -69.050781 18.59375 -73.617188 24.1875 -76.609375 C 29.789062 -79.597656 36.253906 -81.09375 43.578125 -81.09375 C 50.910156 -81.09375 57.363281 -79.601562 62.9375 -76.625 C 68.507812 -73.65625 72.875 -69.09375 76.03125 -62.9375 C 79.1875 -56.78125 80.765625 -49.125 80.765625 -39.96875 C 80.765625 -30.820312 79.1875 -23.164062 76.03125 -17 C 72.875 -10.84375 68.507812 -6.28125 62.9375 -3.3125 C 57.363281 -0.34375 50.910156 1.140625 43.578125 1.140625 Z M 43.578125 -12.578125 C 50.359375 -12.578125 55.535156 -14.753906 59.109375 -19.109375 C 62.679688 -23.460938 64.46875 -30.414062 64.46875 -39.96875 C 64.46875 -49.519531 62.679688 -56.484375 59.109375 -60.859375 C 55.535156 -65.234375 50.359375 -67.421875 43.578125 -67.421875 C 36.765625 -67.421875 31.5625 -65.234375 27.96875 -60.859375 C 24.375 -56.484375 22.578125 -49.519531 22.578125 -39.96875 C 22.578125 -30.414062 24.375 -23.460938 27.96875 -19.109375 C 31.5625 -14.753906 36.765625 -12.578125 43.578125 -12.578125 Z M 43.578125 -12.578125 "/></g></g></g><g fill="#545454" fill-opacity="1"><g transform="translate(623.245446, 1295.155352)"><g><path d="M 24.875 0 L 10.390625 0 L 10.390625 -79.9375 L 31.0625 -79.9375 L 51.296875 -21.15625 L 52.4375 -21.15625 L 72.5625 -79.9375 L 92.734375 -79.9375 L 92.734375 0 L 77.75 0 L 77.75 -52.828125 L 76.390625 -53.046875 L 57.90625 0 L 44.734375 0 L 26.25 -53.046875 L 24.875 -52.828125 Z M 24.875 0 "/></g></g></g><g fill="#545454" fill-opacity="1"><g transform="translate(726.430224, 1295.155352)"><g><path d="M 26.1875 0 L 10.390625 0 L 10.390625 -79.9375 L 26.1875 -79.9375 Z M 26.1875 0 "/></g></g></g><g fill="#545454" fill-opacity="1"><g transform="translate(763.067095, 1295.155352)"><g><path d="M 25.703125 0 L 10.390625 0 L 10.390625 -79.9375 L 28.484375 -79.9375 L 60.578125 -28.4375 L 62 -28.65625 L 62 -79.9375 L 77.203125 -79.9375 L 77.203125 0 L 61.015625 0 L 27.0625 -55.015625 L 25.703125 -54.796875 Z M 25.703125 0 "/></g></g></g><g fill="#545454" fill-opacity="1"><g transform="translate(850.72221, 1295.155352)"><g><path d="M 38.828125 1.140625 C 32.148438 1.140625 26.378906 -0.378906 21.515625 -3.421875 C 16.648438 -6.460938 12.894531 -11.050781 10.25 -17.1875 C 7.601562 -23.332031 6.28125 -30.925781 6.28125 -39.96875 C 6.28125 -49.082031 7.863281 -56.707031 11.03125 -62.84375 C 14.207031 -68.988281 18.613281 -73.566406 24.25 -76.578125 C 29.882812 -79.585938 36.421875 -81.09375 43.859375 -81.09375 C 51.515625 -81.09375 58.035156 -79.671875 63.421875 -76.828125 C 68.816406 -73.984375 72.609375 -69.753906 74.796875 -64.140625 L 63.265625 -57.140625 L 61.890625 -57.1875 C 60.253906 -60.757812 57.953125 -63.363281 54.984375 -65 C 52.015625 -66.644531 48.304688 -67.46875 43.859375 -67.46875 C 36.960938 -67.46875 31.691406 -65.289062 28.046875 -60.9375 C 24.398438 -56.582031 22.578125 -49.59375 22.578125 -39.96875 C 22.578125 -30.3125 24.28125 -23.296875 27.6875 -18.921875 C 31.101562 -14.546875 36.144531 -12.359375 42.8125 -12.359375 C 48.570312 -12.359375 52.816406 -13.648438 55.546875 -16.234375 C 58.285156 -18.828125 59.65625 -22.691406 59.65625 -27.828125 L 59.65625 -31.28125 L 40.734375 -31.28125 L 40.734375 -44.125 L 75.34375 -44.125 L 75.34375 0 L 60.25 0 L 60.25 -10.71875 L 59.109375 -10.875 C 57.460938 -7.050781 54.972656 -4.09375 51.640625 -2 C 48.304688 0.09375 44.035156 1.140625 38.828125 1.140625 Z M 38.828125 1.140625 "/></g></g></g><g fill="#545454" fill-opacity="1"><g transform="translate(934.112123, 1295.155352)"><g/></g></g><g fill="#545454" fill-opacity="1"><g transform="translate(960.523493, 1295.155352)"><g><path d="M 35.4375 1.140625 C 29.894531 1.140625 24.960938 0.457031 20.640625 -0.90625 C 16.316406 -2.269531 12.710938 -4.0625 9.828125 -6.28125 C 6.953125 -8.507812 4.75 -10.953125 3.21875 -13.609375 L 11.921875 -24.21875 L 13.28125 -24.21875 C 15.6875 -20.644531 18.738281 -17.800781 22.4375 -15.6875 C 26.144531 -13.570312 30.476562 -12.515625 35.4375 -12.515625 C 39.664062 -12.515625 42.851562 -13.40625 45 -15.1875 C 47.15625 -16.976562 48.234375 -19.441406 48.234375 -22.578125 C 48.234375 -24.472656 47.882812 -26.054688 47.1875 -27.328125 C 46.5 -28.609375 45.351562 -29.703125 43.75 -30.609375 C 42.144531 -31.523438 39.972656 -32.3125 37.234375 -32.96875 L 26.953125 -35.328125 C 19.773438 -36.960938 14.425781 -39.6875 10.90625 -43.5 C 7.382812 -47.3125 5.625 -52.257812 5.625 -58.34375 C 5.625 -62.863281 6.753906 -66.835938 9.015625 -70.265625 C 11.273438 -73.691406 14.566406 -76.351562 18.890625 -78.25 C 23.210938 -80.144531 28.378906 -81.09375 34.390625 -81.09375 C 40.554688 -81.09375 45.832031 -80.28125 50.21875 -78.65625 C 54.613281 -77.03125 58.320312 -74.539062 61.34375 -71.1875 L 53.53125 -60.46875 L 52.171875 -60.46875 C 49.910156 -62.84375 47.320312 -64.617188 44.40625 -65.796875 C 41.488281 -66.984375 38.148438 -67.578125 34.390625 -67.578125 C 30.054688 -67.578125 26.757812 -66.8125 24.5 -65.28125 C 22.238281 -63.75 21.109375 -61.632812 21.109375 -58.9375 C 21.109375 -56.425781 21.898438 -54.421875 23.484375 -52.921875 C 25.066406 -51.429688 27.8125 -50.269531 31.71875 -49.4375 L 42.21875 -47.25 C 49.976562 -45.601562 55.609375 -42.820312 59.109375 -38.90625 C 62.609375 -34.988281 64.359375 -29.875 64.359375 -23.5625 C 64.359375 -18.570312 63.28125 -14.222656 61.125 -10.515625 C 58.976562 -6.816406 55.734375 -3.945312 51.390625 -1.90625 C 47.054688 0.125 41.738281 1.140625 35.4375 1.140625 Z M 35.4375 1.140625 "/></g></g></g><g fill="#545454" fill-opacity="1"><g transform="translate(1029.204023, 1295.155352)"><g><path d="M 43.578125 1.140625 C 36.253906 1.140625 29.789062 -0.347656 24.1875 -3.328125 C 18.59375 -6.316406 14.207031 -10.882812 11.03125 -17.03125 C 7.863281 -23.175781 6.28125 -30.820312 6.28125 -39.96875 C 6.28125 -49.125 7.863281 -56.769531 11.03125 -62.90625 C 14.207031 -69.050781 18.59375 -73.617188 24.1875 -76.609375 C 29.789062 -79.597656 36.253906 -81.09375 43.578125 -81.09375 C 50.910156 -81.09375 57.363281 -79.601562 62.9375 -76.625 C 68.507812 -73.65625 72.875 -69.09375 76.03125 -62.9375 C 79.1875 -56.78125 80.765625 -49.125 80.765625 -39.96875 C 80.765625 -30.820312 79.1875 -23.164062 76.03125 -17 C 72.875 -10.84375 68.507812 -6.28125 62.9375 -3.3125 C 57.363281 -0.34375 50.910156 1.140625 43.578125 1.140625 Z M 43.578125 -12.578125 C 50.359375 -12.578125 55.535156 -14.753906 59.109375 -19.109375 C 62.679688 -23.460938 64.46875 -30.414062 64.46875 -39.96875 C 64.46875 -49.519531 62.679688 -56.484375 59.109375 -60.859375 C 55.535156 -65.234375 50.359375 -67.421875 43.578125 -67.421875 C 36.765625 -67.421875 31.5625 -65.234375 27.96875 -60.859375 C 24.375 -56.484375 22.578125 -49.519531 22.578125 -39.96875 C 22.578125 -30.414062 24.375 -23.460938 27.96875 -19.109375 C 31.5625 -14.753906 36.765625 -12.578125 43.578125 -12.578125 Z M 43.578125 -12.578125 "/></g></g></g><g fill="#545454" fill-opacity="1"><g transform="translate(1116.312283, 1295.155352)"><g><path d="M 43.578125 1.140625 C 36.253906 1.140625 29.789062 -0.347656 24.1875 -3.328125 C 18.59375 -6.316406 14.207031 -10.882812 11.03125 -17.03125 C 7.863281 -23.175781 6.28125 -30.820312 6.28125 -39.96875 C 6.28125 -49.125 7.863281 -56.769531 11.03125 -62.90625 C 14.207031 -69.050781 18.59375 -73.617188 24.1875 -76.609375 C 29.789062 -79.597656 36.253906 -81.09375 43.578125 -81.09375 C 50.910156 -81.09375 57.363281 -79.601562 62.9375 -76.625 C 68.507812 -73.65625 72.875 -69.09375 76.03125 -62.9375 C 79.1875 -56.78125 80.765625 -49.125 80.765625 -39.96875 C 80.765625 -30.820312 79.1875 -23.164062 76.03125 -17 C 72.875 -10.84375 68.507812 -6.28125 62.9375 -3.3125 C 57.363281 -0.34375 50.910156 1.140625 43.578125 1.140625 Z M 43.578125 -12.578125 C 50.359375 -12.578125 55.535156 -14.753906 59.109375 -19.109375 C 62.679688 -23.460938 64.46875 -30.414062 64.46875 -39.96875 C 64.46875 -49.519531 62.679688 -56.484375 59.109375 -60.859375 C 55.535156 -65.234375 50.359375 -67.421875 43.578125 -67.421875 C 36.765625 -67.421875 31.5625 -65.234375 27.96875 -60.859375 C 24.375 -56.484375 22.578125 -49.519531 22.578125 -39.96875 C 22.578125 -30.414062 24.375 -23.460938 27.96875 -19.109375 C 31.5625 -14.753906 36.765625 -12.578125 43.578125 -12.578125 Z M 43.578125 -12.578125 "/></g></g></g><g fill="#545454" fill-opacity="1"><g transform="translate(1203.42059, 1295.155352)"><g><path d="M 25.703125 0 L 10.390625 0 L 10.390625 -79.9375 L 28.484375 -79.9375 L 60.578125 -28.4375 L 62 -28.65625 L 62 -79.9375 L 77.203125 -79.9375 L 77.203125 0 L 61.015625 0 L 27.0625 -55.015625 L 25.703125 -54.796875 Z M 25.703125 0 "/></g></g></g><g fill="#545454" fill-opacity="1"><g transform="translate(1291.075658, 1295.155352)"><g><path d="M 24.390625 -26.515625 L 10.71875 -26.515625 L 9.625 -79.9375 L 25.484375 -79.9375 Z M 17.546875 0.546875 C 15.648438 0.546875 13.984375 0.164062 12.546875 -0.59375 C 11.109375 -1.363281 9.992188 -2.421875 9.203125 -3.765625 C 8.421875 -5.117188 8.03125 -6.632812 8.03125 -8.3125 C 8.03125 -10.019531 8.421875 -11.554688 9.203125 -12.921875 C 9.992188 -14.296875 11.109375 -15.363281 12.546875 -16.125 C 13.984375 -16.894531 15.648438 -17.28125 17.546875 -17.28125 C 20.390625 -17.28125 22.675781 -16.441406 24.40625 -14.765625 C 26.144531 -13.085938 27.015625 -10.953125 27.015625 -8.359375 C 27.015625 -5.773438 26.144531 -3.644531 24.40625 -1.96875 C 22.675781 -0.289062 20.390625 0.546875 17.546875 0.546875 Z M 17.546875 0.546875 "/></g></g></g></svg>