<svg width="25" height="25" viewBox="0 0 25 25" fill="none" xmlns="http://www.w3.org/2000/svg">
<g clip-path="url(#clip0_6629_13570)">
<path d="M21.5909 0H3.40909C1.5263 0 0 1.5263 0 3.40909V21.5909C0 23.4737 1.5263 25 3.40909 25H21.5909C23.4737 25 25 23.4737 25 21.5909V3.40909C25 1.5263 23.4737 0 21.5909 0Z" fill="#1C8ADB"/>
<path d="M19.3098 6.46497L19.0512 6.55872L5.01999 11.6141C4.92056 11.6449 4.83414 11.7077 4.77427 11.7929C4.71441 11.878 4.68449 11.9806 4.6892 12.0846C4.69391 12.1886 4.73299 12.288 4.80031 12.3674C4.86763 12.4468 4.95938 12.5016 5.06118 12.5232L8.69329 13.5175L9.37084 15.5062L10.0484 17.4948C10.0873 17.5923 10.1495 17.6788 10.2294 17.7468C10.3093 17.8148 10.4047 17.8623 10.5071 17.8851C10.6096 17.908 10.7161 17.9054 10.8173 17.8777C10.9186 17.8501 11.0116 17.7981 11.0882 17.7263L12.9646 15.9536L16.6493 18.4522C17.0995 18.759 17.7416 18.5317 17.8566 18.0261L20.297 7.24338C20.4163 6.70929 19.8538 6.27037 19.3098 6.46497ZM17.5186 8.85844L11.1791 14.0403L10.8808 14.2846C10.8153 14.3365 10.7725 14.4119 10.7615 14.4948L10.6947 15.0459L10.5115 16.5942C10.513 16.6131 10.5069 16.6317 10.4947 16.6461C10.4824 16.6605 10.465 16.6694 10.4461 16.6709C10.4273 16.6724 10.4086 16.6664 10.3942 16.6542C10.3799 16.6419 10.3709 16.6244 10.3694 16.6056L9.8538 15.0587L9.32113 13.4749C9.2986 13.4037 9.30159 13.3269 9.32959 13.2577C9.35759 13.1885 9.40885 13.1312 9.47454 13.0957L16.0711 9.3144L17.3126 8.60418C17.493 8.49906 17.6777 8.72776 17.5186 8.85844Z" fill="white"/>
</g>
<defs>
<clipPath id="clip0_6629_13570">
<rect width="25" height="25" fill="white"/>
</clipPath>
</defs>
</svg>
