<svg width="25" height="25" viewBox="0 0 25 25" fill="none" xmlns="http://www.w3.org/2000/svg">
<g clip-path="url(#clip0_6629_13539)">
<path d="M0.531942 25C0.45011 25 0.369383 24.9811 0.29604 24.9448C0.222697 24.9085 0.158715 24.8558 0.109072 24.7907C0.0594291 24.7257 0.0254629 24.6501 0.0098157 24.5697C-0.00583148 24.4894 -0.00273775 24.4066 0.0188562 24.3276L1.6441 18.3928C0.632235 16.563 0.098739 14.4932 0.0995203 12.392C0.102401 5.55898 5.66305 0 12.4956 0C15.8096 0.00131836 18.9235 1.29224 21.264 3.63447C23.6042 5.97686 24.8924 9.09063 24.8915 12.402C24.8884 19.2352 19.3277 24.7946 12.4956 24.7946H12.4902C10.4946 24.7938 8.51607 24.3074 6.75445 23.3862L0.666757 24.9827C0.622128 24.9943 0.576766 25 0.531942 25Z" fill="#E5E5E5"/>
<path d="M0.531738 24.4673L2.21475 18.3213C1.17661 16.5225 0.630518 14.4819 0.63125 12.3915C0.633984 5.85176 5.95581 0.53125 12.4954 0.53125C15.6688 0.532568 18.6475 1.76777 20.8875 4.00967C23.1273 6.25156 24.3604 9.23159 24.3593 12.401C24.3564 18.9406 19.0337 24.2619 12.4954 24.2619C12.4956 24.2619 12.495 24.2619 12.4954 24.2619H12.4902C10.5047 24.2611 8.55381 23.7631 6.821 22.818L0.531738 24.4673ZM7.1123 20.6709L7.47256 20.8844C8.98623 21.7827 10.7217 22.2578 12.4916 22.2588H12.4954C17.9302 22.2588 22.3537 17.836 22.356 12.4003C22.3569 9.76602 21.3323 7.28897 19.4706 5.42568C17.6086 3.5624 15.1331 2.53564 12.499 2.53452C7.05981 2.53452 2.63647 6.95669 2.63438 12.3923C2.63359 14.255 3.15469 16.0688 4.14194 17.6386L4.37656 18.0117L3.38013 21.6494L7.1123 20.6709Z" fill="white"/>
<path d="M0.944336 24.0528L2.56919 18.1192C1.5667 16.3828 1.0397 14.4127 1.04028 12.3949C1.04272 6.08159 6.18057 0.945312 12.4933 0.945312C15.5573 0.946631 18.433 2.13911 20.595 4.30337C22.7576 6.46763 23.9477 9.34448 23.9465 12.4039C23.9439 18.7174 18.8059 23.8543 12.4939 23.8543C12.4941 23.8543 12.4933 23.8543 12.4939 23.8543H12.4887C10.5721 23.8535 8.68853 23.3725 7.01582 22.4607L0.944336 24.0528Z" fill="#64B161"/>
<path d="M0.531738 24.4673L2.21475 18.3213C1.17661 16.5225 0.630518 14.4819 0.63125 12.3915C0.633984 5.85176 5.95581 0.53125 12.4954 0.53125C15.6688 0.532568 18.6475 1.76777 20.8875 4.00967C23.1273 6.25156 24.3604 9.23159 24.3593 12.401C24.3564 18.9406 19.0337 24.2619 12.4954 24.2619C12.4956 24.2619 12.495 24.2619 12.4954 24.2619H12.4902C10.5047 24.2611 8.55381 23.7631 6.821 22.818L0.531738 24.4673ZM7.1123 20.6709L7.47256 20.8844C8.98623 21.7827 10.7217 22.2578 12.4916 22.2588H12.4954C17.9302 22.2588 22.3537 17.836 22.356 12.4003C22.3569 9.76602 21.3323 7.28897 19.4706 5.42568C17.6086 3.5624 15.1331 2.53564 12.499 2.53452C7.05981 2.53452 2.63647 6.95669 2.63438 12.3923C2.63359 14.255 3.15469 16.0688 4.14194 17.6386L4.37656 18.0117L3.38013 21.6494L7.1123 20.6709Z" fill="white"/>
<path fill-rule="evenodd" clip-rule="evenodd" d="M9.53022 7.43326C9.3082 6.9396 9.07437 6.92974 8.86304 6.92115C8.69019 6.91367 8.49243 6.91407 8.29502 6.91407C8.09741 6.91407 7.77622 6.98848 7.50459 7.28506C7.23281 7.58164 6.4668 8.29883 6.4668 9.75738C6.4668 11.2161 7.5292 12.6254 7.67739 12.8234C7.82559 13.0212 9.72817 16.11 12.7412 17.2982C15.2454 18.2859 15.7549 18.0894 16.2984 18.04C16.842 17.9906 18.0522 17.3229 18.2992 16.6307C18.5464 15.9385 18.5464 15.3453 18.4722 15.2211C18.398 15.0978 18.2004 15.0235 17.9041 14.8753C17.6077 14.7272 16.1502 14.0098 15.8784 13.911C15.6066 13.812 15.409 13.7628 15.2114 14.0596C15.0137 14.356 14.446 15.0235 14.273 15.2212C14.1 15.4193 13.927 15.4441 13.6306 15.2958C13.3342 15.1472 12.3794 14.8343 11.2468 13.8244C10.3656 13.0388 9.77051 12.0683 9.59756 11.7715C9.42471 11.4751 9.59463 11.3287 9.72778 11.1667C9.96753 10.8751 10.3698 10.3508 10.4686 10.1531C10.5674 9.95518 10.518 9.78218 10.444 9.63374C10.3698 9.48555 9.7936 8.01958 9.53022 7.43326Z" fill="white"/>
</g>
<defs>
<clipPath id="clip0_6629_13539">
<rect width="25" height="25" fill="white"/>
</clipPath>
</defs>
</svg>
