<svg width="20" height="14" viewBox="0 0 20 14" fill="none" xmlns="http://www.w3.org/2000/svg">
<path d="M4.2938 10.9824C4.0538 10.9111 3.80963 10.9782 3.63129 11.1591L3.03793 11.7549L3.03835 10.3745H3.03919L3.03711 2.24548L3.63129 2.84217C3.88963 3.10385 4.35214 3.09593 4.59673 2.82425C4.83298 2.55508 4.81215 2.1684 4.54839 1.90547L4.23881 1.5938C3.79629 1.14879 3.35419 0.702526 2.9071 0.255846C2.83751 0.190011 2.76293 0.142085 2.69918 0.102084C2.67709 0.0891672 2.65459 0.0745809 2.63584 0.0604138L2.55083 0H2.21332L2.06249 0.101665C1.99665 0.144583 1.92249 0.192087 1.86082 0.252922C1.75499 0.350425 1.65331 0.452096 1.55123 0.556682L0.208693 1.90922C-0.0150639 2.13298 -0.0192398 2.37215 0.0170112 2.53715C0.0736795 2.77424 0.238266 2.94842 0.465772 3.0155C0.704946 3.09009 0.954123 3.02175 1.1308 2.84091L1.72457 2.24506C1.72457 3.71636 1.72456 4.99973 1.72373 6.51853L1.72457 11.7557L1.12997 11.1578C0.870378 10.8982 0.411607 10.9041 0.166183 11.1757C-0.0704906 11.4445 -0.0500676 11.8307 0.21369 12.0945L0.622447 12.5062C1.03204 12.9187 1.44122 13.3308 1.85581 13.7442C1.92331 13.8092 1.99791 13.8571 2.06208 13.8971C2.085 13.9108 2.1079 13.9254 2.12707 13.9396L2.2125 14H2.54917L2.70126 13.8975C2.7721 13.8521 2.84252 13.8037 2.90252 13.7479C3.00669 13.6504 3.10669 13.55 3.20628 13.4475L4.55381 12.0908C4.72923 11.9158 4.79757 11.6937 4.74507 11.4641C4.68965 11.2299 4.52673 11.0549 4.2938 10.9824Z" fill="black"/>
<path d="M19.0488 1.90464H7.93184C7.40557 1.90464 6.97974 1.4788 6.97974 0.952532C6.97974 0.4271 7.40557 0 7.93184 0H19.0488C19.5747 0 20.0001 0.4271 20.0001 0.952532C20.0005 1.4788 19.5747 1.90464 19.0488 1.90464Z" fill="black"/>
<path d="M10.6235 14H7.93221C7.40595 14 6.9801 13.5746 6.9801 13.0479C6.9801 12.5224 7.40595 12.0953 7.93221 12.0953H10.6235C11.1494 12.0953 11.5748 12.5224 11.5748 13.0479C11.5748 13.5746 11.149 14 10.6235 14Z" fill="black"/>
<path d="M14.267 7.95272H7.93221C7.40595 7.95272 6.9801 7.52729 6.9801 7.00061C6.9801 6.47518 7.40595 6.04767 7.93221 6.04767H14.267C14.7924 6.04767 15.2178 6.47518 15.2178 7.00061C15.2178 7.52687 14.7924 7.95272 14.267 7.95272Z" fill="black"/>
</svg>
